<svg xmlns="http://www.w3.org/2000/svg" viewBox="0 0 177.26 243"><defs><style>.cls-1{fill:#e6e6e6;}.cls-2{fill:#fafafa;}.cls-3{fill:#ebebeb;}.cls-20,.cls-21,.cls-22,.cls-4{fill:var(--main);}.cls-14,.cls-15,.cls-16,.cls-17,.cls-18,.cls-19,.cls-24,.cls-5,.cls-7{fill:#fff;}.cls-10,.cls-14,.cls-15,.cls-16,.cls-17,.cls-18,.cls-19,.cls-20,.cls-21,.cls-22,.cls-23,.cls-24,.cls-5,.cls-6,.cls-9{isolation:isolate;}.cls-5{opacity:0.3;}.cls-6{opacity:0.2;}.cls-8{fill:#e0e0e0;}.cls-21,.cls-9{opacity:0.15;}.cls-10,.cls-12{fill:#455a64;}.cls-10,.cls-11{opacity:0.5;}.cls-13{fill:#37474f;}.cls-14{opacity:0.8;}.cls-15{opacity:0.85;}.cls-16{opacity:0.65;}.cls-17{opacity:0.55;}.cls-18{opacity:0.4;}.cls-19,.cls-20{opacity:0.75;}.cls-22,.cls-23{opacity:0.25;}.cls-24{opacity:0.6;}</style></defs><g id="Layer_2" data-name="Layer 2"><g id="Layer_1-2" data-name="Layer 1"><path class="cls-1" d="M5.42,242.52a3.32,3.32,0,0,1-1.48.45,3.67,3.67,0,0,1-2.16-.39A4,4,0,0,1,0,239.39V124.22l3.54,2V241.42c0,.85.43,1.35,1,1.35A2,2,0,0,0,5.42,242.52Z"/><path class="cls-2" d="M4.59,242.32c-.54,0-.6-.63-.6-.9V114.27L176.82,14.49V141.12a3.76,3.76,0,0,1-1.66,2.89L5.2,242.13A1.36,1.36,0,0,1,4.59,242.32Z"/><path class="cls-3" d="M176.38,15.26V141.13a3.29,3.29,0,0,1-1.44,2.49L5,241.75a.9.9,0,0,1-.39.13c-.16,0-.16-.45-.16-.46V114.55l172-99.29m.88-1.54L3.55,114V241.42c0,.85.42,1.35,1,1.35a1.65,1.65,0,0,0,.83-.26l170-98.11a4.14,4.14,0,0,0,1.88-3.26Z"/><path class="cls-4" d="M1.78,119.81A4,4,0,0,1,0,116.62V101.94a4.12,4.12,0,0,1,1.87-3.29L171.84.54a3.53,3.53,0,0,1,5.41,3.13v14.7a4.17,4.17,0,0,1-1.88,3.26l-170,98.11a4,4,0,0,1-3.64.07Z"/><path class="cls-5" d="M177.24,3.35c-.13-1-.92-1.33-1.86-.78l-170,98.12a4.09,4.09,0,0,0-1.33,1.41l-3.53-2a3.88,3.88,0,0,1,1.33-1.4L171.85.54a3.53,3.53,0,0,1,5.39,2.83Z"/><path class="cls-6" d="M4.09,102.1A3.76,3.76,0,0,0,3.55,104v22.33l-3.55-2V101.71a3.4,3.4,0,0,1,.08-.46,4.55,4.55,0,0,1,.47-1.17Z"/><path class="cls-4" d="M177.26,3.66V13.72L60.78,81c-1,.6-1.88.11-1.88-1.1V76.12c0-1.2-.84-1.69-1.89-1.08L12.49,100.69A4.14,4.14,0,0,0,10.61,104v3.81A4.14,4.14,0,0,1,8.73,111l-5.17,3V104a4.18,4.18,0,0,1,1.88-3.26l170-98.11C176.41,2,177.26,2.45,177.26,3.66Z"/><path class="cls-7" d="M171.86,9.06c.8-.47,1.48-.09,1.48.83a3.18,3.18,0,0,1-1.48,2.5c-.8.46-1.47.09-1.47-.83A3.16,3.16,0,0,1,171.86,9.06Z"/><path class="cls-7" d="M166.66,12.05c.8-.46,1.47-.09,1.47.84a3.2,3.2,0,0,1-1.47,2.5c-.8.46-1.48.08-1.48-.84a3.23,3.23,0,0,1,1.48-2.5Z"/><path class="cls-7" d="M161.46,15.05c.8-.46,1.48-.09,1.48.84a3.23,3.23,0,0,1-1.48,2.5c-.8.46-1.47.09-1.47-.84A3.2,3.2,0,0,1,161.46,15.05Z"/><path class="cls-8" d="M177.26,13.72V26L3.55,126.28V114l3.86-2.22c1-.6,1.39-1.51,1.88-3.26L10.6,104c.42-1.58.85-2.66,1.89-3.26l43.75-25.2c1-.6,1.86-.67,2.66.65l1.61,3c.59,1,.89,1.62,1.92,1Z"/><path class="cls-8" d="M3.55,114v12.24l-3.55-2V112Z"/><path class="cls-9" d="M3.55,114v12.24l-3.55-2V112Z"/><path class="cls-10" d="M12.21,114.9l-3,1.7,1.12-2.17a.51.51,0,0,0,0-.53c-.08-.1-.23,0-.33.16l-1.6,3.08h0l0,.12v0a.43.43,0,0,0,0,.16.33.33,0,0,0,0,.14h0l0,.06h0L10,118.9a.12.12,0,0,0,.16,0,.58.58,0,0,0,.18-.23.55.55,0,0,0,0-.5l-1.12-.84,3-1.7a.61.61,0,0,0,.23-.5C12.42,114.92,12.32,114.82,12.21,114.9Z"/><path class="cls-10" d="M14.65,113.47l3-1.7-1.13-.87c-.1-.07-.11-.3,0-.5s.24-.3.34-.23l1.6,1.23h0s0,.06,0,.07h0v.33a.61.61,0,0,1,0,.12h0L16.82,115a.45.45,0,0,1-.19.22.12.12,0,0,1-.17,0h0a.51.51,0,0,1,0-.53l1.12-2.17-2.95,1.71c-.14.08-.25,0-.25-.22a.65.65,0,0,1,.28-.54Z"/><path class="cls-10" d="M24.35,105c0-.18-.17-.16-.25,0l-.41,1c-.68-.08-1.53.6-2.09,1.8-.73,1.54-.73,3.38,0,4.08a1,1,0,0,0,1.33.08,3.61,3.61,0,0,0,1.33-1.61.53.53,0,0,0,0-.52c-.1-.09-.24,0-.34.2-.55,1.15-1.44,1.67-2,1.15s-.55-1.9,0-3.06c.39-.82.95-1.31,1.47-1.34l-.3.74c-.08.19,0,.37.12.3l1.2-.79a.36.36,0,0,0,.13-.33Z"/><path class="cls-10" d="M55,81.08l1.08-2.28a.75.75,0,0,0,0-.74c-.14-.12-.34,0-.47.27l-1.08,2.28-1.07-1c-.13-.12-.33,0-.47.27a.75.75,0,0,0,0,.74l1.09,1L53,83.9a.75.75,0,0,0,0,.74.21.21,0,0,0,.24,0,.77.77,0,0,0,.23-.28l1.07-2.28,1.08,1a.17.17,0,0,0,.23,0,.6.6,0,0,0,.24-.28.75.75,0,0,0,0-.74Z"/><path class="cls-2" d="M28.27,107.76V104a4.19,4.19,0,0,1,1.89-3.26L164.78,23c1-.6,1.88-.11,1.88,1.09v3.81a4.17,4.17,0,0,1-1.88,3.27L30.16,108.85C29.12,109.45,28.27,109,28.27,107.76Z"/><path class="cls-8" d="M162.22,31.47a.49.49,0,0,1-.17,0,.51.51,0,0,1-.29-.57l.19-1.55-.74-.52a.5.5,0,0,1-.2-.42.83.83,0,0,1,.31-.66l1.1-.86a.15.15,0,0,0,.06-.09l.49-1.61a.7.7,0,0,1,.55-.53.45.45,0,0,1,.44.26l.41.88.94-.35a.43.43,0,0,1,.5.11.7.7,0,0,1,0,.74l-.8,1.47a.17.17,0,0,0,0,.1l.18,1.36a.85.85,0,0,1-.23.68.56.56,0,0,1-.44.17l-.91-.11-.93,1.26A.56.56,0,0,1,162.22,31.47Zm-.54-3.14.74.52a.56.56,0,0,1,.2.52l-.13,1,.66-.83a.55.55,0,0,1,.49-.25l.9.12a.3.3,0,0,0,0-.1L164.39,28a.77.77,0,0,1,.1-.49l.7-1.32-.74.28a.44.44,0,0,1-.57-.23l-.33-.69L163.11,27a.78.78,0,0,1-.28.41l-1.1.86s0,0,0,0Z"/><g class="cls-11"><path class="cls-12" d="M168.88,22.55a.63.63,0,0,1-.56-.33.65.65,0,0,1,.24-.89l5.3-3.06a.65.65,0,0,1,.65,1.13l-5.3,3.07A.73.73,0,0,1,168.88,22.55Z"/><path class="cls-12" d="M168.88,25.61a.63.63,0,0,1-.56-.33.65.65,0,0,1,.24-.89l5.3-3.06a.66.66,0,0,1,.89.25.67.67,0,0,1-.24.89l-5.3,3.06A.73.73,0,0,1,168.88,25.61Z"/><path class="cls-12" d="M168.88,28.67a.64.64,0,0,1-.56-.32.66.66,0,0,1,.24-.9h0l5.3-3.06a.65.65,0,0,1,.65,1.13l-5.3,3.06A.58.58,0,0,1,168.88,28.67Z"/></g><path class="cls-12" d="M10.1,130.05,170.71,37.32v102.2L10.1,232.24Z"/><path class="cls-13" d="M48.28,189.94c-11.19.13-17.59-2.82-20.5-7.91a20.54,20.54,0,0,1-2.32-10.43,41.69,41.69,0,0,1,1.78-11.73,31.29,31.29,0,0,0,1.06-7.82c0-6.33-2.29-9-2.29-9l4.27-11.55c7.49-1.92,13.95-9.74,18-17.52,4,3.12,10.5,3.47,18-3.25l4.27,6.64A32.43,32.43,0,0,0,68.25,129a19,19,0,0,0,1.06,6.64,23,23,0,0,1,1.78,9.66,38.81,38.81,0,0,1-2.32,13.11C65.86,166.81,59.46,177.18,48.28,189.94Z"/><path class="cls-4" d="M77.26,117.11c-7.49,6.72-14,6.37-18,3.26-4,7.78-10.5,15.59-18,17.52L37,149.43s2.29,2.64,2.29,9a31.37,31.37,0,0,1-1.06,7.83,41.94,41.94,0,0,0-1.79,11.72,20.33,20.33,0,0,0,2.34,10.43,12.73,12.73,0,0,0,4.67,4.69L37,189.32A13.06,13.06,0,0,1,32,184.48a20.4,20.4,0,0,1-2.33-10.43,41.22,41.22,0,0,1,1.79-11.72,31.92,31.92,0,0,0,1.06-7.84c0-6.31-2.29-9-2.29-9L34.53,134c7.48-1.92,13.95-9.73,18-17.52,4,3.12,10.51,3.47,18-3.26Z"/><path class="cls-14" d="M54.89,117.84l-2.37-1.37A10.16,10.16,0,0,0,54.89,117.84Z"/><path class="cls-15" d="M70.52,113.21c-6.16,5.53-11.64,6.27-15.63,4.63l4.37,2.53c4,3.11,10.51,3.46,18-3.26Z"/><path class="cls-16" d="M52.52,116.47c-4,7.78-10.5,15.6-18,17.52l6.74,3.9c7.48-1.93,13.95-9.74,18-17.52Z"/><path class="cls-17" d="M34.53,134l-4.27,11.55L37,149.43l4.28-11.54Z"/><path class="cls-18" d="M38.76,188.37a20.45,20.45,0,0,1-2.33-10.43,41.22,41.22,0,0,1,1.79-11.72,31.9,31.9,0,0,0,1.06-7.83c0-6.32-2.3-9-2.3-9l-6.74-3.89s2.3,2.64,2.3,9a31.78,31.78,0,0,1-1.07,7.83,41.69,41.69,0,0,0-1.78,11.73A20.45,20.45,0,0,0,32,184.48a12.82,12.82,0,0,0,4.92,4.83l6.5,3.75a12.69,12.69,0,0,1-4.68-4.69Z"/><path class="cls-4" d="M59.27,196.28c-11.18.12-17.59-2.83-20.49-7.91a20.56,20.56,0,0,1-2.34-10.43,41.94,41.94,0,0,1,1.79-11.72,31.43,31.43,0,0,0,1.06-7.83c0-6.32-2.29-9-2.29-9l4.27-11.54c7.49-1.93,13.95-9.75,18-17.52,4,3.11,10.5,3.46,18-3.26l4.27,6.64a32.21,32.21,0,0,0-2.29,11.6A18.78,18.78,0,0,0,80.3,142a23,23,0,0,1,1.78,9.67,38.56,38.56,0,0,1-2.32,13.11C76.85,173.15,70.48,183.5,59.27,196.28Z"/><path class="cls-19" d="M59.27,196.28c-11.18.12-17.59-2.83-20.49-7.91a20.56,20.56,0,0,1-2.34-10.43,41.94,41.94,0,0,1,1.79-11.72,31.43,31.43,0,0,0,1.06-7.83c0-6.32-2.29-9-2.29-9l4.27-11.54c7.49-1.93,13.95-9.75,18-17.52,4,3.11,10.5,3.46,18-3.26l4.27,6.64a32.21,32.21,0,0,0-2.29,11.6A18.78,18.78,0,0,0,80.3,142a23,23,0,0,1,1.78,9.67,38.56,38.56,0,0,1-2.32,13.11C76.85,173.15,70.48,183.5,59.27,196.28Z"/><path class="cls-20" d="M57.94,193.41c-8.66-.1-14.26-2.27-16.64-6.45-1.35-2.35-1.95-5.16-1.95-9a36.12,36.12,0,0,1,1.43-10c.1-.35.18-.74.27-1a34.27,34.27,0,0,0,1.15-8.55,19.92,19.92,0,0,0-2-9.3l3.27-8.86c8-2.78,13.8-10.7,16.87-15.89a13.47,13.47,0,0,0,5.23,1.06,18.74,18.74,0,0,0,11-4l1.72,2.67a35.91,35.91,0,0,0-2,11.25,21.7,21.7,0,0,0,1.23,7.57c.09.26.18.51.27.74a19.24,19.24,0,0,1,1.34,7.94A35.78,35.78,0,0,1,77,163.74C74.17,172.07,67.74,182,57.94,193.41Z"/><path class="cls-18" d="M57.94,193.41c-8.66-.1-14.26-2.27-16.64-6.45-1.35-2.35-1.95-5.16-1.95-9a36.12,36.12,0,0,1,1.43-10c.1-.35.18-.74.27-1a34.27,34.27,0,0,0,1.15-8.55,19.92,19.92,0,0,0-2-9.3l3.27-8.86c8-2.78,13.8-10.7,16.87-15.89a13.47,13.47,0,0,0,5.23,1.06,18.74,18.74,0,0,0,11-4l1.72,2.67a35.91,35.91,0,0,0-2,11.25,21.7,21.7,0,0,0,1.23,7.57c.09.26.18.51.27.74a19.24,19.24,0,0,1,1.34,7.94A35.78,35.78,0,0,1,77,163.74C74.17,172.07,67.74,182,57.94,193.41Z"/><path class="cls-21" d="M57.94,193.41c-8.66-.1-14.26-2.27-16.64-6.45-1.35-2.35-1.95-5.16-1.95-9a36.12,36.12,0,0,1,1.43-10c.1-.35.18-.74.27-1a34.27,34.27,0,0,0,1.15-8.55,19.92,19.92,0,0,0-2-9.3l3.27-8.86c8-2.78,13.8-10.7,16.87-15.89a13.47,13.47,0,0,0,5.23,1.06,18.74,18.74,0,0,0,11-4l1.72,2.67a35.91,35.91,0,0,0-2,11.25,21.7,21.7,0,0,0,1.23,7.57c.09.26.18.51.27.74a19.24,19.24,0,0,1,1.34,7.94A35.78,35.78,0,0,1,77,163.74C74.17,172.07,67.74,182,57.94,193.41Z"/><path class="cls-14" d="M43.28,189.34c2.95,2.6,7.86,4,14.66,4l-4.35-2.48A32,32,0,0,1,43.28,189.34Z"/><path class="cls-22" d="M76,122.77l2.26,1.3-1.72-2.67-1,.68Z"/><path class="cls-4" d="M75.3,141.59A21.66,21.66,0,0,1,74.07,134a35.91,35.91,0,0,1,2-11.25l-.44-.69a18.05,18.05,0,0,1-10,3.33,13.24,13.24,0,0,1-5.23-1c-3.07,5.16-8.85,13.1-16.87,15.89l-3.27,8.85a20,20,0,0,1,2,9.28A33.79,33.79,0,0,1,41,166.92c-.09.35-.17.7-.27,1.06a35.92,35.92,0,0,0-1.43,9.94c0,3.86.6,6.64,1.95,9A9.74,9.74,0,0,0,44.11,190c2.89,1.32,6.76,2,11.56,2.07,9.8-11.35,16.23-21.31,19.07-29.61a35.83,35.83,0,0,0,2.16-12.17,19.35,19.35,0,0,0-1.33-7.93C75.48,142.1,75.38,141.85,75.3,141.59Z"/><path class="cls-4" d="M63.29,169.8l-10.51,6,1.62-19c-1.26-.67-2-2.3-2-4.64,0-4.18,2.53-9,5.67-10.84s5.68.11,5.68,4.29a14.33,14.33,0,0,1-2.06,7Z"/><path class="cls-23" d="M63.29,169.8l-10.51,6,1.62-19c-1.26-.67-2-2.3-2-4.64,0-4.18,2.53-9,5.67-10.84s5.68.11,5.68,4.29a14.33,14.33,0,0,1-2.06,7Z"/><path class="cls-9" d="M63.29,169.78l-9.5-5.49-1,11.55Z"/><path class="cls-9" d="M58,141.38a12.41,12.41,0,0,0-4.84,6.42l8.47,4.88h0a14.22,14.22,0,0,0,2-7C63.72,141.49,61.18,139.56,58,141.38Z"/><path class="cls-13" d="M152.25,52.14a1.94,1.94,0,0,0-.91.28l-48.48,28a4,4,0,0,0-1.42,1.48,4.12,4.12,0,0,0-.59,2v81.88c0,.92.45,1.47,1.11,1.47a1.37,1.37,0,0,0,.49-.09h.07a1.62,1.62,0,0,0,.35-.17l48.68-28.12a3.11,3.11,0,0,0,1.83-3.36V53.6a2.6,2.6,0,0,0-.06-.56,1.06,1.06,0,0,0-1-.88Z"/><path class="cls-4" d="M104.9,166.32a4.39,4.39,0,0,0,2,3.43h0a4.48,4.48,0,0,0,3.62.16c-.93.35-1.64-.18-1.64-1.31V88.49a4,4,0,0,1,.58-1.95l-4-2.3a4.18,4.18,0,0,0-.58,2Z"/><path class="cls-5" d="M104.9,166.32a4.39,4.39,0,0,0,2,3.43h0a4.48,4.48,0,0,0,3.62.16c-.93.35-1.64-.18-1.64-1.31V88.49a4,4,0,0,1,.58-1.95l-4-2.3a4.18,4.18,0,0,0-.58,2Z"/><path class="cls-2" d="M110.57,169.37a1.26,1.26,0,0,1-.26.13h-.07a.79.79,0,0,1-.3.05c-.46,0-.53-.53-.53-.85V88.58a3.57,3.57,0,0,1,.5-1.66,3.48,3.48,0,0,1,1.19-1.28l47.43-27.37a1.3,1.3,0,0,1,.6-.2c.1,0,.36,0,.48.44a2.7,2.7,0,0,1,0,.41v80.14c0,1.22,0,1.95-1.48,2.8Z"/><path class="cls-4" d="M159.09,58.55a1.31,1.31,0,0,1,0,.28V139c0,1.15,0,1.62-1.23,2.32l-47.55,27.51-.16.08h-.1a1.33,1.33,0,0,1,0-.28V88.49a3,3,0,0,1,.44-1.41,2.88,2.88,0,0,1,1-1l47.43-27.37a.66.66,0,0,1,.26-.11m.07-1.13a1.88,1.88,0,0,0-.89.26L110.87,85.06a4.45,4.45,0,0,0-2,3.43v80.13c0,.9.45,1.41,1.09,1.41a1.36,1.36,0,0,0,.48-.09h.06a1.58,1.58,0,0,0,.35-.16l47.6-27.51a3,3,0,0,0,1.79-3.29V58.83a2.6,2.6,0,0,0-.06-.56,1,1,0,0,0-1-.85Z"/><path class="cls-4" d="M160.18,58.26c-.23-.84-1-1.11-1.91-.58L110.84,85.06a3.9,3.9,0,0,0-1.38,1.47l-4-2.28a4,4,0,0,1,1.39-1.48L154.3,55.39a4.43,4.43,0,0,1,3.95,0h0A4.37,4.37,0,0,1,160.18,58.26Z"/><path class="cls-24" d="M160.18,58.26c-.23-.84-1-1.11-1.91-.58L110.84,85.06a3.9,3.9,0,0,0-1.38,1.47l-4-2.28a4,4,0,0,1,1.39-1.48L154.3,55.39a4.43,4.43,0,0,1,3.95,0h0A4.37,4.37,0,0,1,160.18,58.26Z"/><path class="cls-12" d="M117.21,91.45a.06.06,0,0,1,.08,0,.17.17,0,0,1,0,.1V92a.33.33,0,0,1,0,.14.39.39,0,0,1-.08.1l-1.84,1a0,0,0,0,1-.08,0,.17.17,0,0,1,0-.1V89a.33.33,0,0,1,0-.14.39.39,0,0,1,.08-.1l.34-.2a.06.06,0,0,1,.08,0,.17.17,0,0,1,0,.1v3.54Z"/><path class="cls-12" d="M118.65,88a.67.67,0,0,1,.41-.13.57.57,0,0,1,.33.11,1.06,1.06,0,0,1,.22.33,2.11,2.11,0,0,1,.1.5v.65a3.21,3.21,0,0,1-.1.62,2.41,2.41,0,0,1-.22.56,2,2,0,0,1-.74.85.86.86,0,0,1-.42.13.47.47,0,0,1-.31-.12.64.64,0,0,1-.22-.32,1.71,1.71,0,0,1-.1-.5V90a2.76,2.76,0,0,1,.1-.63,2.39,2.39,0,0,1,.22-.58,2.26,2.26,0,0,1,.31-.49A1.46,1.46,0,0,1,118.65,88Zm.51,1.16a.82.82,0,0,0-.07-.3.24.24,0,0,0-.12-.14.19.19,0,0,0-.15,0l-.17.07-.18.13a.9.9,0,0,0-.15.19,1.69,1.69,0,0,0-.12.28,2.38,2.38,0,0,0-.06.37v.58a.73.73,0,0,0,.06.3.24.24,0,0,0,.12.14.19.19,0,0,0,.15,0,.64.64,0,0,0,.18-.06,1.09,1.09,0,0,0,.17-.13.75.75,0,0,0,.15-.2.7.7,0,0,0,.12-.28,1.51,1.51,0,0,0,.07-.37v-.57Z"/><path class="cls-12" d="M121.13,90.64a.65.65,0,0,0,.18-.15.76.76,0,0,0,.17-.23,1.36,1.36,0,0,0,.13-.3,2,2,0,0,0,0-.34V89.4l-.08.18c0,.06-.08.13-.13.2l-.19.21-.23.17a.64.64,0,0,1-.38.1.56.56,0,0,1-.29-.17,1.13,1.13,0,0,1-.19-.38,2.34,2.34,0,0,1-.08-.52v-.46a4.07,4.07,0,0,1,.08-.61,3.82,3.82,0,0,1,.19-.6,2.25,2.25,0,0,1,.29-.5,1.12,1.12,0,0,1,.38-.34.52.52,0,0,1,.23-.1.31.31,0,0,1,.19,0,.33.33,0,0,1,.13,0l.08.08v-.15a.33.33,0,0,1,0-.14.2.2,0,0,1,.08-.1l.32-.19a.06.06,0,0,1,.08,0,.17.17,0,0,1,0,.1v3a3.1,3.1,0,0,1-.28,1.34,2.06,2.06,0,0,1-.78.85,1.12,1.12,0,0,1-.4.14.59.59,0,0,1-.32,0,.58.58,0,0,1-.21-.2.69.69,0,0,1-.09-.34.35.35,0,0,1,0-.14.39.39,0,0,1,.08-.1l.28-.16a.09.09,0,0,1,.1,0l.08.08a.24.24,0,0,0,.15.1A.53.53,0,0,0,121.13,90.64Zm-.5-2.21v.36a.75.75,0,0,0,.17.51.32.32,0,0,0,.35,0,.86.86,0,0,0,.34-.39,1.5,1.5,0,0,0,.16-.62V88a1,1,0,0,0,0-.24.56.56,0,0,0-.16-.43.27.27,0,0,0-.34,0,.86.86,0,0,0-.35.38,1.83,1.83,0,0,0-.16.69Z"/><path class="cls-12" d="M123.23,84.24a.06.06,0,0,1,.08,0,.17.17,0,0,1,0,.1v.5a.33.33,0,0,1,0,.14.27.27,0,0,1-.08.1l-.36.21a.06.06,0,0,1-.08,0,.09.09,0,0,1,0-.1v-.5a.17.17,0,0,1,0-.14.19.19,0,0,1,.08-.1Zm.1,4.36a.33.33,0,0,1,0,.14.27.27,0,0,1-.08.1l-.32.19a.11.11,0,0,1-.08,0,.17.17,0,0,1,0-.1V85.87a.33.33,0,0,1,0-.14.25.25,0,0,1,.08-.1l.32-.18a.06.06,0,0,1,.08,0,.17.17,0,0,1,0,.1Z"/><path class="cls-12" d="M125.94,87a.17.17,0,0,1,0,.14.16.16,0,0,1-.08.1l-.31.18a.06.06,0,0,1-.08,0,.09.09,0,0,1,0-.1V85.71a1.06,1.06,0,0,0-.12-.55c-.08-.11-.2-.12-.36,0a.94.94,0,0,0-.36.43,2.1,2.1,0,0,0-.12.7v1.64a.33.33,0,0,1,0,.14.25.25,0,0,1-.08.1l-.32.18a0,0,0,0,1-.07,0h0a.13.13,0,0,1,0-.1v-3a.28.28,0,0,1,0-.15.17.17,0,0,1,.07-.1l.32-.18a.06.06,0,0,1,.08,0,.17.17,0,0,1,0,.1v.15a1.7,1.7,0,0,1,.26-.43,1.12,1.12,0,0,1,.34-.31.75.75,0,0,1,.43-.13.41.41,0,0,1,.27.17,1,1,0,0,1,.15.4,3.53,3.53,0,0,1,.05.56Z"/><path class="cls-8" d="M115.59,100.27,147,82.16a1.48,1.48,0,0,0,.7-1.12c0-.39-.31-.53-.7-.31L115.59,98.86a1.49,1.49,0,0,0-.7,1.1C114.89,100.35,115.2,100.47,115.59,100.27Z"/><path class="cls-12" d="M117.89,108a1.11,1.11,0,0,1,.17-.3.7.7,0,0,1,.22-.2.39.39,0,0,1,.3-.06.27.27,0,0,1,.19.17,2.14,2.14,0,0,1,.1-.22,1.37,1.37,0,0,1,.13-.2.43.43,0,0,1,.17-.12l.13-.1a.41.41,0,0,1,.29-.08.29.29,0,0,1,.18.13.91.91,0,0,1,.1.29,2.67,2.67,0,0,1,0,.4V109a.17.17,0,0,1,0,.1.16.16,0,0,1-.06.08l-.23.13a.06.06,0,0,1-.06,0,.09.09,0,0,1,0-.07V108a.62.62,0,0,0-.08-.4s-.12,0-.21,0a.66.66,0,0,0-.21.23,1.12,1.12,0,0,0-.1.48v1.24a.17.17,0,0,1,0,.1.16.16,0,0,1-.06.08l-.22.13h-.06a.09.09,0,0,1,0-.07v-1.23a.62.62,0,0,0-.08-.4s-.12,0-.22,0a.61.61,0,0,0-.21.24,1.37,1.37,0,0,0-.09.49v1.22a.17.17,0,0,1,0,.1.16.16,0,0,1-.06.08l-.22.13h-.06a.09.09,0,0,1,0-.07V108.2a.17.17,0,0,1,0-.1.13.13,0,0,1,.06-.07l.22-.14a.06.06,0,0,1,.06,0,.11.11,0,0,1,0,.08Z"/><path class="cls-12" d="M120.68,108.47l-.6-1.77h0v-.1l.06-.07.22-.13a0,0,0,0,1,.07,0l0,0,.4,1.2.4-1.66a.38.38,0,0,1,0-.1l.06-.07.23-.13h0a.11.11,0,0,1,0,.08h0l-.84,3.5a.38.38,0,0,1,0,.1l-.06.07-.23.13a.06.06,0,0,1-.06,0,.11.11,0,0,1,0-.08v0Z"/><path class="cls-12" d="M121.83,106.74a2.42,2.42,0,0,1,.2-1,1.74,1.74,0,0,1,.23-.4.89.89,0,0,1,.3-.28.47.47,0,0,1,.3-.08.37.37,0,0,1,.24.12.73.73,0,0,1,.15.29,1.93,1.93,0,0,1,0,.42v.2a.17.17,0,0,1,0,.1.11.11,0,0,1-.06.07l-1,.58a.48.48,0,0,0,0,.17.16.16,0,0,0,.07.09.13.13,0,0,0,.12,0l.13,0a.47.47,0,0,0,.15-.13.64.64,0,0,0,.1-.13l0-.08.06,0,.24-.14h.06a.11.11,0,0,1,0,.08.67.67,0,0,1,0,.19,1.34,1.34,0,0,1-.13.27,1.94,1.94,0,0,1-.21.29,1.13,1.13,0,0,1-.3.24.47.47,0,0,1-.3.08.32.32,0,0,1-.24-.11,1,1,0,0,1-.15-.31,2.4,2.4,0,0,1,0-.46Zm.73-1.12a.43.43,0,0,0-.14.13.54.54,0,0,0-.1.16.87.87,0,0,0-.07.17v.16l.68-.39a.29.29,0,0,0,0-.13.22.22,0,0,0-.07-.09.16.16,0,0,0-.1,0,.41.41,0,0,0-.19,0Z"/><path class="cls-12" d="M124,104.5a2.14,2.14,0,0,1,.17-.3.83.83,0,0,1,.22-.2.48.48,0,0,1,.31-.07.35.35,0,0,1,.18.18,2.14,2.14,0,0,1,.1-.22,1.37,1.37,0,0,1,.13-.2l.13-.15.13-.11a.5.5,0,0,1,.29-.07.31.31,0,0,1,.19.13.77.77,0,0,1,.1.29,2.54,2.54,0,0,1,0,.39v1.35s0,0-.06.06l-.23.14h-.06a.11.11,0,0,1,0-.08v-1.22a.63.63,0,0,0-.08-.38c-.05-.06-.12-.06-.22,0a.52.52,0,0,0-.21.23,1,1,0,0,0-.09.48V106a.17.17,0,0,1,0,.1.18.18,0,0,1,0,.07l-.23.13a0,0,0,0,1-.06,0,.09.09,0,0,1,0-.07V105a.59.59,0,0,0-.08-.39c0-.06-.13-.06-.21,0a.49.49,0,0,0-.22.25,1.14,1.14,0,0,0-.09.48v1.22a.17.17,0,0,1,0,.1.13.13,0,0,1-.06.07l-.23.13h-.05a.09.09,0,0,1,0-.07v-2.14a.17.17,0,0,1,0-.1.22.22,0,0,1,.05-.08l.23-.13a.06.06,0,0,1,.06,0,.09.09,0,0,1,0,.07Z"/><path class="cls-12" d="M126.39,103.5a1.84,1.84,0,0,1,0-.25c0-.09.07-.18.12-.27a1.35,1.35,0,0,1,.2-.27.93.93,0,0,1,.27-.22.67.67,0,0,1,.28-.1.27.27,0,0,1,.21.06.59.59,0,0,1,.14.23,1.61,1.61,0,0,1,0,.39v1.35a.17.17,0,0,1,0,.1.16.16,0,0,1-.06.08l-.23.13h0a.09.09,0,0,1,0-.07v-.16a1.11,1.11,0,0,1-.18.34,1,1,0,0,1-.3.27.63.63,0,0,1-.23.08.26.26,0,0,1-.17,0,.33.33,0,0,1-.1-.17.61.61,0,0,1,0-.27,1.3,1.3,0,0,1,.14-.58,2,2,0,0,1,.39-.48l.49-.41c0-.12,0-.2-.08-.22a.28.28,0,0,0-.2,0,.53.53,0,0,0-.12.1l-.08.13a.2.2,0,0,1,0,.08l0,0-.28.16a.06.06,0,0,1-.06,0S126.39,103.53,126.39,103.5Zm.5,1a.84.84,0,0,0,.18-.15,1.27,1.27,0,0,0,.13-.19.83.83,0,0,0,.08-.22.67.67,0,0,0,0-.2v0l-.4.35a.81.81,0,0,0-.18.19.41.41,0,0,0,0,.21c0,.06,0,.1.06.1a.23.23,0,0,0,.18,0Z"/><path class="cls-12" d="M128.42,100.85h.06a.09.09,0,0,1,0,.07v.36a.17.17,0,0,1,0,.1.13.13,0,0,1-.06.07l-.26.15a.06.06,0,0,1-.06,0v-.5a.07.07,0,0,1,.06-.07Zm.07,3.12v.1l-.06.06-.23.14h0a.11.11,0,0,1,0-.08v-2.14a.17.17,0,0,1,0-.1.14.14,0,0,1,0-.08l.23-.12s0,0,.06,0a.09.09,0,0,1,0,.07Z"/><path class="cls-12" d="M129.29,103.5a.17.17,0,0,1,0,.1.13.13,0,0,1-.06.07l-.23.13H129a.11.11,0,0,1,0-.08v-3a.17.17,0,0,1,0-.1s0-.06.05-.07l.23-.13a0,0,0,0,1,.06,0,.09.09,0,0,1,0,.07Z"/><path class="cls-12" d="M131.92,101a1.27,1.27,0,0,1,0,.34,1,1,0,0,1-.11.28.64.64,0,0,1-.14.22.46.46,0,0,1-.17.14.3.3,0,0,1-.23.07.19.19,0,0,1-.12-.07s0,.08,0,.12a.75.75,0,0,1-.07.12.63.63,0,0,1-.11.12.79.79,0,0,1-.15.12.35.35,0,0,1-.2.05.29.29,0,0,1-.16-.1.77.77,0,0,1-.1-.25,1.42,1.42,0,0,1,0-.36v-.4c0-.12.06-.24.1-.36a1.51,1.51,0,0,1,.15-.28.7.7,0,0,1,.2-.18.25.25,0,0,1,.19,0,.19.19,0,0,1,.1.08v0a.17.17,0,0,1,0-.1.12.12,0,0,1,0-.07l.16-.08h.05a.09.09,0,0,1,0,.07v1c0,.07,0,.12.05.14a.09.09,0,0,0,.1,0,.32.32,0,0,0,.1-.13.59.59,0,0,0,.05-.23v-.52a2,2,0,0,0-.08-.41.44.44,0,0,0-.16-.22.31.31,0,0,0-.25,0,.93.93,0,0,0-.36.14,1.3,1.3,0,0,0-.31.26,2.16,2.16,0,0,0-.24.35,2.61,2.61,0,0,0-.16.42,3.5,3.5,0,0,0-.07.45.49.49,0,0,0,0,.17v.41a.43.43,0,0,0,0,.16,1.53,1.53,0,0,0,.07.36.78.78,0,0,0,.16.24.4.4,0,0,0,.24.07.71.71,0,0,0,.31-.1,1,1,0,0,0,.21-.15.75.75,0,0,0,.17-.14l.11-.13.09-.13.05-.09,0-.05.22-.12a0,0,0,0,1,.06,0v.16c0,.09-.09.19-.14.28a2.9,2.9,0,0,1-.19.29,3.58,3.58,0,0,1-.26.29c-.12.09-.24.18-.37.26a.83.83,0,0,1-.46.14.5.5,0,0,1-.33-.12.7.7,0,0,1-.21-.35,1.44,1.44,0,0,1-.1-.5v-.79a3.11,3.11,0,0,1,.09-.6,3.19,3.19,0,0,1,.21-.59,2.52,2.52,0,0,1,.34-.51,1.57,1.57,0,0,1,.46-.39,1.06,1.06,0,0,1,.52-.19.49.49,0,0,1,.35.11.73.73,0,0,1,.2.35,2.36,2.36,0,0,1,.09.52v.28C131.83,100.86,131.92,101,131.92,101Zm-1.37.62a.57.57,0,0,0,0,.31.09.09,0,0,0,.14,0s0,0,0,0a.36.36,0,0,0,.17-.21,1,1,0,0,0,0-.39.7.7,0,0,0,0-.32c0-.07-.1-.07-.17,0a.4.4,0,0,0-.16.22,1,1,0,0,0,0,.38Z"/><path class="cls-12" d="M132.68,99.5a1.49,1.49,0,0,1,.18-.3.8.8,0,0,1,.21-.2.38.38,0,0,1,.31-.07.31.31,0,0,1,.19.18,1.6,1.6,0,0,1,.1-.23l.12-.19a1.07,1.07,0,0,1,.14-.16l.13-.1a.45.45,0,0,1,.28-.07.26.26,0,0,1,.19.13.85.85,0,0,1,.1.28v1.64a.17.17,0,0,1,0,.1.16.16,0,0,1-.06.08l-.23.13a0,0,0,0,1-.05,0,.09.09,0,0,1,0-.07V99.43a.7.7,0,0,0-.09-.4s-.12,0-.21,0a.58.58,0,0,0-.21.23,1.29,1.29,0,0,0-.1.48V101a.17.17,0,0,1,0,.1.13.13,0,0,1-.06.07l-.22.13h-.06V100a.62.62,0,0,0-.08-.4s-.12,0-.22,0a.52.52,0,0,0-.2.24,1,1,0,0,0-.09.49v1.22a.17.17,0,0,1,0,.1.13.13,0,0,1-.06.07l-.23.14a.06.06,0,0,1-.06,0,.11.11,0,0,1,0-.08V99.62a.17.17,0,0,1,0-.1.24.24,0,0,1,.06-.08l.23-.13a.06.06,0,0,1,.06,0,.09.09,0,0,1,0,.07Z"/><path class="cls-12" d="M135.05,98.5a1,1,0,0,1,.06-.25,1.69,1.69,0,0,1,.12-.28,1.57,1.57,0,0,1,.19-.26.93.93,0,0,1,.27-.22.59.59,0,0,1,.28-.1.31.31,0,0,1,.21,0,.36.36,0,0,1,.13.23,1.23,1.23,0,0,1,.06.39v1.45a.24.24,0,0,1-.06.08l-.23.13a.06.06,0,0,1-.06,0,.09.09,0,0,1,0-.07v-.16a1.06,1.06,0,0,1-.18.33,1,1,0,0,1-.3.28.63.63,0,0,1-.23.08A.25.25,0,0,1,135,100a.61.61,0,0,1,0-.27,1.06,1.06,0,0,1,.14-.58,2,2,0,0,1,.39-.48l.49-.41c0-.12,0-.2-.08-.22a.24.24,0,0,0-.2,0,.53.53,0,0,0-.12.1l-.08.13a.22.22,0,0,1-.05.08l0,0-.28.16a.06.06,0,0,1-.06,0,.07.07,0,0,1-.09,0,.07.07,0,0,1,0,0Zm.5,1a.65.65,0,0,0,.18-.15,1.43,1.43,0,0,0,.14-.2.86.86,0,0,0,.07-.21.67.67,0,0,0,0-.2v0l-.4.35a.81.81,0,0,0-.18.19.46.46,0,0,0-.05.2c0,.07,0,.1.06.11a.28.28,0,0,0,.18,0Z"/><path class="cls-12" d="M137.09,95.85h.06a.09.09,0,0,1,0,.07v.46l-.06.08-.26.14a0,0,0,0,1-.06,0,.09.09,0,0,1,0-.07v-.36a.17.17,0,0,1,0-.1.11.11,0,0,1,.06-.07Zm.06,3.12a.17.17,0,0,1,0,.1.13.13,0,0,1-.06.07l-.22.13s-.05,0-.06,0a.09.09,0,0,1,0-.07V97.05a.17.17,0,0,1,0-.1.16.16,0,0,1,.06-.08l.22-.13h.06a.09.09,0,0,1,0,.07Z"/><path class="cls-12" d="M138,98.5v.1s0,.05-.06.07l-.23.13a0,0,0,0,1-.06,0,.09.09,0,0,1,0-.07v-3a.17.17,0,0,1,0-.1.13.13,0,0,1,.06-.07l.23-.13a.06.06,0,0,1,.06,0,.09.09,0,0,1,0,.07Z"/><path class="cls-12" d="M138.7,97.52s0,0,.06,0v.63l-.06.07-.28.16a.06.06,0,0,1-.06,0,.11.11,0,0,1,0-.08v-.45a.17.17,0,0,1,0-.1.12.12,0,0,1,.06-.06Z"/><path class="cls-12" d="M139.47,96.39v.33a.54.54,0,0,0,.05.21.14.14,0,0,0,.08.12.2.2,0,0,0,.11,0,.2.2,0,0,0,.11,0L140,97a.28.28,0,0,0,.09-.1l.06-.11a.69.69,0,0,0,.05-.13l0-.1.06-.08.22-.13s.05,0,.06,0a0,0,0,0,1,0,.07,1.26,1.26,0,0,1,0,.27,1.4,1.4,0,0,1-.13.34,2,2,0,0,1-.22.34,1.13,1.13,0,0,1-.34.28.53.53,0,0,1-.3.09.52.52,0,0,1-.23-.1.61.61,0,0,1-.15-.26,1.35,1.35,0,0,1-.07-.36V96.6a2.34,2.34,0,0,1,.07-.45,2.1,2.1,0,0,1,.15-.42,1.48,1.48,0,0,1,.23-.36.93.93,0,0,1,.3-.26.59.59,0,0,1,.34-.1.3.3,0,0,1,.22.08.5.5,0,0,1,.13.19.52.52,0,0,1,0,.21.09.09,0,0,1,0,.1.13.13,0,0,1-.06.07l-.22.13a0,0,0,0,1-.05,0h0l0-.06a.18.18,0,0,0-.05-.07l-.06,0a.14.14,0,0,0-.09,0l-.12.06a.29.29,0,0,0-.12.1.42.42,0,0,0-.11.15.58.58,0,0,0-.08.22A1,1,0,0,0,139.47,96.39Z"/><path class="cls-12" d="M141.57,94.09a.67.67,0,0,1,.3-.1.36.36,0,0,1,.24.09.57.57,0,0,1,.15.23,1.15,1.15,0,0,1,.07.36v.47a2.14,2.14,0,0,1-.07.43,2.86,2.86,0,0,1-.15.41,2.16,2.16,0,0,1-.24.35.91.91,0,0,1-.3.25.54.54,0,0,1-.3.1.4.4,0,0,1-.23-.08.51.51,0,0,1-.15-.23,1.53,1.53,0,0,1-.07-.36v-.46a2.24,2.24,0,0,1,.07-.44,2.86,2.86,0,0,1,.15-.41,2.64,2.64,0,0,1,.23-.35A1.48,1.48,0,0,1,141.57,94.09Zm.36.83a.52.52,0,0,0,0-.21.25.25,0,0,0-.08-.1.2.2,0,0,0-.11,0l-.13,0-.12.09-.11.15a.5.5,0,0,0-.08.2.75.75,0,0,0,0,.26v.42a.5.5,0,0,0,0,.21.16.16,0,0,0,.08.1h.11l.12,0,.13-.1a.76.76,0,0,0,.11-.14,1.19,1.19,0,0,0,.08-.2,1.17,1.17,0,0,0,0-.26v-.42Z"/><path class="cls-12" d="M143.06,93.51a1.11,1.11,0,0,1,.17-.3.7.7,0,0,1,.22-.2.38.38,0,0,1,.31-.07.35.35,0,0,1,.19.17,1.07,1.07,0,0,1,.1-.22,1,1,0,0,1,.12-.19.93.93,0,0,1,.13-.15.57.57,0,0,1,.13-.1.44.44,0,0,1,.29-.08.27.27,0,0,1,.18.13.56.56,0,0,1,.1.28,1.34,1.34,0,0,1,0,.4v1.24a.17.17,0,0,1,0,.1.22.22,0,0,1-.05.08l-.23.12h-.06V93.43a.61.61,0,0,0-.07-.4c-.05,0-.12,0-.22,0a.69.69,0,0,0-.21.24,1.28,1.28,0,0,0-.09.48V95a.17.17,0,0,1,0,.1.13.13,0,0,1-.06.07l-.22.12s0,0-.06,0a.09.09,0,0,1,0-.07V94a.72.72,0,0,0-.08-.4c-.06,0-.12,0-.22,0a.63.63,0,0,0-.21.25,1.06,1.06,0,0,0-.08.49v1.32a.13.13,0,0,1-.06.07l-.22.13a.06.06,0,0,1-.06,0,.11.11,0,0,1,0-.08V93.62a.17.17,0,0,1,0-.1.13.13,0,0,1,.06-.07l.22-.13h.06a.09.09,0,0,1,0,.07Z"/><path class="cls-8" d="M114.49,114.9v-8.53l40.14-23.18v8.5Zm.8-8v6.64l38.54-22.24V84.62Z"/><path class="cls-12" d="M117.69,122.37a1.67,1.67,0,0,1,.06-.44,3.09,3.09,0,0,1,.14-.43,2.64,2.64,0,0,1,.23-.35.85.85,0,0,1,.26-.24.44.44,0,0,1,.27-.07.35.35,0,0,1,.22.1.58.58,0,0,1,.15.25,1.21,1.21,0,0,1,.06.38,1.74,1.74,0,0,1-.06.45,1.77,1.77,0,0,1-.15.42,1.65,1.65,0,0,1-.22.36.87.87,0,0,1-.27.23.42.42,0,0,1-.26.08.48.48,0,0,1-.23-.1.89.89,0,0,1-.14-.25,1.32,1.32,0,0,1-.06-.39Z"/><path class="cls-12" d="M120.5,120.77a2.14,2.14,0,0,1,0-.45,2.6,2.6,0,0,1,.15-.42,2.77,2.77,0,0,1,.22-.37.87.87,0,0,1,.27-.23.42.42,0,0,1,.27-.07.37.37,0,0,1,.22.1.64.64,0,0,1,.15.25,1.24,1.24,0,0,1,0,.38,2.3,2.3,0,0,1,0,.45,3.52,3.52,0,0,1-.15.42,2.56,2.56,0,0,1-.22.35.92.92,0,0,1-.27.25.43.43,0,0,1-.27.06.32.32,0,0,1-.22-.1.58.58,0,0,1-.15-.25,1,1,0,0,1,0-.37Z"/><path class="cls-12" d="M123.29,119.15a2.12,2.12,0,0,1,0-.44,2.6,2.6,0,0,1,.15-.42,1.45,1.45,0,0,1,.22-.36,1,1,0,0,1,.27-.24.42.42,0,0,1,.27-.07.32.32,0,0,1,.22.1.87.87,0,0,1,.15.25,1,1,0,0,1,0,.38,2.12,2.12,0,0,1,0,.44,3.12,3.12,0,0,1-.15.43,2.16,2.16,0,0,1-.22.36.87.87,0,0,1-.27.23.5.5,0,0,1-.26.08.44.44,0,0,1-.23-.1.61.61,0,0,1-.15-.26A1.2,1.2,0,0,1,123.29,119.15Z"/><path class="cls-12" d="M126.07,117.54a3.47,3.47,0,0,1,.06-.45,3,3,0,0,1,.15-.42,2.16,2.16,0,0,1,.22-.36,1.22,1.22,0,0,1,.27-.24A.48.48,0,0,1,127,116a.37.37,0,0,1,.23.1.64.64,0,0,1,.15.25,1.31,1.31,0,0,1,0,.39,2.12,2.12,0,0,1,0,.44,2.6,2.6,0,0,1-.15.42,1.38,1.38,0,0,1-.23.36.85.85,0,0,1-.26.24.42.42,0,0,1-.27.07.37.37,0,0,1-.22-.1.61.61,0,0,1-.15-.26A1.15,1.15,0,0,1,126.07,117.54Z"/><path class="cls-12" d="M128.87,116a2.3,2.3,0,0,1,0-.45,3.52,3.52,0,0,1,.15-.42,1.65,1.65,0,0,1,.22-.36.87.87,0,0,1,.27-.23.43.43,0,0,1,.27-.08.44.44,0,0,1,.22.1.64.64,0,0,1,.15.25,1.31,1.31,0,0,1,.05.39,2.2,2.2,0,0,1-.05.44,3.12,3.12,0,0,1-.15.43,1.86,1.86,0,0,1-.22.35.88.88,0,0,1-.27.24.44.44,0,0,1-.27.07.37.37,0,0,1-.22-.1.64.64,0,0,1-.15-.25A1.2,1.2,0,0,1,128.87,116Z"/><path class="cls-12" d="M131.66,114.32a2.12,2.12,0,0,1,.05-.44,2,2,0,0,1,.16-.43,1.34,1.34,0,0,1,.22-.36,1.2,1.2,0,0,1,.26-.24.52.52,0,0,1,.27-.07.44.44,0,0,1,.22.1.68.68,0,0,1,.15.26,1.21,1.21,0,0,1,.06.38,1.61,1.61,0,0,1-.06.44,2.6,2.6,0,0,1-.15.42,1.65,1.65,0,0,1-.22.36.78.78,0,0,1-.27.24.41.41,0,0,1-.26.07.3.3,0,0,1-.22-.1.6.6,0,0,1-.16-.25A1.58,1.58,0,0,1,131.66,114.32Z"/><path class="cls-12" d="M134.45,112.71a1.74,1.74,0,0,1,.06-.45,1.62,1.62,0,0,1,.15-.42,1.65,1.65,0,0,1,.22-.36,1.2,1.2,0,0,1,.26-.24.5.5,0,0,1,.27-.07.39.39,0,0,1,.22.11.58.58,0,0,1,.15.25,1.21,1.21,0,0,1,.06.38,3.11,3.11,0,0,1-.06.44,1.69,1.69,0,0,1-.15.43,1.38,1.38,0,0,1-.22.35,1.27,1.27,0,0,1-.27.25.48.48,0,0,1-.26.06.32.32,0,0,1-.22-.1.44.44,0,0,1-.15-.25,1.21,1.21,0,0,1-.06-.38Z"/><path class="cls-12" d="M137.24,111.09a2.28,2.28,0,0,1,0-.44,3.66,3.66,0,0,1,.15-.43,2.56,2.56,0,0,1,.22-.35,1,1,0,0,1,.27-.24.44.44,0,0,1,.27-.07.37.37,0,0,1,.22.1.64.64,0,0,1,.15.25,1,1,0,0,1,.05.38,1.73,1.73,0,0,1-.05.45,3.12,3.12,0,0,1-.15.43,1.86,1.86,0,0,1-.22.35.78.78,0,0,1-.27.24.5.5,0,0,1-.27.07.37.37,0,0,1-.22-.1,1,1,0,0,1-.15-.25A1.74,1.74,0,0,1,137.24,111.09Z"/><path class="cls-8" d="M114.49,128.42v-8.5l40.14-23.14v8.5Zm.8-8V127l38.54-22.24V98.14Z"/><path class="cls-4" d="M154,111.09l-17.51,10.13a2.35,2.35,0,0,0-1.05,1.82l-.05,5.17c0,.66.46.94,1,.6L154,118.67a2.35,2.35,0,0,0,1.05-1.83v-5.16C155.08,111,154.61,110.75,154,111.09Z"/><path class="cls-7" d="M140.25,123.37v-.1l.06-.07.24-.14a.06.06,0,0,1,.06,0,.11.11,0,0,1,0,.08,3,3,0,0,1-.06.42,1.93,1.93,0,0,1-.43.84,1.52,1.52,0,0,1-.4.32.63.63,0,0,1-.37.12.38.38,0,0,1-.27-.1.73.73,0,0,1-.17-.31,1.85,1.85,0,0,1-.08-.46v-.79a2.61,2.61,0,0,1,.08-.55,2.27,2.27,0,0,1,.17-.5,1.88,1.88,0,0,1,.27-.42,1.35,1.35,0,0,1,.37-.3.84.84,0,0,1,.4-.14.45.45,0,0,1,.27.1.56.56,0,0,1,.16.25,1.35,1.35,0,0,1,.06.34.17.17,0,0,1,0,.1.07.07,0,0,1-.06.07l-.24.14a.06.06,0,0,1-.06,0,.11.11,0,0,1,0-.08.42.42,0,0,0,0-.15.22.22,0,0,0-.09-.1.19.19,0,0,0-.15,0,.48.48,0,0,0-.2.07.87.87,0,0,0-.21.17,1.88,1.88,0,0,0-.14.24,1.43,1.43,0,0,0-.09.27,1,1,0,0,0,0,.3v.78a.73.73,0,0,0,0,.25.56.56,0,0,0,.09.17.25.25,0,0,0,.14.06.37.37,0,0,0,.21-.06,1.08,1.08,0,0,0,.2-.16,1,1,0,0,0,.24-.41.93.93,0,0,0,0-.23Z"/><path class="cls-7" d="M141.68,121.12a.59.59,0,0,1,.29-.1.36.36,0,0,1,.24.09.51.51,0,0,1,.15.23,1.44,1.44,0,0,1,.07.36v.46a2.13,2.13,0,0,1-.07.44,2.86,2.86,0,0,1-.15.41,2.16,2.16,0,0,1-.24.35.91.91,0,0,1-.3.25.63.63,0,0,1-.3.1.4.4,0,0,1-.23-.08.55.55,0,0,1-.15-.24,1,1,0,0,1-.07-.35v-.47a2.14,2.14,0,0,1,.07-.43,1.56,1.56,0,0,1,.15-.41,1.69,1.69,0,0,1,.23-.36,1.42,1.42,0,0,1,.3-.25Zm.36.83a.8.8,0,0,0,0-.21.16.16,0,0,0-.08-.1.24.24,0,0,0-.12,0l-.11,0-.13.1a.76.76,0,0,0-.11.14.5.5,0,0,0-.08.2.57.57,0,0,0,0,.26.17.17,0,0,0,0,.1v.24a.11.11,0,0,0,0,.08.41.41,0,0,0,0,.22.16.16,0,0,0,.08.1.2.2,0,0,0,.11,0,.7.7,0,0,0,.36-.28,1.67,1.67,0,0,0,.08-.2,1.28,1.28,0,0,0,0-.27Z"/><path class="cls-7" d="M144.24,122a.17.17,0,0,1,0,.1.13.13,0,0,1-.06.07l-.23.13a0,0,0,0,1,0,0,.09.09,0,0,1,0-.07V121a.7.7,0,0,0-.09-.4c-.05-.08-.14-.08-.25,0a.62.62,0,0,0-.25.31,1.08,1.08,0,0,0-.09.5v1.25a.18.18,0,0,1-.05.07l-.23.13a0,0,0,0,1-.06,0,.09.09,0,0,1,0-.07v-2.15a.17.17,0,0,1,0-.1.16.16,0,0,1,.06-.08l.23-.13a0,0,0,0,1,.05,0,.09.09,0,0,1,0,.07v.1c.05-.1.11-.2.17-.3a.92.92,0,0,1,.26-.22.56.56,0,0,1,.31-.09.3.3,0,0,1,.19.12.79.79,0,0,1,.11.29,2.54,2.54,0,0,1,0,.39Z"/><path class="cls-7" d="M145.14,120.71a.36.36,0,0,0,.06.2h.18l.18-.1a.06.06,0,0,1,.06,0,.09.09,0,0,1,0,.07v.3a.17.17,0,0,1,0,.1.16.16,0,0,1-.06.08l-.22.12c-.19.11-.33.13-.43,0a.76.76,0,0,1-.16-.55v-1l-.19.12a.06.06,0,0,1-.06,0,.11.11,0,0,1,0-.08v-.3a.17.17,0,0,1,0-.1.12.12,0,0,1,.06-.06l.19-.12v-.84a.09.09,0,0,1,.06-.06l.22-.14h.06a.11.11,0,0,1,0,.08v.74l.39-.23h.06a.09.09,0,0,1,0,.07v.3a.17.17,0,0,1,0,.1.13.13,0,0,1-.06.07l-.39.23Z"/><path class="cls-7" d="M146.26,117.65a0,0,0,0,1,.06,0,.09.09,0,0,1,0,.07v.46a.2.2,0,0,1-.06.07l-.25.14s0,0-.06,0a.09.09,0,0,1,0-.07V118a.17.17,0,0,1,0-.1.13.13,0,0,1,.06-.07Zm.07,3.12a.17.17,0,0,1,0,.1l-.05.06-.23.13a0,0,0,0,1-.06,0,.09.09,0,0,1,0-.07v-2.15a.17.17,0,0,1,0-.1.13.13,0,0,1,.06-.07l.23-.13h.05a.11.11,0,0,1,0,.08Z"/><path class="cls-7" d="M148.2,119.68a.17.17,0,0,1,0,.1.18.18,0,0,1,0,.07l-.23.13h-.06a.11.11,0,0,1,0-.08v-1.17a.78.78,0,0,0-.08-.4c-.06-.08-.14-.08-.26,0a.55.55,0,0,0-.25.31,1.43,1.43,0,0,0-.09.5v1.17a.17.17,0,0,1,0,.1.18.18,0,0,1-.05.07l-.23.13a0,0,0,0,1-.06,0,.11.11,0,0,1,0-.08v-2.15a.17.17,0,0,1,0-.1.13.13,0,0,1,.06-.07l.23-.13h.05a.11.11,0,0,1,0,.08v.11a1.92,1.92,0,0,1,.18-.31.88.88,0,0,1,.25-.22.56.56,0,0,1,.31-.09.25.25,0,0,1,.19.12.61.61,0,0,1,.11.28,2.54,2.54,0,0,1,0,.39Z"/><path class="cls-7" d="M148.59,117.3a.12.12,0,0,1,.06-.16l.22-.13s0,0,.06,0a.09.09,0,0,1,0,.07v1.17a.9.9,0,0,0,.08.4c.05.08.14.09.25,0a.57.57,0,0,0,.24-.31,1.33,1.33,0,0,0,.09-.49V116.7a.17.17,0,0,1,0-.1.16.16,0,0,1,.06-.08l.23-.13a0,0,0,0,1,.05,0,.09.09,0,0,1,0,.07v2.16a.17.17,0,0,1,0,.1.18.18,0,0,1-.05.07l-.23.14h-.06a.11.11,0,0,1,0-.08v-.1a2.75,2.75,0,0,1-.17.29.92.92,0,0,1-.25.23.53.53,0,0,1-.3.09.29.29,0,0,1-.19-.13.72.72,0,0,1-.1-.29,2.54,2.54,0,0,1,0-.39Z"/><path class="cls-7" d="M150.36,117.36a2.24,2.24,0,0,1,0-.52,2.21,2.21,0,0,1,.15-.48,2.3,2.3,0,0,1,.23-.4,1,1,0,0,1,.31-.27.44.44,0,0,1,.3-.08.35.35,0,0,1,.23.12.76.76,0,0,1,.15.28,2,2,0,0,1,.05.42v.21a.17.17,0,0,1,0,.1.16.16,0,0,1-.06.08l-1,.57a.49.49,0,0,0,0,.17.2.2,0,0,0,.08.1.2.2,0,0,0,.11,0l.13,0,.16-.12a.71.71,0,0,0,.1-.14l.06-.08.05,0,.24-.14a.06.06,0,0,1,.06,0,.11.11,0,0,1,0,.08,1.29,1.29,0,0,1,0,.19,1.38,1.38,0,0,1-.14.27,1.94,1.94,0,0,1-.21.29,1.13,1.13,0,0,1-.3.24.44.44,0,0,1-.31.09.35.35,0,0,1-.23-.12.89.89,0,0,1-.15-.31A1.78,1.78,0,0,1,150.36,117.36Zm.74-1.12a.64.64,0,0,0-.15.13.54.54,0,0,0-.1.16,1.34,1.34,0,0,0-.07.18v.16l.68-.39v-.13a.61.61,0,0,0-.05-.12.18.18,0,0,0-.1,0A.3.3,0,0,0,151.1,116.24Z"/><path class="cls-8" d="M137.24,134.4a.16.16,0,0,1-.14-.08.15.15,0,0,1,.06-.2l17.7-10.22a.17.17,0,0,1,.21.08.19.19,0,0,1,0,.19L137.31,134.4Z"/><path class="cls-8" d="M114.55,147.52a.15.15,0,0,1-.16-.14.16.16,0,0,1,.08-.14L132.17,137a.16.16,0,0,1,.2.07.15.15,0,0,1-.05.19l-17.7,10.22-.07,0Z"/><path class="cls-8" d="M133.5,135.87a1.76,1.76,0,0,1,.06-.39,1.66,1.66,0,0,1,.14-.37,1.9,1.9,0,0,1,.22-.33,1.64,1.64,0,0,1,.33-.26,1,1,0,0,1,.32-.12.3.3,0,0,1,.23.07.34.34,0,0,1,.14.21.92.92,0,0,1,.06.33v.6a1.75,1.75,0,0,1-.05.4,1.66,1.66,0,0,1-.14.37,1.5,1.5,0,0,1-.23.33,1.64,1.64,0,0,1-.33.26.76.76,0,0,1-.32.11.3.3,0,0,1-.23-.06.38.38,0,0,1-.14-.21.87.87,0,0,1-.06-.32v-.62Zm1.15-.65a.4.4,0,0,0-.11-.31.3.3,0,0,0-.29,0,.8.8,0,0,0-.28.3,1.06,1.06,0,0,0-.13.45v.58a.36.36,0,0,0,.13.3c.06.05.16,0,.28,0a.83.83,0,0,0,.29-.3,1,1,0,0,0,.11-.45v-.56Z"/><path class="cls-8" d="M135.94,134.62a.5.5,0,0,0-.22.21.68.68,0,0,0-.08.34v.88a.11.11,0,0,1,0,.08.12.12,0,0,1,0,.05l-.19.11h-.05a0,0,0,0,1,0,0v-1.59a.08.08,0,0,1,0-.07.12.12,0,0,1,.05-.05l.19-.11h0v.13l.15-.21a.7.7,0,0,1,.19-.15l.12-.07h.05a0,0,0,0,1,0,0v.23a.09.09,0,0,1,0,.07l-.05.06Z"/><path class="cls-8" d="M116.4,158.78a.93.93,0,0,1-.44-.11,1.39,1.39,0,0,1-.57-1.26v-3.92a3.35,3.35,0,0,1,1.48-2.72l35.61-20.56a1,1,0,0,1,1.08-.08,1.4,1.4,0,0,1,.56,1.26v3.92a3.41,3.41,0,0,1-1.44,2.73h0L117.07,158.6a1.23,1.23,0,0,1-.67.18Zm36.7-28.37a1,1,0,0,0-.43.14l-35.61,20.56a2.93,2.93,0,0,0-1.23,2.38v3.92a1,1,0,0,0,.36.91.67.67,0,0,0,.67-.07l35.61-20.56a3,3,0,0,0,1.23-2.38v-3.92a1,1,0,0,0-.36-.91.52.52,0,0,0-.25-.07Z"/><path class="cls-8" d="M120.16,153a.16.16,0,0,1-.13-.08.15.15,0,0,1,.06-.2h0l29.16-16.82a.16.16,0,0,1,.14.27L120.23,153Z"/></g></g></svg>