<svg xmlns="http://www.w3.org/2000/svg" viewBox="0 0 71.65 58.26"><defs><style>.cls-1{fill:var(--main);}.cls-2{fill:#fff;isolation:isolate;opacity:0.6;}.cls-3{fill:#e0e0e0;}</style></defs><g id="Layer_2" data-name="Layer 2"><g id="Layer_1-2" data-name="Layer 1"><path class="cls-1" d="M35,6.21l-32,18.5A6.92,6.92,0,0,0,0,30.25V55.71c0,2.14,1.3,3.12,2.91,2.21L35,39.41a7,7,0,0,0,2.9-5.56V8.43C37.86,6.26,36.55,5.28,35,6.21Zm-9.52,22L36.68,7.83a2.33,2.33,0,0,1,.25,1.1V33.15ZM2.91,26,35,7.44a1.33,1.33,0,0,1,1.11-.18L20.14,36.16c-.69,1.24-1.76,1.86-2.43,1.41L1.79,27a3.67,3.67,0,0,1,1.12-1.1Zm-1.7,2.39,11.21,7.42L.93,53.93V29.71A4.58,4.58,0,0,1,1.21,28.34ZM35,38.16l-32,18.5c-1,.59-1.85,0-2-1.21L13.11,36.22l4,2.62a1.73,1.73,0,0,0,1.83-.1,5.19,5.19,0,0,0,1.85-2l4-7.2,12.17,5.17A4.76,4.76,0,0,1,35,38.17Z"/><path class="cls-2" d="M35,6.21l-32,18.5A6.92,6.92,0,0,0,0,30.25V55.71c0,2.14,1.3,3.12,2.91,2.21L35,39.41a7,7,0,0,0,2.9-5.56V8.43C37.86,6.26,36.55,5.28,35,6.21Zm-9.52,22L36.68,7.83a2.33,2.33,0,0,1,.25,1.1V33.15ZM2.91,26,35,7.44a1.33,1.33,0,0,1,1.11-.18L20.14,36.16c-.69,1.24-1.76,1.86-2.43,1.41L1.79,27a3.67,3.67,0,0,1,1.12-1.1Zm-1.7,2.39,11.21,7.42L.93,53.93V29.71A4.58,4.58,0,0,1,1.21,28.34ZM35,38.16l-32,18.5c-1,.59-1.85,0-2-1.21L13.11,36.22l4,2.62a1.73,1.73,0,0,0,1.83-.1,5.19,5.19,0,0,0,1.85-2l4-7.2,12.17,5.17A4.76,4.76,0,0,1,35,38.17Z"/><path class="cls-3" d="M68.75.35,41.35,16.17v1.24L68.75,1.58a1.34,1.34,0,0,1,1.1-.18L53.94,30.3c-.68,1.25-1.75,1.87-2.43,1.4L41.35,25v1.7l4.87,3.22L34.73,48.08v-4l-.93.52v5.27c0,2.14,1.3,3.12,2.9,2.21l32.05-18.5A7,7,0,0,0,71.65,28V2.52C71.65.41,70.35-.58,68.75.35Zm0,32-32,18.51c-1,.58-1.85,0-2-1.22L46.94,30.37l4,2.62a1.72,1.72,0,0,0,1.85-.1,5.16,5.16,0,0,0,1.85-2l4-7.2,12.16,5.16A4.72,4.72,0,0,1,68.75,32.31Zm2-5-11.5-4.9L70.48,2a2.35,2.35,0,0,1,.25,1.11Z"/></g></g></svg>