<svg xmlns="http://www.w3.org/2000/svg" viewBox="0 0 319.23 342.55"><defs><style>.cls-1,.cls-7{fill:var(--main);}.cls-2,.cls-3,.cls-4,.cls-5,.cls-6{fill:#fff;}.cls-2,.cls-3,.cls-4,.cls-5,.cls-6,.cls-7{isolation:isolate;}.cls-2{opacity:0.7;}.cls-3{opacity:0.85;}.cls-4{opacity:0.5;}.cls-5{opacity:0.6;}.cls-6{opacity:0.8;}.cls-7{opacity:0.4;}.cls-8{fill:#455a64;}</style></defs><g id="Layer_2" data-name="Layer 2"><g id="Layer_1-2" data-name="Layer 1"><path class="cls-1" d="M7,267.25a10.53,10.53,0,0,0,4.89,8.12l114.34,66a10.82,10.82,0,0,0,9.76,0l178.38-103a9.18,9.18,0,0,0,0-16.23L200,156.16a10.8,10.8,0,0,0-9.78,0l-178.37,103A10.48,10.48,0,0,0,7,267.25Z"/><path class="cls-2" d="M7,267.25a10.53,10.53,0,0,0,4.89,8.12l114.34,66a10.82,10.82,0,0,0,9.76,0l178.38-103a9.18,9.18,0,0,0,0-16.23L200,156.16a10.8,10.8,0,0,0-9.78,0l-178.37,103A10.48,10.48,0,0,0,7,267.25Z"/><path class="cls-1" d="M11.86,264.78l114.34,66a10.76,10.76,0,0,0,9.76,0l178.38-103c2.69-1.56,2.69-4.09,0-5.64L200,156.17a10.8,10.8,0,0,0-9.78,0l-178.37,103C9.16,260.7,9.16,263.23,11.86,264.78Z"/><path class="cls-3" d="M11.86,264.78l114.34,66a10.76,10.76,0,0,0,9.76,0l178.38-103c2.69-1.56,2.69-4.09,0-5.64L200,156.17a10.8,10.8,0,0,0-9.78,0l-178.37,103C9.16,260.7,9.16,263.23,11.86,264.78Z"/><path class="cls-1" d="M131.09,332v10.57a9.87,9.87,0,0,1-4.88-1.16l-114.34-66a9.13,9.13,0,0,1-.46-15.9c-2.21,1.56-2,3.86.5,5.32l114.33,66A9.88,9.88,0,0,0,131.09,332Z"/><path class="cls-4" d="M131.09,332v10.57a9.87,9.87,0,0,1-4.88-1.16l-114.34-66a9.13,9.13,0,0,1-.46-15.9c-2.21,1.56-2,3.86.5,5.32l114.33,66A9.88,9.88,0,0,0,131.09,332Z"/><path class="cls-1" d="M25.16,259l163.91-94.63a5,5,0,0,1,4.6,0l7.76,4.35c1.27.74,1.27,1.93,0,2.66L37.5,266a5.1,5.1,0,0,1-4.6,0l-7.74-4.34C23.89,260.9,23.88,259.71,25.16,259Z"/><path class="cls-5" d="M25.16,259l163.91-94.63a5,5,0,0,1,4.6,0l7.76,4.35c1.27.74,1.27,1.93,0,2.66L37.5,266a5.1,5.1,0,0,1-4.6,0l-7.74-4.34C23.89,260.9,23.88,259.71,25.16,259Z"/><path class="cls-1" d="M43,269.47,207,174.84a4.65,4.65,0,0,1,4.2-.23l42.67,24.63c1.05.61.88,1.7-.4,2.43L89.71,296.17a4.7,4.7,0,0,1-4.21.24L42.65,271.9C41.6,271.29,41.77,270.21,43,269.47Z"/><path class="cls-5" d="M43,269.47,207,174.84a4.65,4.65,0,0,1,4.2-.23l42.67,24.63c1.05.61.88,1.7-.4,2.43L89.71,296.17a4.7,4.7,0,0,1-4.21.24L42.65,271.9C41.6,271.29,41.77,270.21,43,269.47Z"/><path class="cls-1" d="M185.08,214.58l5.16-3c.22-.13.24-.32,0-.44l-4.9-2.83a.87.87,0,0,0-.74,0l-5.16,2.95c-.22.13-.24.32,0,.44l4.92,2.83A.85.85,0,0,0,185.08,214.58Zm-7.5-10.25-5.16,2.95c-.22.13-.24.32,0,.44l4.92,2.83a.81.81,0,0,0,.74,0l5.16-3c.22-.12.24-.32.05-.43l-4.91-2.84A.89.89,0,0,0,177.58,204.33ZM161,213.92l-8.68,5c-.22.12-.25.32,0,.43l4.91,2.84a.87.87,0,0,0,.74,0l8.69-5c.21-.14.23-.33,0-.44l-4.91-2.83a.84.84,0,0,0-.74,0Zm9.08-5.23-5.16,2.95c-.22.12-.24.32,0,.43l4.92,2.83a.79.79,0,0,0,.73,0l5.17-3c.21-.12.23-.31,0-.42l-4.88-2.9a.85.85,0,0,0-.73,0ZM150,220.31l-5.16,2.95c-.22.13-.24.32,0,.44l4.91,2.83a.87.87,0,0,0,.74,0l5.12-2.95c.22-.13.24-.32.05-.44l-4.91-2.83a.82.82,0,0,0-.7,0Zm-7.5,4.33-5.16,3c-.22.13-.24.32,0,.44l4.92,2.83a.79.79,0,0,0,.73,0l5.17-3c.22-.13.24-.32,0-.44l-4.9-2.83a.8.8,0,0,0-.75,0Zm19.24,11.57,5.13-3c.22-.13.24-.32.05-.43L162,230a.81.81,0,0,0-.74,0l-5.16,2.95c-.22.13-.24.32,0,.43l4.91,2.84a.84.84,0,0,0,.77,0Zm-7.5,4.33,5.17-2.95c.21-.13.23-.32,0-.43l-4.91-2.84a.81.81,0,0,0-.74,0l-5.16,3c-.21.12-.23.32,0,.43l4.91,2.83a.83.83,0,0,0,.78,0Zm-7.5,4.33,5.17-3c.21-.13.23-.32,0-.43L147,238.65a.81.81,0,0,0-.74,0l-5.16,2.95c-.22.12-.24.32-.05.43l4.92,2.83a.82.82,0,0,0,.73,0Zm-7.5,4.33,5.17-2.95c.21-.13.23-.32,0-.43L139.49,243a.87.87,0,0,0-.74,0l-5.16,3c-.22.12-.24.31-.05.42l4.92,2.84a.82.82,0,0,0,.73,0ZM177.55,219l5.16-2.95c.21-.12.23-.32,0-.43l-4.91-2.84a.87.87,0,0,0-.74,0l-5.16,3c-.22.13-.24.33-.05.44l4.92,2.83a.82.82,0,0,0,.76,0Zm-8.39,12.94,11.45-6.64c.22-.13.24-.32,0-.43l-11.92-6.88a.81.81,0,0,0-.74,0l-5.9,3.42c-.21.12-.23.32,0,.43l6.31,3.64c.19.11.18.31,0,.44l-4.74,2.72c-.22.13-.23.33,0,.44l4.9,2.83a.83.83,0,0,0,.75,0ZM134.92,229l-5.17,2.95c-.21.12-.23.32,0,.43l4.91,2.83a.81.81,0,0,0,.74,0l5.16-2.95c.21-.12.23-.32,0-.43L135.65,229a.84.84,0,0,0-.71,0Zm-7.47,4.3-5.17,3c-.21.12-.23.32,0,.43l4.91,2.83a.81.81,0,0,0,.74,0l5.16-2.95c.22-.12.24-.31,0-.42l-4.91-2.84a.83.83,0,0,0-.75,0ZM85.94,279.52a.79.79,0,0,0,.73,0l5.17-2.95c.21-.12.23-.32,0-.43L87,273.3a.87.87,0,0,0-.74,0l-5.16,2.95c-.22.13-.24.32,0,.44ZM67.44,268l-5.17,3c-.22.12-.24.31,0,.42l4.9,2.84a.81.81,0,0,0,.74,0L73,271.22c.21-.13.23-.32,0-.43L68.17,268A.79.79,0,0,0,67.44,268ZM77,276.64a.81.81,0,0,0,.74,0l5.13-2.95c.22-.13.24-.32,0-.43L78,270.43a.81.81,0,0,0-.74,0l-5.16,2.95c-.23.12-.24.31,0,.42Zm20.69,4.6,5.17-2.95c.22-.13.23-.32,0-.44L97.94,275a.81.81,0,0,0-.74,0L92,278c-.22.13-.24.32,0,.44l4.9,2.83a.82.82,0,0,0,.7,0ZM89.4,285.6a.85.85,0,0,0,.73,0l5.17-3c.22-.13.23-.32,0-.44l-4.91-2.83a.81.81,0,0,0-.74,0l-5.16,2.95c-.22.12-.25.32,0,.43ZM75,263.6l-5.16,2.95c-.22.12-.24.31,0,.43l4.92,2.84a.85.85,0,0,0,.73,0l5.17-3c.21-.12.23-.31,0-.42l-4.91-2.87a.84.84,0,0,0-.74,0ZM112.46,242l-5.13,3c-.22.12-.24.31,0,.43l4.9,2.83a.87.87,0,0,0,.74,0l5.17-2.95c.22-.13.23-.32,0-.43l-4.91-2.84a.82.82,0,0,0-.79,0Zm-30,17.32-5.16,3c-.22.12-.24.31,0,.43l4.92,2.84a.85.85,0,0,0,.73,0l5.17-3c.21-.12.23-.31,0-.42l-4.91-2.84a.85.85,0,0,0-.76,0ZM120,237.62l-5.16,2.95c-.21.12-.23.31,0,.43l4.91,2.83a.87.87,0,0,0,.74,0l5.16-3c.22-.13.24-.32,0-.43l-4.92-2.86a.82.82,0,0,0-.73,0Zm-15,8.66-5.16,2.95c-.22.12-.24.31,0,.43l4.9,2.83a.87.87,0,0,0,.74,0l5.16-3c.22-.13.24-.32,0-.43l-4.91-2.83A.81.81,0,0,0,104.94,246.28Zm-7.5,4.33-5.16,2.95c-.22.12-.24.31,0,.43l4.91,2.83a.81.81,0,0,0,.74,0l5.16-2.95c.22-.13.24-.32,0-.43l-4.9-2.83a.8.8,0,0,0-.75,0Zm-7.5,4.33-5.16,2.95c-.21.12-.24.31,0,.43l4.91,2.83a.81.81,0,0,0,.74,0l5.16-2.95c.21-.13.24-.32,0-.43l-4.91-2.83a.84.84,0,0,0-.74,0Zm34.24,2.9,5.17-2.95c.22-.12.23-.32,0-.43l-4.91-2.83a.87.87,0,0,0-.74,0l-5.16,3c-.22.13-.25.32,0,.43l4.91,2.84a.81.81,0,0,0,.74,0Zm70-63.07L189,197.72c-.22.12-.23.31,0,.43l4.9,2.83a.87.87,0,0,0,.74,0l5.13-2.95c.22-.13.23-.32,0-.43l-4.9-2.84a.88.88,0,0,0-.71,0ZM185.08,200,179.92,203c-.22.13-.24.32,0,.44l4.92,2.83a.81.81,0,0,0,.74,0l5.12-2.95c.22-.13.25-.32,0-.44L185.79,200a.8.8,0,0,0-.71,0Zm16.58-9.59-5.13,3c-.22.14-.24.33,0,.44l4.9,2.83a.81.81,0,0,0,.74,0l5.16-2.95c.22-.12.24-.32.05-.43l-4.91-2.84a.84.84,0,0,0-.77,0ZM160.2,228.92l5.17-2.95c.21-.12.23-.31,0-.42l-4.91-2.84a.87.87,0,0,0-.74,0l-5.16,2.95c-.22.13-.24.32,0,.43l4.91,2.84a.84.84,0,0,0,.74,0Zm49.7-42.85a.87.87,0,0,0-.74,0l-5.11,3c-.23.12-.25.32-.05.43l4.91,2.83a.79.79,0,0,0,.73,0l5.17-2.95c.21-.12.23-.31,0-.43Zm-78.18,67.44,5.16-2.95c.22-.12.24-.32,0-.43l-5-2.83a.81.81,0,0,0-.74,0l-5.12,2.95c-.22.13-.25.32,0,.43l4.91,2.83a.81.81,0,0,0,.74,0Zm92-53.11,5.16-3c.22-.12.24-.32,0-.43L224,194.19a.87.87,0,0,0-.74,0l-5.16,2.95c-.22.13-.24.33,0,.44l4.91,2.83a.84.84,0,0,0,.74,0Zm-14.52.28,5.17-3c.22-.12.23-.32,0-.43l-4.91-2.84a.87.87,0,0,0-.74,0l-5.13,2.95c-.22.14-.24.33,0,.44l4.91,2.83a.79.79,0,0,0,.67,0ZM217,190.12a.81.81,0,0,0-.74,0l-5.16,2.95c-.21.13-.24.33,0,.44l4.91,2.83a.87.87,0,0,0,.74,0l5.16-3c.21-.13.24-.32,0-.43Zm1.58-.91,11.93,6.88a.81.81,0,0,0,.74,0l5.16-3c.21-.12.24-.31,0-.43l-11.92-6.88a.81.81,0,0,0-.74,0l-5.17,2.95c-.24.12-.26.32-.07.43ZM201.2,198.8,196,201.75c-.22.13-.25.32,0,.43L200.9,205a.81.81,0,0,0,.74,0l5.16-2.95c.22-.12.24-.31,0-.43l-4.9-2.84a.87.87,0,0,0-.77,0Zm-56.45,32.59-5.13,3c-.22.13-.24.32,0,.43l4.9,2.84a.87.87,0,0,0,.74,0l5.16-3c.22-.13.24-.33.05-.44l-4.92-2.83a.84.84,0,0,0-.8,0Zm70.7-26.64a.87.87,0,0,0,.74,0l5.16-2.95c.21-.13.24-.32,0-.43l-4.91-2.84a.81.81,0,0,0-.74,0l-5.16,2.95c-.21.12-.24.32,0,.43Zm-63.2,22.31L147.09,230c-.22.13-.24.32,0,.43l4.9,2.84a.87.87,0,0,0,.74,0l5.16-2.95c.22-.13.24-.32.05-.43L153,227.07a.81.81,0,0,0-.77,0ZM93.44,275.18a.79.79,0,0,0,.73,0l5.17-2.95c.21-.12.23-.32,0-.43L94.47,269a.81.81,0,0,0-.74,0l-5.16,2.95c-.22.12-.24.31,0,.42Zm-8.72-9.13L79.55,269c-.22.12-.23.31,0,.42l4.91,2.84a.85.85,0,0,0,.73,0l5.17-3c.22-.12.24-.32,0-.43L85.46,266a.84.84,0,0,0-.74,0Zm17,4.78,5.17-3c.21-.12.23-.32,0-.43L102,264.61a.81.81,0,0,0-.74,0l-5.16,2.95c-.22.12-.24.31,0,.43l4.92,2.84A.85.85,0,0,0,101.68,270.83Zm7.5-4.35,5.13-3c.22-.13.24-.33,0-.44l-4.9-2.83a.87.87,0,0,0-.74,0l-5.16,2.95c-.22.13-.24.32,0,.43l4.92,2.84a.79.79,0,0,0,.76,0Zm7.5-4.33,5.17-2.95c.22-.13.23-.32,0-.43l-4.9-2.83a.81.81,0,0,0-.74,0l-5.17,2.95c-.22.12-.23.32,0,.43l4.91,2.84a.82.82,0,0,0,.73,0Zm-24.46-.45-5.13,2.95c-.22.13-.24.32,0,.43L91.93,268a.87.87,0,0,0,.74,0l5.16-3c.22-.12.23-.32,0-.43L93,261.73a.86.86,0,0,0-.75,0Zm7.5-4.33-5.13,2.95c-.22.14-.24.33,0,.44l4.9,2.83a.87.87,0,0,0,.74,0l5.16-2.95c.22-.13.24-.32.05-.43l-4.92-2.84a.82.82,0,0,0-.76,0Zm30-17.32L124.56,243c-.22.13-.24.32,0,.44l4.91,2.83a.87.87,0,0,0,.74,0l5.16-3c.22-.13.24-.32,0-.44l-4.9-2.83a.8.8,0,0,0-.75,0Zm-7.5,4.33-5.16,3c-.21.13-.23.33,0,.44l4.91,2.83a.81.81,0,0,0,.74,0l5.13-2.95c.22-.13.24-.32,0-.44L123,244.35a.84.84,0,0,0-.74.05Zm15-8.67-5.16,3c-.22.12-.23.31,0,.42l4.9,2.84a.81.81,0,0,0,.74,0l5.16-3c.22-.12.24-.32.05-.43L138,235.71a.87.87,0,0,0-.74,0Zm-30,17.35L102.05,256c-.21.13-.23.33,0,.44l4.91,2.83a.87.87,0,0,0,.74,0l5.16-2.95c.22-.13.24-.32.05-.43L108,253.05a.87.87,0,0,0-.74,0Zm7.5-4.33-5.16,3c-.21.12-.23.32,0,.43l4.91,2.83a.81.81,0,0,0,.74,0l5.16-2.95c.22-.12.24-.31,0-.42l-4.92-2.84a.81.81,0,0,0-.74,0Zm-9.58,28.2L110.3,274c.21-.13.23-.32,0-.44l-4.91-2.83a.81.81,0,0,0-.74,0l-5.16,3c-.22.12-.24.32,0,.43l4.92,2.84a.83.83,0,0,0,.75,0Zm-39.56-1.87-4.91-2.83a.81.81,0,0,0-.74,0l-5.12,2.95c-.23.12-.25.32-.05.43l4.91,2.84a.85.85,0,0,0,.73,0l5.17-2.95c.2-.13.22-.33,0-.44Zm9.8,2.49-4.91-2.84a.87.87,0,0,0-.74,0l-7.89,4.56c-.22.13-.24.32,0,.43l4.9,2.84a.81.81,0,0,0,.74,0l7.9-4.56c.2-.16.23-.35,0-.44Zm-17.1-8.12-4.92-2.83a.85.85,0,0,0-.73,0l-6.32,3.65c-.22.13-.24.32,0,.43l4.9,2.83a.81.81,0,0,0,.74,0l6.32-3.64a.24.24,0,0,0,.17-.29.24.24,0,0,0-.13-.15Zm4.84-2.8a.79.79,0,0,0,.73,0L69,263.68c.21-.12.23-.32,0-.43l-4.91-2.84a.87.87,0,0,0-.74,0l-5.16,2.95c-.22.13-.24.32,0,.43Zm21.25,13.76-4.92-2.83a.79.79,0,0,0-.73,0l-9.87,5.69c-.22.13-.24.32,0,.43l4.92,2.84a.85.85,0,0,0,.73,0l9.87-5.7c.24-.1.24-.28.05-.4Zm3.46,6.11-4.91-2.84a.81.81,0,0,0-.74,0l-6.32,3.64c-.21.13-.23.32,0,.43l4.91,2.84a.87.87,0,0,0,.74,0l6.31-3.64c.22-.1.24-.29,0-.4Zm31.05-52.07a.81.81,0,0,0,.74,0l5.16-3c.22-.12.24-.31,0-.42l-4.91-2.84a.87.87,0,0,0-.74,0l-5.12,2.95c-.22.13-.24.32,0,.43Zm-15,8.69a.81.81,0,0,0,.74,0l5.16-3c.22-.12.24-.31,0-.43l-4.9-2.83a.87.87,0,0,0-.74,0l-5.17,3c-.21.13-.23.32,0,.43ZM70.61,262.3a.81.81,0,0,0,.74,0l5.16-2.95c.21-.12.24-.32,0-.43l-4.91-2.84a.87.87,0,0,0-.74,0L65.74,259c-.21.13-.24.32,0,.43Zm40.77-23.54a.81.81,0,0,0,.74,0l5.16-2.95c.22-.12.24-.31,0-.43l-4.93-2.84a.81.81,0,0,0-.74,0l-5.16,3c-.22.13-.24.32,0,.43Zm-15,8.7a.81.81,0,0,0,.74,0l5.16-3c.22-.12.24-.31,0-.43l-4.92-2.83a.85.85,0,0,0-.73,0l-5.17,2.95c-.21.13-.23.32,0,.43Zm-4.87,39.37a.85.85,0,0,0-.73,0l-7.9,4.56c-.21.13-.23.32,0,.43l4.91,2.84a.87.87,0,0,0,.74,0l7.89-4.57c.22-.13.24-.32.05-.43Zm-5.9-33.16a.81.81,0,0,0,.74,0l5.16-2.95c.23-.12.25-.31,0-.42l-4.91-2.84a.79.79,0,0,0-.73,0l-5.17,2.95c-.22.12-.23.32,0,.43ZM78.08,258a.81.81,0,0,0,.74,0L84,255.05c.22-.12.24-.31,0-.42l-4.91-2.9a.79.79,0,0,0-.73,0l-5.17,3c-.22.13-.24.32,0,.43Zm152.35-51.4a.85.85,0,0,0-.73,0l-12.64,7.29c-.21.13-.24.32,0,.43l4.91,2.84a.87.87,0,0,0,.74,0l12.63-7.3c.22-.13.24-.32,0-.43Zm-16.58,9.59a.81.81,0,0,0-.74,0L208,219.14c-.21.13-.24.32,0,.44l4.91,2.82a.81.81,0,0,0,.74,0l5.16-3c.21-.12.23-.32,0-.43ZM112.65,272.6l5.16-3c.22-.14.24-.33,0-.44L113,266.38a.81.81,0,0,0-.74,0L107,269.33c-.21.12-.23.32,0,.43l4.91,2.84a.84.84,0,0,0,.74,0Zm86.24-47.76a.81.81,0,0,0-.74,0L193,227.79c-.22.12-.25.32-.05.43l4.91,2.83a.81.81,0,0,0,.74,0l5.16-3c.22-.12.24-.31,0-.42ZM238,202.3a.87.87,0,0,0-.74,0l-5.16,2.95c-.22.13-.24.33-.05.44l4.92,2.83a.81.81,0,0,0,.74,0l5.12-3c.22-.13.25-.32.05-.44Zm12.41-1.47-11.92-6.89a.87.87,0,0,0-.74,0l-5.17,3c-.22.12-.23.31,0,.43l11.92,6.88a.81.81,0,0,0,.74,0l5.13-3c.21-.18.25-.37.06-.49ZM170.85,241a.85.85,0,0,0-.73,0l-6.33,3.65c-.21.13-.23.32,0,.43l4.91,2.84a.87.87,0,0,0,.74,0l6.32-3.65c.22-.12.24-.32,0-.43Zm19-10.94a.85.85,0,0,0-.73,0l-7.89,4.59c-.21.12-.23.31,0,.43l4.91,2.83a.81.81,0,0,0,.74,0l7.89-4.56c.22-.12.24-.31,0-.42Zm-36.32,21a.87.87,0,0,0-.74,0L110.5,275.43c-.21.12-.24.31,0,.43l4.91,2.84a.87.87,0,0,0,.74,0l42.24-24.39c.22-.13.24-.32.05-.43Zm-44.59,25.77a.81.81,0,0,0-.74,0l-6.31,3.69c-.22.12-.24.31,0,.42l4.88,2.82a.81.81,0,0,0,.74,0l6.31-3.64c.22-.13.24-.32,0-.44ZM162.19,246a.87.87,0,0,0-.74,0l-6.31,3.65c-.23.13-.24.32,0,.43L160,253a.81.81,0,0,0,.74,0l6.32-3.65c.21-.12.23-.32,0-.43Zm-62,35.78a.87.87,0,0,0-.74,0l-6.32,3.65c-.22.13-.24.32,0,.43l4.9,2.83a.75.75,0,0,0,.74,0l6.32-3.64c.22-.13.24-.32,0-.43ZM179.57,236a.79.79,0,0,0-.73,0l-6.32,3.64c-.22.13-.24.32-.05.43l4.91,2.84a.87.87,0,0,0,.74,0l6.32-3.64c.21-.13.23-.32,0-.44Zm26.85-15.49a.81.81,0,0,0-.74,0l-5.13,2.95c-.22.12-.24.32,0,.43l4.9,2.84a.87.87,0,0,0,.74,0l5.16-3c.22-.13.24-.32.05-.44Zm16.8-11.72,5.16-3c.22-.13.24-.32.05-.43l-4.92-2.84a.81.81,0,0,0-.74,0l-5.16,2.95c-.21.12-.23.32,0,.43l4.91,2.84a.86.86,0,0,0,.7,0Zm-30.61,1.47,5.16-3c.22-.12.23-.32,0-.43l-4.9-2.84a.87.87,0,0,0-.74,0L187,207c-.22.13-.24.32,0,.44l4.91,2.83a.82.82,0,0,0,.7,0ZM172.69,238l15-8.67c.22-.12.24-.32,0-.43l-4.9-2.83a.81.81,0,0,0-.74,0l-15,8.66c-.22.12-.24.32,0,.43L172,238a.86.86,0,0,0,.7,0ZM215,213.16a.87.87,0,0,0,.74,0l5.16-3c.22-.12.24-.31,0-.42L216,206.94a.79.79,0,0,0-.73,0l-5.17,2.95c-.21.12-.23.31,0,.43Zm-6.27-4.08,5.16-3c.23-.12.24-.31,0-.43L209,202.86a.87.87,0,0,0-.74,0l-5.13,3c-.22.13-.24.32,0,.43l4.9,2.83a.82.82,0,0,0,.67,0Zm-43.52,33.2,5.16-2.95c.22-.13.24-.32,0-.43l-4.9-2.84a.81.81,0,0,0-.74,0L159.54,239c-.22.12-.24.32,0,.43l4.92,2.83a.84.84,0,0,0,.74,0Zm33.2-19.58a.79.79,0,0,0,.73,0l5.17-2.95c.22-.12.23-.32,0-.43l-4.91-2.84a.87.87,0,0,0-.74,0l-5.13,3c-.22.13-.24.32,0,.44Zm-70.7,41.23L132.8,261c.22-.13.25-.32,0-.43l-4.91-2.83a.81.81,0,0,0-.74,0L122,260.67c-.22.12-.24.31,0,.43l4.91,2.84a.87.87,0,0,0,.74,0Zm7.49-4.33,5.16-3c.22-.13.24-.32,0-.43l-4.93-2.84a.87.87,0,0,0-.74,0l-5.13,2.95c-.22.13-.23.32,0,.43l4.91,2.83a.82.82,0,0,0,.7,0Zm-15,8.66,5.16-2.95c.22-.13.25-.32,0-.43l-5-2.83a.87.87,0,0,0-.74,0L114.52,265c-.22.13-.24.32,0,.43l4.92,2.84a.82.82,0,0,0,.76,0Zm30-17.32,5.16-2.95c.22-.13.24-.32,0-.43l-4.92-2.83a.79.79,0,0,0-.73,0l-5.17,3c-.21.12-.23.31,0,.43l4.91,2.83a.86.86,0,0,0,.72,0Zm-7.5,4.33,5.16-3c.22-.13.24-.32,0-.43L143,249.06a.79.79,0,0,0-.73,0L137.06,252c-.22.12-.24.31,0,.43l4.9,2.83a.85.85,0,0,0,.73,0Zm15-8.66,5.16-3c.22-.13.24-.32,0-.43L158,240.39a.79.79,0,0,0-.73,0l-5.17,3c-.21.13-.23.32,0,.43l4.91,2.83a.86.86,0,0,0,.72,0Zm40.93-60.24a.87.87,0,0,0,.74,0l5.16-3c.22-.12.24-.32.05-.43l-1.31-.74a.87.87,0,0,0-.74,0l-5.12,2.95c-.23.13-.25.32,0,.43ZM161.32,210a.87.87,0,0,0,.74,0l5.16-3c.22-.12.24-.32.05-.43l-4.92-2.83a.79.79,0,0,0-.73,0l-5.17,2.95c-.21.12-.23.31,0,.43Zm15-8.66a.87.87,0,0,0,.74,0l5.16-3c.22-.12.25-.31.05-.42l-4.9-2.83a.87.87,0,0,0-.74,0l-5.16,3c-.22.13-.24.32-.05.43Zm-24.16,13.94a.79.79,0,0,0,.73,0l5.17-2.95c.22-.12.23-.31,0-.42l-5-2.87a.79.79,0,0,0-.73,0l-5.17,3c-.22.12-.24.31,0,.43Zm16.66-9.58a.87.87,0,0,0,.74,0l5.16-3c.21-.13.24-.32,0-.43l-4.91-2.83a.81.81,0,0,0-.74,0l-5.16,3c-.22.12-.24.31,0,.43Zm-31.67,18.27a.81.81,0,0,0,.74,0L143,221c.22-.12.25-.32,0-.43l-4.91-2.84a.87.87,0,0,0-.74,0l-5.16,3c-.22.13-.24.32,0,.43Zm7.5-4.33a.81.81,0,0,0,.74,0l5.16-3c.22-.13.24-.32,0-.43l-4.95-2.86a.81.81,0,0,0-.74,0l-5.13,2.95c-.22.12-.23.31,0,.43Zm38.94-24.56a.81.81,0,0,0,.74,0l5.16-3c.23-.12.24-.32,0-.43l-1.31-.74a.81.81,0,0,0-.74,0l-5.16,2.95c-.22.12-.23.32,0,.43Zm22.51-13a.81.81,0,0,0,.74,0l5.16-2.95c.21-.13.23-.32,0-.43l-1.31-.74a.81.81,0,0,0-.74,0l-5.13,2.95c-.22.12-.24.32,0,.43ZM216.42,188a.81.81,0,0,0,.74,0l5.17-2.95c.21-.12.23-.31,0-.43l-4.91-2.83a.81.81,0,0,0-.74,0l-5.16,2.95c-.22.12-.24.32-.05.43Zm14.3,16.46,5.16-2.95c.21-.12.24-.31,0-.43L231,198.25a.87.87,0,0,0-.74,0l-5.15,2.95c-.22.13-.24.33-.05.44l4.92,2.83a.86.86,0,0,0,.7,0Zm-39.6-13.75a.81.81,0,0,0,.74,0l5.16-2.95c.21-.12.24-.32,0-.43l-1.3-.74a.81.81,0,0,0-.74,0l-5.16,3c-.22.13-.24.32-.05.44Zm-61.44,37.56a.87.87,0,0,0,.74,0l5.16-2.95c.22-.13.24-.33,0-.44l-4.9-2.83a.81.81,0,0,0-.74,0L124.82,225c-.22.12-.24.32,0,.43Z"/><path class="cls-6" d="M185.08,214.58l5.16-3c.22-.13.24-.32,0-.44l-4.9-2.83a.87.87,0,0,0-.74,0l-5.16,2.95c-.22.13-.24.32,0,.44l4.92,2.83A.85.85,0,0,0,185.08,214.58Zm-7.5-10.25-5.16,2.95c-.22.13-.24.32,0,.44l4.92,2.83a.81.81,0,0,0,.74,0l5.16-3c.22-.12.24-.32.05-.43l-4.91-2.84A.89.89,0,0,0,177.58,204.33ZM161,213.92l-8.68,5c-.22.12-.25.32,0,.43l4.91,2.84a.87.87,0,0,0,.74,0l8.69-5c.21-.14.23-.33,0-.44l-4.91-2.83a.84.84,0,0,0-.74,0Zm9.08-5.23-5.16,2.95c-.22.12-.24.32,0,.43l4.92,2.83a.79.79,0,0,0,.73,0l5.17-3c.21-.12.23-.31,0-.42l-4.88-2.9a.85.85,0,0,0-.73,0ZM150,220.31l-5.16,2.95c-.22.13-.24.32,0,.44l4.91,2.83a.87.87,0,0,0,.74,0l5.12-2.95c.22-.13.24-.32.05-.44l-4.91-2.83a.82.82,0,0,0-.7,0Zm-7.5,4.33-5.16,3c-.22.13-.24.32,0,.44l4.92,2.83a.79.79,0,0,0,.73,0l5.17-3c.22-.13.24-.32,0-.44l-4.9-2.83a.8.8,0,0,0-.75,0Zm19.24,11.57,5.13-3c.22-.13.24-.32.05-.43L162,230a.81.81,0,0,0-.74,0l-5.16,2.95c-.22.13-.24.32,0,.43l4.91,2.84a.84.84,0,0,0,.77,0Zm-7.5,4.33,5.17-2.95c.21-.13.23-.32,0-.43l-4.91-2.84a.81.81,0,0,0-.74,0l-5.16,3c-.21.12-.23.32,0,.43l4.91,2.83a.83.83,0,0,0,.78,0Zm-7.5,4.33,5.17-3c.21-.13.23-.32,0-.43L147,238.65a.81.81,0,0,0-.74,0l-5.16,2.95c-.22.12-.24.32-.05.43l4.92,2.83a.82.82,0,0,0,.73,0Zm-7.5,4.33,5.17-2.95c.21-.13.23-.32,0-.43L139.49,243a.87.87,0,0,0-.74,0l-5.16,3c-.22.12-.24.31-.05.42l4.92,2.84a.82.82,0,0,0,.73,0ZM177.55,219l5.16-2.95c.21-.12.23-.32,0-.43l-4.91-2.84a.87.87,0,0,0-.74,0l-5.16,3c-.22.13-.24.33-.05.44l4.92,2.83a.82.82,0,0,0,.76,0Zm-8.39,12.94,11.45-6.64c.22-.13.24-.32,0-.43l-11.92-6.88a.81.81,0,0,0-.74,0l-5.9,3.42c-.21.12-.23.32,0,.43l6.31,3.64c.19.11.18.31,0,.44l-4.74,2.72c-.22.13-.23.33,0,.44l4.9,2.83a.83.83,0,0,0,.75,0ZM134.92,229l-5.17,2.95c-.21.12-.23.32,0,.43l4.91,2.83a.81.81,0,0,0,.74,0l5.16-2.95c.21-.12.23-.32,0-.43L135.65,229a.84.84,0,0,0-.71,0Zm-7.47,4.3-5.17,3c-.21.12-.23.32,0,.43l4.91,2.83a.81.81,0,0,0,.74,0l5.16-2.95c.22-.12.24-.31,0-.42l-4.91-2.84a.83.83,0,0,0-.75,0ZM85.94,279.52a.79.79,0,0,0,.73,0l5.17-2.95c.21-.12.23-.32,0-.43L87,273.3a.87.87,0,0,0-.74,0l-5.16,2.95c-.22.13-.24.32,0,.44ZM67.44,268l-5.17,3c-.22.12-.24.31,0,.42l4.9,2.84a.81.81,0,0,0,.74,0L73,271.22c.21-.13.23-.32,0-.43L68.17,268A.79.79,0,0,0,67.44,268ZM77,276.64a.81.81,0,0,0,.74,0l5.13-2.95c.22-.13.24-.32,0-.43L78,270.43a.81.81,0,0,0-.74,0l-5.16,2.95c-.23.12-.24.31,0,.42Zm20.69,4.6,5.17-2.95c.22-.13.23-.32,0-.44L97.94,275a.81.81,0,0,0-.74,0L92,278c-.22.13-.24.32,0,.44l4.9,2.83a.82.82,0,0,0,.7,0ZM89.4,285.6a.85.85,0,0,0,.73,0l5.17-3c.22-.13.23-.32,0-.44l-4.91-2.83a.81.81,0,0,0-.74,0l-5.16,2.95c-.22.12-.25.32,0,.43ZM75,263.6l-5.16,2.95c-.22.12-.24.31,0,.43l4.92,2.84a.85.85,0,0,0,.73,0l5.17-3c.21-.12.23-.31,0-.42l-4.91-2.87a.84.84,0,0,0-.74,0ZM112.46,242l-5.13,3c-.22.12-.24.31,0,.43l4.9,2.83a.87.87,0,0,0,.74,0l5.17-2.95c.22-.13.23-.32,0-.43l-4.91-2.84a.82.82,0,0,0-.79,0Zm-30,17.32-5.16,3c-.22.12-.24.31,0,.43l4.92,2.84a.85.85,0,0,0,.73,0l5.17-3c.21-.12.23-.31,0-.42l-4.91-2.84a.85.85,0,0,0-.76,0ZM120,237.62l-5.16,2.95c-.21.12-.23.31,0,.43l4.91,2.83a.87.87,0,0,0,.74,0l5.16-3c.22-.13.24-.32,0-.43l-4.92-2.86a.82.82,0,0,0-.73,0Zm-15,8.66-5.16,2.95c-.22.12-.24.31,0,.43l4.9,2.83a.87.87,0,0,0,.74,0l5.16-3c.22-.13.24-.32,0-.43l-4.91-2.83A.81.81,0,0,0,104.94,246.28Zm-7.5,4.33-5.16,2.95c-.22.12-.24.31,0,.43l4.91,2.83a.81.81,0,0,0,.74,0l5.16-2.95c.22-.13.24-.32,0-.43l-4.9-2.83a.8.8,0,0,0-.75,0Zm-7.5,4.33-5.16,2.95c-.21.12-.24.31,0,.43l4.91,2.83a.81.81,0,0,0,.74,0l5.16-2.95c.21-.13.24-.32,0-.43l-4.91-2.83a.84.84,0,0,0-.74,0Zm34.24,2.9,5.17-2.95c.22-.12.23-.32,0-.43l-4.91-2.83a.87.87,0,0,0-.74,0l-5.16,3c-.22.13-.25.32,0,.43l4.91,2.84a.81.81,0,0,0,.74,0Zm70-63.07L189,197.72c-.22.12-.23.31,0,.43l4.9,2.83a.87.87,0,0,0,.74,0l5.13-2.95c.22-.13.23-.32,0-.43l-4.9-2.84a.88.88,0,0,0-.71,0ZM185.08,200,179.92,203c-.22.13-.24.32,0,.44l4.92,2.83a.81.81,0,0,0,.74,0l5.12-2.95c.22-.13.25-.32,0-.44L185.79,200a.8.8,0,0,0-.71,0Zm16.58-9.59-5.13,3c-.22.14-.24.33,0,.44l4.9,2.83a.81.81,0,0,0,.74,0l5.16-2.95c.22-.12.24-.32.05-.43l-4.91-2.84a.84.84,0,0,0-.77,0ZM160.2,228.92l5.17-2.95c.21-.12.23-.31,0-.42l-4.91-2.84a.87.87,0,0,0-.74,0l-5.16,2.95c-.22.13-.24.32,0,.43l4.91,2.84a.84.84,0,0,0,.74,0Zm49.7-42.85a.87.87,0,0,0-.74,0l-5.11,3c-.23.12-.25.32-.05.43l4.91,2.83a.79.79,0,0,0,.73,0l5.17-2.95c.21-.12.23-.31,0-.43Zm-78.18,67.44,5.16-2.95c.22-.12.24-.32,0-.43l-5-2.83a.81.81,0,0,0-.74,0l-5.12,2.95c-.22.13-.25.32,0,.43l4.91,2.83a.81.81,0,0,0,.74,0Zm92-53.11,5.16-3c.22-.12.24-.32,0-.43L224,194.19a.87.87,0,0,0-.74,0l-5.16,2.95c-.22.13-.24.33,0,.44l4.91,2.83a.84.84,0,0,0,.74,0Zm-14.52.28,5.17-3c.22-.12.23-.32,0-.43l-4.91-2.84a.87.87,0,0,0-.74,0l-5.13,2.95c-.22.14-.24.33,0,.44l4.91,2.83a.79.79,0,0,0,.67,0ZM217,190.12a.81.81,0,0,0-.74,0l-5.16,2.95c-.21.13-.24.33,0,.44l4.91,2.83a.87.87,0,0,0,.74,0l5.16-3c.21-.13.24-.32,0-.43Zm1.58-.91,11.93,6.88a.81.81,0,0,0,.74,0l5.16-3c.21-.12.24-.31,0-.43l-11.92-6.88a.81.81,0,0,0-.74,0l-5.17,2.95c-.24.12-.26.32-.07.43ZM201.2,198.8,196,201.75c-.22.13-.25.32,0,.43L200.9,205a.81.81,0,0,0,.74,0l5.16-2.95c.22-.12.24-.31,0-.43l-4.9-2.84a.87.87,0,0,0-.77,0Zm-56.45,32.59-5.13,3c-.22.13-.24.32,0,.43l4.9,2.84a.87.87,0,0,0,.74,0l5.16-3c.22-.13.24-.33.05-.44l-4.92-2.83a.84.84,0,0,0-.8,0Zm70.7-26.64a.87.87,0,0,0,.74,0l5.16-2.95c.21-.13.24-.32,0-.43l-4.91-2.84a.81.81,0,0,0-.74,0l-5.16,2.95c-.21.12-.24.32,0,.43Zm-63.2,22.31L147.09,230c-.22.13-.24.32,0,.43l4.9,2.84a.87.87,0,0,0,.74,0l5.16-2.95c.22-.13.24-.32.05-.43L153,227.07a.81.81,0,0,0-.77,0ZM93.44,275.18a.79.79,0,0,0,.73,0l5.17-2.95c.21-.12.23-.32,0-.43L94.47,269a.81.81,0,0,0-.74,0l-5.16,2.95c-.22.12-.24.31,0,.42Zm-8.72-9.13L79.55,269c-.22.12-.23.31,0,.42l4.91,2.84a.85.85,0,0,0,.73,0l5.17-3c.22-.12.24-.32,0-.43L85.46,266a.84.84,0,0,0-.74,0Zm17,4.78,5.17-3c.21-.12.23-.32,0-.43L102,264.61a.81.81,0,0,0-.74,0l-5.16,2.95c-.22.12-.24.31,0,.43l4.92,2.84A.85.85,0,0,0,101.68,270.83Zm7.5-4.35,5.13-3c.22-.13.24-.33,0-.44l-4.9-2.83a.87.87,0,0,0-.74,0l-5.16,2.95c-.22.13-.24.32,0,.43l4.92,2.84a.79.79,0,0,0,.76,0Zm7.5-4.33,5.17-2.95c.22-.13.23-.32,0-.43l-4.9-2.83a.81.81,0,0,0-.74,0l-5.17,2.95c-.22.12-.23.32,0,.43l4.91,2.84a.82.82,0,0,0,.73,0Zm-24.46-.45-5.13,2.95c-.22.13-.24.32,0,.43L91.93,268a.87.87,0,0,0,.74,0l5.16-3c.22-.12.23-.32,0-.43L93,261.73a.86.86,0,0,0-.75,0Zm7.5-4.33-5.13,2.95c-.22.14-.24.33,0,.44l4.9,2.83a.87.87,0,0,0,.74,0l5.16-2.95c.22-.13.24-.32.05-.43l-4.92-2.84a.82.82,0,0,0-.76,0Zm30-17.32L124.56,243c-.22.13-.24.32,0,.44l4.91,2.83a.87.87,0,0,0,.74,0l5.16-3c.22-.13.24-.32,0-.44l-4.9-2.83a.8.8,0,0,0-.75,0Zm-7.5,4.33-5.16,3c-.21.13-.23.33,0,.44l4.91,2.83a.81.81,0,0,0,.74,0l5.13-2.95c.22-.13.24-.32,0-.44L123,244.35a.84.84,0,0,0-.74.05Zm15-8.67-5.16,3c-.22.12-.23.31,0,.42l4.9,2.84a.81.81,0,0,0,.74,0l5.16-3c.22-.12.24-.32.05-.43L138,235.71a.87.87,0,0,0-.74,0Zm-30,17.35L102.05,256c-.21.13-.23.33,0,.44l4.91,2.83a.87.87,0,0,0,.74,0l5.16-2.95c.22-.13.24-.32.05-.43L108,253.05a.87.87,0,0,0-.74,0Zm7.5-4.33-5.16,3c-.21.12-.23.32,0,.43l4.91,2.83a.81.81,0,0,0,.74,0l5.16-2.95c.22-.12.24-.31,0-.42l-4.92-2.84a.81.81,0,0,0-.74,0Zm-9.58,28.2L110.3,274c.21-.13.23-.32,0-.44l-4.91-2.83a.81.81,0,0,0-.74,0l-5.16,3c-.22.12-.24.32,0,.43l4.92,2.84a.83.83,0,0,0,.75,0Zm-39.56-1.87-4.91-2.83a.81.81,0,0,0-.74,0l-5.12,2.95c-.23.12-.25.32-.05.43l4.91,2.84a.85.85,0,0,0,.73,0l5.17-2.95c.2-.13.22-.33,0-.44Zm9.8,2.49-4.91-2.84a.87.87,0,0,0-.74,0l-7.89,4.56c-.22.13-.24.32,0,.43l4.9,2.84a.81.81,0,0,0,.74,0l7.9-4.56c.2-.16.23-.35,0-.44Zm-17.1-8.12-4.92-2.83a.85.85,0,0,0-.73,0l-6.32,3.65c-.22.13-.24.32,0,.43l4.9,2.83a.81.81,0,0,0,.74,0l6.32-3.64a.24.24,0,0,0,.17-.29.24.24,0,0,0-.13-.15Zm4.84-2.8a.79.79,0,0,0,.73,0L69,263.68c.21-.12.23-.32,0-.43l-4.91-2.84a.87.87,0,0,0-.74,0l-5.16,2.95c-.22.13-.24.32,0,.43Zm21.25,13.76-4.92-2.83a.79.79,0,0,0-.73,0l-9.87,5.69c-.22.13-.24.32,0,.43l4.92,2.84a.85.85,0,0,0,.73,0l9.87-5.7c.24-.1.24-.28.05-.4Zm3.46,6.11-4.91-2.84a.81.81,0,0,0-.74,0l-6.32,3.64c-.21.13-.23.32,0,.43l4.91,2.84a.87.87,0,0,0,.74,0l6.31-3.64c.22-.1.24-.29,0-.4Zm31.05-52.07a.81.81,0,0,0,.74,0l5.16-3c.22-.12.24-.31,0-.42l-4.91-2.84a.87.87,0,0,0-.74,0l-5.12,2.95c-.22.13-.24.32,0,.43Zm-15,8.69a.81.81,0,0,0,.74,0l5.16-3c.22-.12.24-.31,0-.43l-4.9-2.83a.87.87,0,0,0-.74,0l-5.17,3c-.21.13-.23.32,0,.43ZM70.61,262.3a.81.81,0,0,0,.74,0l5.16-2.95c.21-.12.24-.32,0-.43l-4.91-2.84a.87.87,0,0,0-.74,0L65.74,259c-.21.13-.24.32,0,.43Zm40.77-23.54a.81.81,0,0,0,.74,0l5.16-2.95c.22-.12.24-.31,0-.43l-4.93-2.84a.81.81,0,0,0-.74,0l-5.16,3c-.22.13-.24.32,0,.43Zm-15,8.7a.81.81,0,0,0,.74,0l5.16-3c.22-.12.24-.31,0-.43l-4.92-2.83a.85.85,0,0,0-.73,0l-5.17,2.95c-.21.13-.23.32,0,.43Zm-4.87,39.37a.85.85,0,0,0-.73,0l-7.9,4.56c-.21.13-.23.32,0,.43l4.91,2.84a.87.87,0,0,0,.74,0l7.89-4.57c.22-.13.24-.32.05-.43Zm-5.9-33.16a.81.81,0,0,0,.74,0l5.16-2.95c.23-.12.25-.31,0-.42l-4.91-2.84a.79.79,0,0,0-.73,0l-5.17,2.95c-.22.12-.23.32,0,.43ZM78.08,258a.81.81,0,0,0,.74,0L84,255.05c.22-.12.24-.31,0-.42l-4.91-2.9a.79.79,0,0,0-.73,0l-5.17,3c-.22.13-.24.32,0,.43Zm152.35-51.4a.85.85,0,0,0-.73,0l-12.64,7.29c-.21.13-.24.32,0,.43l4.91,2.84a.87.87,0,0,0,.74,0l12.63-7.3c.22-.13.24-.32,0-.43Zm-16.58,9.59a.81.81,0,0,0-.74,0L208,219.14c-.21.13-.24.32,0,.44l4.91,2.82a.81.81,0,0,0,.74,0l5.16-3c.21-.12.23-.32,0-.43ZM112.65,272.6l5.16-3c.22-.14.24-.33,0-.44L113,266.38a.81.81,0,0,0-.74,0L107,269.33c-.21.12-.23.32,0,.43l4.91,2.84a.84.84,0,0,0,.74,0Zm86.24-47.76a.81.81,0,0,0-.74,0L193,227.79c-.22.12-.25.32-.05.43l4.91,2.83a.81.81,0,0,0,.74,0l5.16-3c.22-.12.24-.31,0-.42ZM238,202.3a.87.87,0,0,0-.74,0l-5.16,2.95c-.22.13-.24.33-.05.44l4.92,2.83a.81.81,0,0,0,.74,0l5.12-3c.22-.13.25-.32.05-.44Zm12.41-1.47-11.92-6.89a.87.87,0,0,0-.74,0l-5.17,3c-.22.12-.23.31,0,.43l11.92,6.88a.81.81,0,0,0,.74,0l5.13-3c.21-.18.25-.37.06-.49ZM170.85,241a.85.85,0,0,0-.73,0l-6.33,3.65c-.21.13-.23.32,0,.43l4.91,2.84a.87.87,0,0,0,.74,0l6.32-3.65c.22-.12.24-.32,0-.43Zm19-10.94a.85.85,0,0,0-.73,0l-7.89,4.59c-.21.12-.23.31,0,.43l4.91,2.83a.81.81,0,0,0,.74,0l7.89-4.56c.22-.12.24-.31,0-.42Zm-36.32,21a.87.87,0,0,0-.74,0L110.5,275.43c-.21.12-.24.31,0,.43l4.91,2.84a.87.87,0,0,0,.74,0l42.24-24.39c.22-.13.24-.32.05-.43Zm-44.59,25.77a.81.81,0,0,0-.74,0l-6.31,3.69c-.22.12-.24.31,0,.42l4.88,2.82a.81.81,0,0,0,.74,0l6.31-3.64c.22-.13.24-.32,0-.44ZM162.19,246a.87.87,0,0,0-.74,0l-6.31,3.65c-.23.13-.24.32,0,.43L160,253a.81.81,0,0,0,.74,0l6.32-3.65c.21-.12.23-.32,0-.43Zm-62,35.78a.87.87,0,0,0-.74,0l-6.32,3.65c-.22.13-.24.32,0,.43l4.9,2.83a.75.75,0,0,0,.74,0l6.32-3.64c.22-.13.24-.32,0-.43ZM179.57,236a.79.79,0,0,0-.73,0l-6.32,3.64c-.22.13-.24.32-.05.43l4.91,2.84a.87.87,0,0,0,.74,0l6.32-3.64c.21-.13.23-.32,0-.44Zm26.85-15.49a.81.81,0,0,0-.74,0l-5.13,2.95c-.22.12-.24.32,0,.43l4.9,2.84a.87.87,0,0,0,.74,0l5.16-3c.22-.13.24-.32.05-.44Zm16.8-11.72,5.16-3c.22-.13.24-.32.05-.43l-4.92-2.84a.81.81,0,0,0-.74,0l-5.16,2.95c-.21.12-.23.32,0,.43l4.91,2.84a.86.86,0,0,0,.7,0Zm-30.61,1.47,5.16-3c.22-.12.23-.32,0-.43l-4.9-2.84a.87.87,0,0,0-.74,0L187,207c-.22.13-.24.32,0,.44l4.91,2.83a.82.82,0,0,0,.7,0ZM172.69,238l15-8.67c.22-.12.24-.32,0-.43l-4.9-2.83a.81.81,0,0,0-.74,0l-15,8.66c-.22.12-.24.32,0,.43L172,238a.86.86,0,0,0,.7,0ZM215,213.16a.87.87,0,0,0,.74,0l5.16-3c.22-.12.24-.31,0-.42L216,206.94a.79.79,0,0,0-.73,0l-5.17,2.95c-.21.12-.23.31,0,.43Zm-6.27-4.08,5.16-3c.23-.12.24-.31,0-.43L209,202.86a.87.87,0,0,0-.74,0l-5.13,3c-.22.13-.24.32,0,.43l4.9,2.83a.82.82,0,0,0,.67,0Zm-43.52,33.2,5.16-2.95c.22-.13.24-.32,0-.43l-4.9-2.84a.81.81,0,0,0-.74,0L159.54,239c-.22.12-.24.32,0,.43l4.92,2.83a.84.84,0,0,0,.74,0Zm33.2-19.58a.79.79,0,0,0,.73,0l5.17-2.95c.22-.12.23-.32,0-.43l-4.91-2.84a.87.87,0,0,0-.74,0l-5.13,3c-.22.13-.24.32,0,.44Zm-70.7,41.23L132.8,261c.22-.13.25-.32,0-.43l-4.91-2.83a.81.81,0,0,0-.74,0L122,260.67c-.22.12-.24.31,0,.43l4.91,2.84a.87.87,0,0,0,.74,0Zm7.49-4.33,5.16-3c.22-.13.24-.32,0-.43l-4.93-2.84a.87.87,0,0,0-.74,0l-5.13,2.95c-.22.13-.23.32,0,.43l4.91,2.83a.82.82,0,0,0,.7,0Zm-15,8.66,5.16-2.95c.22-.13.25-.32,0-.43l-5-2.83a.87.87,0,0,0-.74,0L114.52,265c-.22.13-.24.32,0,.43l4.92,2.84a.82.82,0,0,0,.76,0Zm30-17.32,5.16-2.95c.22-.13.24-.32,0-.43l-4.92-2.83a.79.79,0,0,0-.73,0l-5.17,3c-.21.12-.23.31,0,.43l4.91,2.83a.86.86,0,0,0,.72,0Zm-7.5,4.33,5.16-3c.22-.13.24-.32,0-.43L143,249.06a.79.79,0,0,0-.73,0L137.06,252c-.22.12-.24.31,0,.43l4.9,2.83a.85.85,0,0,0,.73,0Zm15-8.66,5.16-3c.22-.13.24-.32,0-.43L158,240.39a.79.79,0,0,0-.73,0l-5.17,3c-.21.13-.23.32,0,.43l4.91,2.83a.86.86,0,0,0,.72,0Zm40.93-60.24a.87.87,0,0,0,.74,0l5.16-3c.22-.12.24-.32.05-.43l-1.31-.74a.87.87,0,0,0-.74,0l-5.12,2.95c-.23.13-.25.32,0,.43ZM161.32,210a.87.87,0,0,0,.74,0l5.16-3c.22-.12.24-.32.05-.43l-4.92-2.83a.79.79,0,0,0-.73,0l-5.17,2.95c-.21.12-.23.31,0,.43Zm15-8.66a.87.87,0,0,0,.74,0l5.16-3c.22-.12.25-.31.05-.42l-4.9-2.83a.87.87,0,0,0-.74,0l-5.16,3c-.22.13-.24.32-.05.43Zm-24.16,13.94a.79.79,0,0,0,.73,0l5.17-2.95c.22-.12.23-.31,0-.42l-5-2.87a.79.79,0,0,0-.73,0l-5.17,3c-.22.12-.24.31,0,.43Zm16.66-9.58a.87.87,0,0,0,.74,0l5.16-3c.21-.13.24-.32,0-.43l-4.91-2.83a.81.81,0,0,0-.74,0l-5.16,3c-.22.12-.24.31,0,.43Zm-31.67,18.27a.81.81,0,0,0,.74,0L143,221c.22-.12.25-.32,0-.43l-4.91-2.84a.87.87,0,0,0-.74,0l-5.16,3c-.22.13-.24.32,0,.43Zm7.5-4.33a.81.81,0,0,0,.74,0l5.16-3c.22-.13.24-.32,0-.43l-4.95-2.86a.81.81,0,0,0-.74,0l-5.13,2.95c-.22.12-.23.31,0,.43Zm38.94-24.56a.81.81,0,0,0,.74,0l5.16-3c.23-.12.24-.32,0-.43l-1.31-.74a.81.81,0,0,0-.74,0l-5.16,2.95c-.22.12-.23.32,0,.43Zm22.51-13a.81.81,0,0,0,.74,0l5.16-2.95c.21-.13.23-.32,0-.43l-1.31-.74a.81.81,0,0,0-.74,0l-5.13,2.95c-.22.12-.24.32,0,.43ZM216.42,188a.81.81,0,0,0,.74,0l5.17-2.95c.21-.12.23-.31,0-.43l-4.91-2.83a.81.81,0,0,0-.74,0l-5.16,2.95c-.22.12-.24.32-.05.43Zm14.3,16.46,5.16-2.95c.21-.12.24-.31,0-.43L231,198.25a.87.87,0,0,0-.74,0l-5.15,2.95c-.22.13-.24.33-.05.44l4.92,2.83a.86.86,0,0,0,.7,0Zm-39.6-13.75a.81.81,0,0,0,.74,0l5.16-2.95c.21-.12.24-.32,0-.43l-1.3-.74a.81.81,0,0,0-.74,0l-5.16,3c-.22.13-.24.32-.05.44Zm-61.44,37.56a.87.87,0,0,0,.74,0l5.16-2.95c.22-.13.24-.33,0-.44l-4.9-2.83a.81.81,0,0,0-.74,0L124.82,225c-.22.12-.24.32,0,.43Z"/><path class="cls-7" d="M155.28,270.06l48.12-27.79a5.78,5.78,0,0,1,5.25,0l27.6,15.93c1.48.84,1.48,2.22,0,3L188.13,289a5.78,5.78,0,0,1-5.25,0l-27.6-15.9C153.84,272.25,153.84,270.91,155.28,270.06Z"/><path class="cls-1" d="M2.39,259.32c-2.53-1.48-2.39-3.93-2.39-7V112.59a10.81,10.81,0,0,1,4.88-8.46l178.37-103c2.7-1.56,6.64-1.57,8.91.25s3,3.5,3,6.64V147.72a10.81,10.81,0,0,1-4.88,8.46l-178.37,103A10.5,10.5,0,0,1,2.39,259.32Z"/><path class="cls-2" d="M2.39,259.32c-2.53-1.48-2.39-3.93-2.39-7V112.59a10.81,10.81,0,0,1,4.88-8.46l178.37-103c2.7-1.56,6.64-1.57,8.91.25s3,3.5,3,6.64V147.72a10.81,10.81,0,0,1-4.88,8.46l-178.37,103A10.5,10.5,0,0,1,2.39,259.32Z"/><path class="cls-1" d="M195.11,8c0-3.12-2.21-4.38-4.89-2.83l-178.36,103a9.93,9.93,0,0,0-3.46,3.65l-7-4h0a10.09,10.09,0,0,1,3.45-3.66l178.36-103c2.7-1.56,6.64-1.59,8.91.25S195.11,4.9,195.11,8Z"/><path class="cls-3" d="M195.11,8c0-3.12-2.21-4.38-4.89-2.83l-178.36,103a9.93,9.93,0,0,0-3.46,3.65l-7-4h0a10.09,10.09,0,0,1,3.45-3.66l178.36-103c2.7-1.56,6.64-1.59,8.91.25S195.11,4.9,195.11,8Z"/><path class="cls-1" d="M11.28,259.44a10.51,10.51,0,0,1-8.89-.12c-2.52-1.48-2.39-3.93-2.39-7V112.59a10,10,0,0,1,1.43-4.81l7,4h0A10.17,10.17,0,0,0,7,116.63v139.7C7,259.21,8.86,260.51,11.28,259.44Z"/><path class="cls-4" d="M11.28,259.44a10.51,10.51,0,0,1-8.89-.12c-2.52-1.48-2.39-3.93-2.39-7V112.59a10,10,0,0,1,1.43-4.81l7,4h0A10.17,10.17,0,0,0,7,116.63v139.7C7,259.21,8.86,260.51,11.28,259.44Z"/><path class="cls-1" d="M14.47,113.79,186.14,14.74c1.61-.94,3-.18,3,1.69V146.34a6.52,6.52,0,0,1-3,5.08L14.47,250.49c-1.62.93-3,.17-3-1.7V118.89a6.47,6.47,0,0,1,3-5.1Z"/><path class="cls-4" d="M14.47,113.79,186.14,14.74c1.61-.94,3-.18,3,1.69V146.34a6.52,6.52,0,0,1-3,5.08L14.47,250.49c-1.62.93-3,.17-3-1.7V118.89a6.47,6.47,0,0,1,3-5.1Z"/><path class="cls-8" d="M14.47,113.79a6.5,6.5,0,0,0-3,5.07v127.7l169.66-97.93a6.47,6.47,0,0,0,2.95-5.08V15.94Z"/></g></g></svg>