<svg xmlns="http://www.w3.org/2000/svg" viewBox="0 0 51.81 75.7"><defs><style>.cls-1{fill:#37474f;}.cls-2{fill:#455a64;}.cls-3{fill:#263238;}.cls-4{fill:#fafafa;}.cls-5{fill:var(--main);}.cls-6,.cls-7{isolation:isolate;}.cls-6{opacity:0.25;}.cls-7{opacity:0.2;}</style></defs><g id="Layer_2" data-name="Layer 2"><g id="Layer_1-2" data-name="Layer 1"><path class="cls-1" d="M15.13,71.6c-6.2-6.4-9.85-21.17-3.8-26.25H42.11c6,5.08,2.4,19.84-3.79,26.25l-.17.17-.21.22c-.18.17-.36.34-.56.5l-.15.11c-.16.12-.3.25-.47.37s-.53.36-.8.51c-5.1,3-13.37,3-18.48,0h0a8.28,8.28,0,0,1-.79-.52c-.16-.11-.3-.22-.44-.33l-.18-.15a6.28,6.28,0,0,1-.54-.49,2.83,2.83,0,0,1-.25-.24Z"/><path class="cls-2" d="M39.44,43.31c7,4.09,7,10.74,0,14.85S21,62.25,14,58.16,7,47.41,14,43.31,32.41,39.24,39.44,43.31Z"/><path class="cls-3" d="M36.06,45.28c5.17,3,5.17,7.89,0,10.9s-13.52,3-18.67,0-5.17-7.9,0-10.9S30.9,42.27,36.06,45.28Z"/><path class="cls-4" d="M17.39,50.46c5.16-3,13.51-3,18.67,0a8.68,8.68,0,0,1,3.07,2.86,8.51,8.51,0,0,1-3.07,2.89c-5.16,3-13.52,3-18.67,0a8.48,8.48,0,0,1-3.09-2.86A8.49,8.49,0,0,1,17.39,50.46Z"/><path class="cls-5" d="M24.81,15.34c.23,1.92,1.41,4.43,3.3,5.33a4.5,4.5,0,0,0,4.54-.16c.83-.65-1.67-.46-3.19-1.55s-1.64-1.79-.11-.93,4.14,1.81,5.6,1.64,2.62-1.9,2.4-2.28-1.48.51-3.69.42a5.77,5.77,0,0,1-4.52-2c-.61-1-.19-.8,1.78.15s5.61,1.63,6.94.55A3,3,0,0,0,39,13.39c-.26-.36-1.86,1.18-4.54,1.11s-4.89-1.24-4.61-2.28S31,11.65,33.08,12s6.07.4,7.12-.34,1.22-3.17.74-3.38S38.77,9.61,36,9.81s-4-.56-3-1,6.44-.41,7.17-1.08.9-5,.9-5-3.18-1.34-4-1.24-3.4,2.84-4,4.1-1,0-.68-1S34.55,1.21,35.68.73c-1.47-.74-3.26-1.19-4,0A18.48,18.48,0,0,0,30,6.91c-.11,1.77-1.36,3.41-1.55,1.15s.74-6.52,2-7.59C29.1.6,25.45,2,25.49,4.53s.91,4.91.87,5.71-.95,0-1.55-1.69-1.16-4.13-.27-5.37c-1.47.48-2.87,1.08-2.13,3.81s2.21,3.56,2,4.08S22.5,9.77,22,8.23a3.85,3.85,0,0,0-.17,4.24,6.56,6.56,0,0,0,3,2.87Z"/><path class="cls-6" d="M24.81,15.34c.23,1.92,1.41,4.43,3.3,5.33a4.5,4.5,0,0,0,4.54-.16c.83-.65-1.67-.46-3.19-1.55s-1.64-1.79-.11-.93,4.14,1.81,5.6,1.64,2.62-1.9,2.4-2.28-1.48.51-3.69.42a5.77,5.77,0,0,1-4.52-2c-.61-1-.19-.8,1.78.15s5.61,1.63,6.94.55A3,3,0,0,0,39,13.39c-.26-.36-1.86,1.18-4.54,1.11s-4.89-1.24-4.61-2.28S31,11.65,33.08,12s6.07.4,7.12-.34,1.22-3.17.74-3.38S38.77,9.61,36,9.81s-4-.56-3-1,6.44-.41,7.17-1.08.9-5,.9-5-3.18-1.34-4-1.24-3.4,2.84-4,4.1-1,0-.68-1S34.55,1.21,35.68.73c-1.47-.74-3.26-1.19-4,0A18.48,18.48,0,0,0,30,6.91c-.11,1.77-1.36,3.41-1.55,1.15s.74-6.52,2-7.59C29.1.6,25.45,2,25.49,4.53s.91,4.91.87,5.71-.95,0-1.55-1.69-1.16-4.13-.27-5.37c-1.47.48-2.87,1.08-2.13,3.81s2.21,3.56,2,4.08S22.5,9.77,22,8.23a3.85,3.85,0,0,0-.17,4.24,6.56,6.56,0,0,0,3,2.87Z"/><path class="cls-3" d="M18.57,22.63a7.94,7.94,0,0,1,4.62,1.86,13.46,13.46,0,0,1,3.94,5.43A30.47,30.47,0,0,1,29,37.61a47.59,47.59,0,0,1,.45,8.18,25.46,25.46,0,0,1-1.76,9c-.09.21-.31.1-.26-.1a50.44,50.44,0,0,0,1.3-7.43,42.41,42.41,0,0,0-.15-7.64c-.48-4.61-1.29-9.74-4.43-13.37a12.19,12.19,0,0,0-5.6-3.58S18.54,22.63,18.57,22.63Z"/><path class="cls-3" d="M19.59,31C23,33.32,25,37.14,26,41a30.35,30.35,0,0,1,.94,7,29,29,0,0,1-.49,7.15c0,.13-.39.16-.37-.09a34.28,34.28,0,0,0,.37-6.94,36.1,36.1,0,0,0-.9-6.79,21.28,21.28,0,0,0-6-10.24S19.53,31,19.59,31Z"/><path class="cls-3" d="M23.24,38.46c0-.11.11,0,.11,0a73.53,73.53,0,0,0,.43,8c.14,1.29.35,2.56.59,3.84s.64,2.61.87,3.94c0,.15-.19.45-.29.2a28.82,28.82,0,0,1-1.64-7.73A36,36,0,0,1,23.24,38.46Z"/><path class="cls-3" d="M27.8,10.63a22.49,22.49,0,0,0-4.85,8,27.32,27.32,0,0,0-1.15,4.19,15.4,15.4,0,0,0-.41,4.39c0,.18.28.38.34.1a20.78,20.78,0,0,0,.19-2.22c.08-.73.19-1.47.33-2.21a26.35,26.35,0,0,1,1.27-4.43,33.75,33.75,0,0,1,4.33-7.7S27.88,10.56,27.8,10.63Z"/><path class="cls-5" d="M22.94,24.7c.93,3.13-2.26,7.42-7,7.29,1.84-1.67,3.75-4.48,2.71-5.16s-.36,2.49-3.45,4.6c0,0-1.48.34-3-1.6,3.22-1.32,5.37-5.1,4.26-4.75-.45.14-.2,1.18-2.16,2.07s-5,1.42-7-1.24c1.56.09,3.85,0,5.42-1.25,1.13-.9,1.56-1.54-.73-.74s-3.11,1.19-5,.68-3.15-2.92-3.15-2.92,3.1,1,4.06.17-2.73-.1-4.73-1.47A13.52,13.52,0,0,1,0,17.25a12.76,12.76,0,0,1,2.5-2.74c1.37,1.62,3,3.82,3.44,3.53s0-1.77-2.15-3.53a2.22,2.22,0,0,1,2.29-1.09s1.21.47,2.34,4.18c.24.78,1,1.59,0-1.4a8.86,8.86,0,0,0-1.75-3.46,3.42,3.42,0,0,1,4.06,1.34c2.92,3.86,2.72,5.41,3.3,5.3.21,0,.11-.89-.82-3.1A11.94,11.94,0,0,0,11.31,13s2-1.47,4.1.8,2.86,6.08,3,6.18c.42.27.36-2.67-.3-4.42s-1-2.36-1-2.36A3.81,3.81,0,0,1,21,15.57c1.29,2.78.23,6.17.86,6.13s.8-5.77.8-5.77S26.88,22,22.94,24.7Z"/><path class="cls-7" d="M22.94,24.7c.93,3.13-2.26,7.42-7,7.29,1.84-1.67,3.75-4.48,2.71-5.16s-.36,2.49-3.45,4.6c0,0-1.48.34-3-1.6,3.22-1.32,5.37-5.1,4.26-4.75-.45.14-.2,1.18-2.16,2.07s-5,1.42-7-1.24c1.56.09,3.85,0,5.42-1.25,1.13-.9,1.56-1.54-.73-.74s-3.11,1.19-5,.68-3.15-2.92-3.15-2.92,3.1,1,4.06.17-2.73-.1-4.73-1.47A13.52,13.52,0,0,1,0,17.25a12.76,12.76,0,0,1,2.5-2.74c1.37,1.62,3,3.82,3.44,3.53s0-1.77-2.15-3.53a2.22,2.22,0,0,1,2.29-1.09s1.21.47,2.34,4.18c.24.78,1,1.59,0-1.4a8.86,8.86,0,0,0-1.75-3.46,3.42,3.42,0,0,1,4.06,1.34c2.92,3.86,2.72,5.41,3.3,5.3.21,0,.11-.89-.82-3.1A11.94,11.94,0,0,0,11.31,13s2-1.47,4.1.8,2.86,6.08,3,6.18c.42.27.36-2.67-.3-4.42s-1-2.36-1-2.36A3.81,3.81,0,0,1,21,15.57c1.29,2.78.23,6.17.86,6.13s.8-5.77.8-5.77S26.88,22,22.94,24.7Z"/><path class="cls-5" d="M29.74,32.38c1-1.63,4.89-3.19,10.33-1.51a14.9,14.9,0,0,1,5.3,3c-3.57-1-8.42-2-9.08-.74s1.41,1,3.3.89a21.71,21.71,0,0,1,6.43.43,11.39,11.39,0,0,1,3.61,4.47c-3.39-2.61-8-3.39-10.09-3s-2.3,1.19-.62,1.16,5-.2,12,3.91c0,0,1.22,1.54.81,4.88a12.24,12.24,0,0,0-4.55-3.74,23.75,23.75,0,0,0-5.3-2.36c-.33-.1-1-.27-1.27,0s0,.74.23,1a6.25,6.25,0,0,0,1.9.94c.88.3,1.75.68,2.59,1.06a26.28,26.28,0,0,1,4.13,2.1c.7.46,1.64,3,.82,5.22-1.77-1-5-4.5-7.87-5.13s.25,1,2.29,2.55c1.75,1.36,4.82,4.09,4.82,4.09a48.36,48.36,0,0,1-2.85,5.31A17.91,17.91,0,0,1,40.87,55s-.1-6-1.32-6.92-.82,1.55-.22,3.81.74,3.1.74,3.1-5.9-.73-7.61-3.37c.29-1.17,1.41-4.1,2.08-6.07s1.74-3.69,1.22-4.24-1.67.91-2.71,2.83a24.27,24.27,0,0,0-2,6.15s-3.69-2-4.69-3.56c-.47-3.82,2.56-7,3.15-7.51s.31-2.55-2.46-.68a6.13,6.13,0,0,0-2.81,5.12,5.62,5.62,0,0,1-3.16-4C20.4,35.11,23.34,31.56,29.74,32.38Z"/><path class="cls-6" d="M29.74,32.38c1-1.63,4.89-3.19,10.33-1.51a14.9,14.9,0,0,1,5.3,3c-3.57-1-8.42-2-9.08-.74s1.41,1,3.3.89a21.71,21.71,0,0,1,6.43.43,11.39,11.39,0,0,1,3.61,4.47c-3.39-2.61-8-3.39-10.09-3s-2.3,1.19-.62,1.16,5-.2,12,3.91c0,0,1.22,1.54.81,4.88a12.24,12.24,0,0,0-4.55-3.74,23.75,23.75,0,0,0-5.3-2.36c-.33-.1-1-.27-1.27,0s0,.74.23,1a6.25,6.25,0,0,0,1.9.94c.88.3,1.75.68,2.59,1.06a26.28,26.28,0,0,1,4.13,2.1c.7.46,1.64,3,.82,5.22-1.77-1-5-4.5-7.87-5.13s.25,1,2.29,2.55c1.75,1.36,4.82,4.09,4.82,4.09a48.36,48.36,0,0,1-2.85,5.31A17.91,17.91,0,0,1,40.87,55s-.1-6-1.32-6.92-.82,1.55-.22,3.81.74,3.1.74,3.1-5.9-.73-7.61-3.37c.29-1.17,1.41-4.1,2.08-6.07s1.74-3.69,1.22-4.24-1.67.91-2.71,2.83a24.27,24.27,0,0,0-2,6.15s-3.69-2-4.69-3.56c-.47-3.82,2.56-7,3.15-7.51s.31-2.55-2.46-.68a6.13,6.13,0,0,0-2.81,5.12,5.62,5.62,0,0,1-3.16-4C20.4,35.11,23.34,31.56,29.74,32.38Z"/><path class="cls-5" d="M17.79,27.65c2.6-.51,6.34,0,8.33,2.06a6.12,6.12,0,0,1,1.7,6c-.52,1.35-1.3-2-3.36-3.52s-3-1.38-1.26.25,4.1,4.65,4.5,6.64-1.38,4.22-2,4.09,0-2.18-1-5-3-4.65-4.52-5.05-1.11.09.94,2.25,4.49,6.64,3.64,8.86-3,3-3.58,2.8.74-3-.47-6.39-3.69-5.86-4.9-5-.27,1.73,1,4.3,3.06,7.75,2.54,9.45-3.62,2.95-4.1,2.4.87-3.4,0-7.05-2.44-5-2.54-3.52,2.17,8.57,1.61,9.8S8.2,54.25,8.2,54.25s-3.07-3.58-3.28-4.67S7.19,44,8.61,42.64s-.42-1.37-1.54-.48-3.6,4.21-3.75,5.9C1.78,46.41.37,44.3,1.66,42.85A25.81,25.81,0,0,1,9,38.07c2.29-.89,3.89-3.2.87-2.5s-8.2,3.69-9,5.86c-.44-1.9-.3-6.74,3-7.75s6.8-.86,7.82-1.25-.74-.58-3.25-.63S2.51,32,1.3,33.72c0-2.1.2-4.22,4.06-4.43s5.75.38,6.34-.07S9.64,26.69,5,27.66c.83-1.9,6-2.86,8.11-2.46a8,8,0,0,1,4.71,2.45Z"/><path class="cls-5" d="M29.91,21c-.1-2.73,3-5.05,5-5-1.59,1.19-2.42,3.3-1.69,2.43C34.91,16.52,36,15.53,38.67,15a4.48,4.48,0,0,1,4.23,1.31,16,16,0,0,0-5.24,1.48c-.78.4-2.75,1.66-.14.52,4.1-1.8,6.27-1,6.27-1A6.1,6.1,0,0,1,46.6,19.6c-3.15-1.35-6.81-.2-8.16.24s-2.22,1.63,0,.85,6.74-1,8.85.62S50,26.63,50,26.63s-7.71-4.52-9.16-2.95c.41,1,7,2.16,8.65,3.69S51,33.57,51,33.57,46.1,35.31,44.53,35s-3.35-5.62-4.34-6.11-1,4.21,1.26,7.24c0,0-2.21,1.38-3.47-.3s-2-5.9-1.73-8.07-1.22-1.09-1.53.62-.22,5.12.89,6.93c0,0-3.29-.07-4.63-1.22s-.46-6.12.41-7.65-.62-1.82-1.48-.28-1.7,5.4-1.26,7c-2.56-2-4.15-5.33-2.86-8.8C27.17,20.72,29.91,21,29.91,21Z"/></g></g></svg>