<svg xmlns="http://www.w3.org/2000/svg" viewBox="0 0 56.13 158.08"><defs><style>.cls-1{fill:#e6e6e6;}.cls-2{fill:#f5f5f5;}.cls-3{fill:#e0e0e0;}.cls-4{fill:#ebebeb;}.cls-5{fill:#fff;}</style></defs><g id="Layer_2" data-name="Layer 2"><g id="Layer_1-2" data-name="Layer 1"><path class="cls-1" d="M56.13,51.5c0-18.07-11.91-39.59-26.59-48.07C21.77-1,14.78-1,9.91,2.75,3.87,5.27,0,12.22,0,22.51V127.38l53.17,30.7,2.95-1.71Z"/><path class="cls-2" d="M53.17,158V53.21c0-18.07-11.91-39.6-26.56-48.07S.06,4.44.06,22.51V127.37Z"/><path class="cls-3" d="M50.28,53.21V153L2.92,125.66V22.52c0-9,3.18-15.27,8.53-17.23a10.87,10.87,0,0,1,3.87-.67,19.81,19.81,0,0,1,9.83,3C39,15.66,50.28,36.09,50.28,53.21Z"/><path class="cls-4" d="M2.91,125.66l3-1.74,44.35,25.61V153Z"/><path class="cls-5" d="M50.28,53.21v96.3L5.92,123.89V20.78c0-7.18,2-12.59,5.54-15.49a11.1,11.1,0,0,1,3.87-.67,19.81,19.81,0,0,1,9.82,3C39,15.66,50.28,36.09,50.28,53.21Z"/><path class="cls-2" d="M28,140.17l-2.91-1.69V6.61H28Z"/><path class="cls-3" d="M31,11.86V138.49L28,140.17V9.55C29,10.25,30,11,31,11.86Z"/><path class="cls-2" d="M2.91,105.14,25.13,118v3.41L2.91,108.56Z"/><path class="cls-4" d="M5.91,103.41l-3,1.73L25.13,118v-3.41Z"/><path class="cls-2" d="M28,119.65l22.22,12.83v3.41L28,123.06Z"/><path class="cls-4" d="M31,117.92l-3,1.73,22.22,12.83v-3.41Z"/><path class="cls-2" d="M2.91,29,25.13,41.82v3.41L2.91,32.4Z"/><path class="cls-4" d="M5.91,27.26,2.91,29,25.13,41.82V38.41Z"/><path class="cls-2" d="M28,43.5,50.26,56.33v3.41L28,46.91Z"/><path class="cls-4" d="M31,41.77,28,43.5,50.26,56.33V52.92Z"/></g></g></svg>