<?xml version="1.0" encoding="UTF-8"?>
<svg width="121px" height="52px" viewBox="0 0 121 52" version="1.1" xmlns="http://www.w3.org/2000/svg" xmlns:xlink="http://www.w3.org/1999/xlink">
    <title>Group</title>
    <g id="Page-1" stroke="none" stroke-width="1" fill="none" fill-rule="evenodd">
        <g id="Apple_Pay_Mark_RGB_041619" transform="translate(-22.000000, -29.000000)" fill="#000000" fill-rule="nonzero">
            <g id="Group" transform="translate(22.000000, 29.000000)">
                <g id="Path">
                    <path d="M23.1862,6.64053 C24.60344,4.86787 25.56517,2.48771 25.31152,0.05547 C23.23688,0.15863 20.70518,1.42418 19.23945,3.19823 C17.92338,4.71743 16.75855,7.19725 17.06222,9.52753 C19.39111,9.72954 21.71785,8.36345 23.1862,6.64053"></path>
                    <path d="M25.28506,9.98252 C21.90295,9.78106 19.02733,11.90203 17.4122,11.90203 C15.79618,11.90203 13.32289,10.08404 10.64782,10.13304 C7.16605,10.18418 3.93537,12.1528 2.16852,15.28383 C-1.46559,21.54743 1.20948,30.83854 4.74346,35.93989 C6.45964,38.46369 8.52793,41.24258 11.25322,41.14276 C13.82816,41.04172 14.83743,39.47544 17.96738,39.47544 C21.09503,39.47544 22.00417,41.14276 24.7299,41.09225 C27.55655,41.04171 29.32371,38.56719 31.03987,36.04093 C33.00865,33.16393 33.8146,30.38595 33.86529,30.23345 C33.81459,30.18294 28.41471,28.11141 28.36464,21.89987 C28.31366,16.69886 32.60415,14.22497 32.80608,14.07155 C30.3832,10.4881 26.5975,10.08404 25.28506,9.98252"></path>
                </g>
                <g transform="translate(40.000000, 2.000000)">
                    <path d="M14.73385,0.9438 C22.08481,0.9438 27.20355,6.01089 27.20355,13.38818 C27.20355,20.79181 21.97948,25.88522 14.54952,25.88522 L6.4106,25.88522 L6.4106,38.8284 L0.53023,38.8284 L0.53023,0.9438 L14.73385,0.9438 L14.73385,0.9438 Z M6.41059,20.9493 L13.15791,20.9493 C18.27766,20.9493 21.19151,18.19294 21.19151,13.41451 C21.19151,8.63659 18.27766,5.90606 13.18424,5.90606 L6.41059,5.90606 L6.41059,20.9493 L6.41059,20.9493 Z" id="Shape"></path>
                    <path d="M28.73997,30.97864 C28.73997,26.14754 32.44179,23.18103 39.0058,22.81338 L46.56641,22.36724 L46.56641,20.24085 C46.56641,17.169 44.49218,15.33126 41.02736,15.33126 C37.74485,15.33126 35.69695,16.90618 35.19865,19.37439 L29.84291,19.37439 C30.1579,14.3858 34.41068,10.71032 41.23701,10.71032 C47.93167,10.71032 52.21078,14.25464 52.21078,19.7942 L52.21078,38.82841 L46.77606,38.82841 L46.77606,34.28647 L46.64541,34.28647 C45.04416,37.35832 41.552,39.30088 37.92918,39.30088 C32.52078,39.30088 28.73997,35.94038 28.73997,30.97864 Z M46.56641,28.4846 L46.56641,26.30555 L39.76641,26.72536 C36.37958,26.96185 34.46335,28.45827 34.46335,30.82115 C34.46335,33.23619 36.45858,34.81161 39.5041,34.81161 C43.46823,34.81161 46.56641,32.08108 46.56641,28.4846 Z" id="Shape"></path>
                    <path d="M57.34167,48.9889 L57.34167,44.3943 C57.76097,44.49913 58.70592,44.49913 59.1789,44.49913 C61.8041,44.49913 63.22203,43.39668 64.08798,40.56133 C64.08798,40.50866 64.58729,38.88108 64.58729,38.85475 L54.61113,11.20913 L60.75381,11.20913 L67.73813,33.68284 L67.84245,33.68284 L74.82678,11.20913 L80.81248,11.20913 L70.46765,40.27217 C68.10579,46.96734 65.37525,49.12006 59.65188,49.12006 C59.17891,49.12006 57.76098,49.06739 57.34167,48.9889 Z" id="Path"></path>
                </g>
            </g>
        </g>
    </g>
</svg>