<svg xmlns="http://www.w3.org/2000/svg" viewBox="0 0 77.77 77.5"><defs><style>.cls-1{fill:#fff;}.cls-2{fill:var(--main);}.cls-3{fill:#455a64;}</style></defs><g id="Layer_2" data-name="Layer 2"><g id="Layer_1-2" data-name="Layer 1"><path class="cls-1" d="M33.71,65.18C20,64.41,9.59,58.2,4.35,49.43-2.56,36.62.15,23.21,8.26,13.62,15.73,4.77,27.16.34,41.08.34s24.57,6.09,30.5,15.13c12.54,19.18,5.22,48.11-27,50V76.72a.39.39,0,0,1-.38.39.37.37,0,0,1-.3-.14C41.51,74.24,33.72,65.18,33.71,65.18Z"/><path class="cls-2" d="M44.17,77.5a.73.73,0,0,1-.57-.26l-.3-.34L33.53,65.54C20.35,64.76,9.61,59,4,49.63-2.5,37.55-1,24,8,13.4,15.4,4.64,26.84,0,41.08,0c13.21,0,24.43,5.57,30.8,15.28,6.77,10.33,7.78,23.09,2.64,33.3S58.87,64.91,44.92,65.8V76.74a.74.74,0,0,1-.49.74A.76.76,0,0,1,44.17,77.5ZM33.72,64.81c.17,0,.24.09,10.14,11.6l.3.36V65.12h.35c13.84-.8,24.26-6.78,29.33-16.84S77.91,25.8,71.27,15.7C65,6.2,54,.74,41.08.74c-14,0-25.27,4.55-32.54,13.14C-.24,24.25-1.68,37.48,4.67,49.29,10.14,58.4,20.73,64.08,33.72,64.81Z"/><path class="cls-3" d="M50.31,21.38a.72.72,0,0,0,.94.45h0L56.52,20A.75.75,0,0,0,57,19a.74.74,0,0,0-.92-.49l-.06,0-5.27,1.88A.72.72,0,0,0,50.31,21.38ZM50,19.05a.73.73,0,0,0,.62-.27l3.23-4.1a.73.73,0,0,0-.11-1,.74.74,0,0,0-1,.1v0l-3.23,4.1A.73.73,0,0,0,50,19.06Zm7.25,5.34-5.09-1.18a.76.76,0,0,0-.32,1.48l5.09,1.14a.43.43,0,0,0,.16,0,.74.74,0,1,0,.18-1.47h0Zm-7.59,3.47H31.35l-2.25-6.2a7.23,7.23,0,0,1,0-5.22,6.93,6.93,0,0,1,9.06-3.73,5.72,5.72,0,0,1,.66.32A7.21,7.21,0,0,1,42.07,17l.69,1.89a.68.68,0,0,0,.86.41h0l1.78-.63a.68.68,0,0,0,.4-.87l-.65-1.91a10.44,10.44,0,0,0-4.43-5.5A10.13,10.13,0,0,0,26.22,15a10.52,10.52,0,0,0-.13,7.8l1.82,5H26.52a3.38,3.38,0,0,0-3.4,3.38V50.57a3.4,3.4,0,0,0,2.63,3.32,55,55,0,0,0,24.69,0h0a3.4,3.4,0,0,0,2.64-3.32V31.26a3.4,3.4,0,0,0-3.4-3.4h0Zm-8.56,19h-6l1-6.72a3.74,3.74,0,1,1,5.15-1.23A3.8,3.8,0,0,1,40,40.1Z"/></g></g></svg>