<svg xmlns="http://www.w3.org/2000/svg" viewBox="0 0 55.37 115.3"><defs><style>.cls-1{fill:var(--main);}.cls-2,.cls-4,.cls-8{fill:#fff;}.cls-2,.cls-4,.cls-7{isolation:isolate;}.cls-2{opacity:0.3;}.cls-3{fill:#fafafa;}.cls-4{opacity:0.6;}.cls-5{fill:#455a64;}.cls-6{fill:#e0e0e0;}.cls-7{opacity:0.25;}</style></defs><g id="Layer_2" data-name="Layer 2"><g id="Layer_1-2" data-name="Layer 1"><path class="cls-1" d="M0,111.41a4.34,4.34,0,0,0,2,3.42H2a4.38,4.38,0,0,0,3.61.16c-.93.36-1.64-.18-1.64-1.3V33.57a4.06,4.06,0,0,1,.6-2l-4-2.29a4.07,4.07,0,0,0-.58,2Z"/><path class="cls-2" d="M0,111.41a4.34,4.34,0,0,0,2,3.42H2a4.38,4.38,0,0,0,3.61.16c-.93.36-1.64-.18-1.64-1.3V33.57a4.06,4.06,0,0,1,.6-2l-4-2.29a4.07,4.07,0,0,0-.58,2Z"/><path class="cls-3" d="M5.67,114.45a.91.91,0,0,1-.26.13H5.34a1,1,0,0,1-.3,0c-.46,0-.53-.53-.53-.86V33.67A3.4,3.4,0,0,1,5,32,3.37,3.37,0,0,1,6.2,30.72L53.63,3.35a1.28,1.28,0,0,1,.6-.19c.1,0,.37,0,.48.43a2,2,0,0,1,0,.42V84.14a2.53,2.53,0,0,1-1.48,2.8Z"/><path class="cls-1" d="M54.19,3.63a1.31,1.31,0,0,1,0,.28V84c0,1.15,0,1.62-1.23,2.32L5.34,113.88l-.15.08h-.1a.71.71,0,0,1,0-.29V33.56a3.07,3.07,0,0,1,.44-1.4,2.9,2.9,0,0,1,1-1L53.92,3.74a.81.81,0,0,1,.27-.11m.07-1.14a1.87,1.87,0,0,0-.89.28L5.93,30.13a4.37,4.37,0,0,0-2,3.42V113.7c0,.9.44,1.42,1.09,1.42a2,2,0,0,0,.48-.09h.06a1.42,1.42,0,0,0,.35-.17l47.6-27.51a3.06,3.06,0,0,0,1.79-3.29V3.91a2.6,2.6,0,0,0-.06-.56,1.06,1.06,0,0,0-1-.86Z"/><path class="cls-1" d="M55.28,3.34c-.24-.83-1-1.1-1.91-.57L5.94,30.13a4,4,0,0,0-1.4,1.47l-4-2.29A4.17,4.17,0,0,1,2,27.84L49.38.47a4.38,4.38,0,0,1,4,0h0a4.42,4.42,0,0,1,1.94,2.87Z"/><path class="cls-4" d="M55.28,3.34c-.24-.83-1-1.1-1.91-.57L5.94,30.13a4,4,0,0,0-1.4,1.47l-4-2.29A4.17,4.17,0,0,1,2,27.84L49.38.47a4.38,4.38,0,0,1,4,0h0a4.42,4.42,0,0,1,1.94,2.87Z"/><path class="cls-5" d="M10.75,37.21l.73-3.49,0-.13a.19.19,0,0,1,.1-.1L12,33.3H12a.19.19,0,0,1,0,.1h0v.05l-.94,4.6a.66.66,0,0,1-.06.2.18.18,0,0,1-.1.11l-.34.2h-.1a.35.35,0,0,1-.06-.14L9.52,34.9v0h0a.23.23,0,0,1,0-.14.16.16,0,0,1,.08-.1l.31-.18h.1a.3.3,0,0,1,0,.08Z"/><path class="cls-5" d="M12.09,36a3.64,3.64,0,0,1,.07-.74,3.31,3.31,0,0,1,.2-.68,2.77,2.77,0,0,1,.33-.55,1.34,1.34,0,0,1,.43-.39.68.68,0,0,1,.42-.11.52.52,0,0,1,.33.16,1.07,1.07,0,0,1,.21.41,2.3,2.3,0,0,1,.07.58V35a.23.23,0,0,1,0,.14.14.14,0,0,1-.07.1l-1.4.81a.67.67,0,0,0,0,.24.28.28,0,0,0,.11.13.19.19,0,0,0,.15,0,.48.48,0,0,0,.18-.06,1.18,1.18,0,0,0,.22-.17.94.94,0,0,0,.14-.19l.07-.11a.18.18,0,0,1,.09-.06l.33-.2h.08a.11.11,0,0,1,0,.11A1.07,1.07,0,0,1,14,36a2.64,2.64,0,0,1-.18.38,2.55,2.55,0,0,1-.3.41,2,2,0,0,1-.42.34.8.8,0,0,1-.43.12.56.56,0,0,1-.32-.17,1.19,1.19,0,0,1-.21-.44A3.33,3.33,0,0,1,12.09,36Zm1-1.57a.7.7,0,0,0-.2.18,1.07,1.07,0,0,0-.15.22,1.57,1.57,0,0,0-.13.47l.95-.54V34.6a.37.37,0,0,0-.08-.15.17.17,0,0,0-.14-.06.49.49,0,0,0-.25.08Z"/><path class="cls-5" d="M15.62,33.08a.78.78,0,0,0-.36.38,1.49,1.49,0,0,0-.12.62v1.68a.32.32,0,0,1,0,.14A.16.16,0,0,1,15,36l-.32.19h-.08a.19.19,0,0,1,0-.1v-3a.32.32,0,0,1,0-.14.2.2,0,0,1,.08-.1l.32-.19a.06.06,0,0,1,.08,0,.19.19,0,0,1,0,.1v.15c.07-.13.15-.25.23-.37a1.09,1.09,0,0,1,.33-.27l.19-.11a.06.06,0,0,1,.08,0,.17.17,0,0,1,0,.1v.42a.33.33,0,0,1,0,.14.16.16,0,0,1-.08.1Z"/><path class="cls-5" d="M16.81,30.4a.06.06,0,0,1,.08,0,.17.17,0,0,1,0,.1V31a.38.38,0,0,1,0,.15.25.25,0,0,1-.08.1l-.36.2a.06.06,0,0,1-.08,0,.17.17,0,0,1,0-.1v-.48a.33.33,0,0,1,0-.14.2.2,0,0,1,.08-.1Zm.09,4.36a.33.33,0,0,1,0,.14.25.25,0,0,1-.08.1l-.32.18a.06.06,0,0,1-.08,0v-3.1a.38.38,0,0,1,0-.15.39.39,0,0,1,.08-.1l.32-.18a.06.06,0,0,1,.08,0,.17.17,0,0,1,0,.1Z"/><path class="cls-5" d="M18.22,30.81l.58-.33a.06.06,0,0,1,.08,0,.09.09,0,0,1,0,.1V31a.17.17,0,0,1,0,.14.19.19,0,0,1-.08.1l-.58.33V34a.33.33,0,0,1,0,.14.18.18,0,0,1-.07.1l-.33.18a0,0,0,0,1-.07,0h0a.09.09,0,0,1,0-.1v-2.4l-.28.17a.11.11,0,0,1-.08,0,.19.19,0,0,1,0-.1v-.43a.32.32,0,0,1,0-.14.16.16,0,0,1,.08-.1l.28-.16v-.28a2.6,2.6,0,0,1,.06-.56,1.44,1.44,0,0,1,.17-.45,1.24,1.24,0,0,1,.25-.35,2.11,2.11,0,0,1,.35-.26l.34-.19a0,0,0,0,1,.07,0,.09.09,0,0,1,0,.1v.42a.38.38,0,0,1,0,.15.23.23,0,0,1-.07.1l-.3.17a.6.6,0,0,0-.33.61Z"/><path class="cls-5" d="M19.93,33l-.82-2.48a0,0,0,0,1,0-.05.33.33,0,0,1,0-.14.19.19,0,0,1,.08-.1l.31-.17h.08a.11.11,0,0,1,.06.07l.56,1.67.55-2.31a.5.5,0,0,1,.05-.13.18.18,0,0,1,.09-.1l.32-.19a0,0,0,0,1,.07,0,.17.17,0,0,1,0,.1,0,0,0,0,1,0,.05l-1.17,4.89a.69.69,0,0,1-.05.13.28.28,0,0,1-.09.1l-.32.18a.06.06,0,0,1-.08,0,.17.17,0,0,1,0-.1v0Z"/><path class="cls-5" d="M23.14,31.15l-.83-2.5v0a.33.33,0,0,1,0-.14.2.2,0,0,1,.08-.1l.31-.18h.09l.05.07.56,1.68L24,27.62a.69.69,0,0,1,.05-.13.22.22,0,0,1,.09-.1l.31-.18h.08a.15.15,0,0,1,0,.1v0l-1.18,4.89a.5.5,0,0,1-.05.13.22.22,0,0,1-.09.1l-.31.19a.07.07,0,0,1-.09,0,.17.17,0,0,1,0-.1v-.05Z"/><path class="cls-5" d="M25.82,26.36a.86.86,0,0,1,.42-.13.45.45,0,0,1,.31.12.79.79,0,0,1,.23.32,2.22,2.22,0,0,1,.1.5v.65a4.22,4.22,0,0,1-.1.62,2.32,2.32,0,0,1-.22.57,3.12,3.12,0,0,1-.31.49,1.7,1.7,0,0,1-.42.34.84.84,0,0,1-.43.14.51.51,0,0,1-.31-.11.74.74,0,0,1-.22-.33,1.71,1.71,0,0,1-.1-.5v-.65a2.59,2.59,0,0,1,.1-.61,3.22,3.22,0,0,1,.53-1.07,2.06,2.06,0,0,1,.43-.35Zm.51,1.16a.82.82,0,0,0-.07-.3.24.24,0,0,0-.12-.14.19.19,0,0,0-.15,0,.53.53,0,0,0-.17.08.66.66,0,0,0-.17.12,1,1,0,0,0-.16.2,1.39,1.39,0,0,0-.12.28,2.25,2.25,0,0,0-.06.36v.59a.8.8,0,0,0,.06.3.53.53,0,0,0,.12.14.43.43,0,0,0,.16,0l.17-.08A.66.66,0,0,0,26,29a1,1,0,0,0,.15-.2.77.77,0,0,0,.12-.28,1.51,1.51,0,0,0,.07-.37v-.58Z"/><path class="cls-5" d="M27.33,25.7a.4.4,0,0,1,.11-.24l.33-.18a0,0,0,0,1,.07,0,.15.15,0,0,1,0,.1V27a1,1,0,0,0,.11.56c.06.12.18.13.34,0a.78.78,0,0,0,.34-.42,1.65,1.65,0,0,0,.12-.69V24.89a.38.38,0,0,1,0-.15.39.39,0,0,1,.08-.1l.32-.18h.08a.13.13,0,0,1,0,.1v3a.33.33,0,0,1,0,.14.16.16,0,0,1-.08.1l-.32.18a.06.06,0,0,1-.08,0v-.25c-.07.14-.15.28-.23.41a1.15,1.15,0,0,1-.35.31.68.68,0,0,1-.43.13.35.35,0,0,1-.26-.18.84.84,0,0,1-.14-.4,2.56,2.56,0,0,1-.05-.55Z"/><path class="cls-5" d="M30.93,24.22a.9.9,0,0,0-.36.39,1.48,1.48,0,0,0-.11.62v1.68a.33.33,0,0,1,0,.14.27.27,0,0,1-.08.1l-.32.18a0,0,0,0,1-.08,0,.12.12,0,0,1,0-.1v-3a.33.33,0,0,1,0-.14.16.16,0,0,1,.08-.1l.32-.19a.06.06,0,0,1,.08,0,.17.17,0,0,1,0,.1v.15a1.76,1.76,0,0,1,.23-.37,1,1,0,0,1,.33-.27l.18-.11a.06.06,0,0,1,.08,0,.12.12,0,0,1,0,.1v.43a.43.43,0,0,1,0,.14.25.25,0,0,1-.08.1Z"/><path class="cls-5" d="M33,21.06a.06.06,0,0,1,.08,0,.13.13,0,0,1,0,.1v.5a.42.42,0,0,1,0,.15.25.25,0,0,1-.08.1l-.36.21h-.08a.16.16,0,0,1,0-.12v-.5a.39.39,0,0,1,0-.14.25.25,0,0,1,.08-.1Zm.1,4.36a.23.23,0,0,1,0,.14.16.16,0,0,1-.08.1l-.31.18h-.08a.12.12,0,0,1,0-.1v-3a.23.23,0,0,1,0-.14.16.16,0,0,1,.08-.1l.31-.19H33a.14.14,0,0,1,0,.1Z"/><path class="cls-5" d="M34.49,21.35l.23-.1a.54.54,0,0,1,.18,0,.35.35,0,0,1,.14.06l.09.07V20a.33.33,0,0,1,0-.14.19.19,0,0,1,.08-.1l.31-.18a.08.08,0,0,1,.09,0,.11.11,0,0,1,0,.1v4.23a.32.32,0,0,1,0,.14.22.22,0,0,1-.09.1l-.31.19a.06.06,0,0,1-.08,0v-.26l-.09.18a1.43,1.43,0,0,1-.14.2.86.86,0,0,1-.18.2,1,1,0,0,1-.23.18.57.57,0,0,1-.38.09.46.46,0,0,1-.29-.17.89.89,0,0,1-.18-.38,1.83,1.83,0,0,1-.09-.52v-.45a3.66,3.66,0,0,1,.27-1.21,2.5,2.5,0,0,1,.29-.5,1.27,1.27,0,0,1,.38-.35Zm-.39,1.79a2.16,2.16,0,0,0,0,.36.63.63,0,0,0,.17.51.32.32,0,0,0,.35,0,.91.91,0,0,0,.34-.39,1.56,1.56,0,0,0,.17-.63V22.5a.66.66,0,0,0-.17-.44.3.3,0,0,0-.34,0,1,1,0,0,0-.35.39,1.63,1.63,0,0,0-.17.69Z"/><path class="cls-5" d="M36.14,22.14a3.71,3.71,0,0,1,.07-.74,3.25,3.25,0,0,1,.21-.67,2.39,2.39,0,0,1,.32-.56,1.57,1.57,0,0,1,.43-.38.7.7,0,0,1,.42-.11.49.49,0,0,1,.33.17.84.84,0,0,1,.2.4,2,2,0,0,1,.08.59v.28a.38.38,0,0,1,0,.15.27.27,0,0,1-.08.1l-1.4.81a.51.51,0,0,0,0,.24.19.19,0,0,0,.22.14l0,0a.55.55,0,0,0,.18-.06,1.18,1.18,0,0,0,.22-.17,1.33,1.33,0,0,0,.14-.19l.07-.11a.16.16,0,0,1,.08-.06l.33-.2h.08a.09.09,0,0,1,0,.1,1.31,1.31,0,0,1-.06.27,1.93,1.93,0,0,1-.19.38,2.34,2.34,0,0,1-.29.41,1.86,1.86,0,0,1-.41.33.74.74,0,0,1-.43.12.47.47,0,0,1-.33-.17,1,1,0,0,1-.2-.44A2.08,2.08,0,0,1,36.14,22.14Zm1-1.55a.68.68,0,0,0-.21.17,1,1,0,0,0-.14.22.58.58,0,0,0-.09.25,1.55,1.55,0,0,0,0,.23l1-.55a1.13,1.13,0,0,0,0-.18.35.35,0,0,0-.08-.16.17.17,0,0,0-.14-.06.42.42,0,0,0-.21.08Z"/><path class="cls-5" d="M40.69,21a.35.35,0,0,1,0,.14.39.39,0,0,1-.08.1l-.32.18a.06.06,0,0,1-.08,0,.17.17,0,0,1,0-.1V19.7a1,1,0,0,0-.12-.55c-.08-.11-.2-.12-.36,0a.92.92,0,0,0-.35.43,1.85,1.85,0,0,0-.13.7v1.64a.33.33,0,0,1,0,.14.2.2,0,0,1-.08.1l-.32.19a.06.06,0,0,1-.08,0,.17.17,0,0,1,0-.1v-3a.33.33,0,0,1,0-.14.27.27,0,0,1,.08-.1l.32-.19a.06.06,0,0,1,.08,0,.17.17,0,0,1,0,.1v.15a2.73,2.73,0,0,1,.26-.43,1.17,1.17,0,0,1,.35-.31.69.69,0,0,1,.42-.12.35.35,0,0,1,.28.17,1,1,0,0,1,.15.4,2.55,2.55,0,0,1,0,.55Z"/><path class="cls-5" d="M42,19.25a.48.48,0,0,0,.06.28c.05,0,.13,0,.26,0l.26-.15a.06.06,0,0,1,.08,0,.17.17,0,0,1,0,.1v.43a.33.33,0,0,1,0,.14.39.39,0,0,1-.08.1l-.31.17q-.41.22-.6.06a1,1,0,0,1-.22-.78V18.21l-.27.16h-.08a.13.13,0,0,1,0-.1v-.43a.23.23,0,0,1,0-.14.16.16,0,0,1,.08-.1l.27-.15V16.39a.4.4,0,0,1,.11-.24l.33-.18a0,0,0,0,1,.07,0h0a.12.12,0,0,1,0,.1v1l.53-.31a.08.08,0,0,1,.09,0,.19.19,0,0,1,0,.1v.42a.33.33,0,0,1,0,.15.22.22,0,0,1-.09.1l-.53.31Z"/><path class="cls-5" d="M43.53,15a.06.06,0,0,1,.08,0,.21.21,0,0,1,0,.1v.5a.57.57,0,0,1,0,.14.14.14,0,0,1-.08.1l-.36.22a.06.06,0,0,1-.08,0,.17.17,0,0,1,0-.1v-.5a.4.4,0,0,1,0-.15.25.25,0,0,1,.08-.1Zm.1,4.36a.33.33,0,0,1,0,.14.14.14,0,0,1-.08.1l-.32.19a0,0,0,0,1-.07,0,.09.09,0,0,1,0-.1v-3a.33.33,0,0,1,0-.14.18.18,0,0,1,.07-.1l.32-.19a.06.06,0,0,1,.08,0,.14.14,0,0,1,0,.1Z"/><path class="cls-5" d="M44.94,17.53a.45.45,0,0,0,.06.28c0,.06.14.05.26,0l.26-.14a.06.06,0,0,1,.08,0,.17.17,0,0,1,0,.1v.42a.33.33,0,0,1,0,.14.27.27,0,0,1-.08.1l-.31.18c-.27.16-.47.17-.6.06a1,1,0,0,1-.22-.78V16.47l-.28.16H44a.17.17,0,0,1,0-.1v-.42A.33.33,0,0,1,44,16a.18.18,0,0,1,.07-.1l.28-.16V14.63a.33.33,0,0,1,0-.14.22.22,0,0,1,.09-.1l.31-.19a.06.06,0,0,1,.08,0,.14.14,0,0,1,0,.1v1.06l.54-.31a.06.06,0,0,1,.08,0,.17.17,0,0,1,0,.1v.42a.38.38,0,0,1,0,.15.39.39,0,0,1-.08.1l-.54.31Z"/><path class="cls-5" d="M46.71,17.54l-.85-2.47v0a.26.26,0,0,1,0-.15.16.16,0,0,1,.08-.1l.31-.18h.09a.16.16,0,0,1,0,.08L47,16.35,47.54,14a.19.19,0,0,1,.05-.13.43.43,0,0,1,.09-.1l.32-.18a.06.06,0,0,1,.08,0,.17.17,0,0,1,0,.1v0L46.9,18.65a.5.5,0,0,1,0,.13.18.18,0,0,1-.09.1l-.32.19a0,0,0,0,1-.07,0,.13.13,0,0,1,0-.1v0Z"/><path class="cls-6" d="M10,45.09l39.27-22.7A1.49,1.49,0,0,0,50,21.27c0-.39-.31-.52-.69-.3L10,43.67a1.47,1.47,0,0,0-.74,1.12C9.32,45.17,9.63,45.31,10,45.09Z"/><path class="cls-6" d="M10,49.05,41.43,30.94a1.48,1.48,0,0,0,.7-1.12c0-.39-.31-.52-.7-.3L10.06,47.64a1.45,1.45,0,0,0-.74,1.11C9.32,49.14,9.63,49.31,10,49.05Z"/><path class="cls-6" d="M10,87.94l39.27-22.7a1.45,1.45,0,0,0,.69-1.1c0-.4-.31-.53-.69-.31L10,86.53a1.48,1.48,0,0,0-.74,1.1C9.32,88,9.63,88.16,10,87.94Z"/><path class="cls-6" d="M10,91.91,41.43,73.79a1.48,1.48,0,0,0,.7-1.1c0-.39-.31-.53-.7-.31L10.06,90.49a1.49,1.49,0,0,0-.74,1.12C9.32,92,9.63,92.14,10,91.91Z"/><path class="cls-6" d="M17.91,74.31,49.29,56.2A1.49,1.49,0,0,0,50,55.08c0-.39-.31-.52-.69-.3L17.91,72.91a1.48,1.48,0,0,0-.7,1.12C17.21,74.38,17.52,74.53,17.91,74.31Z"/><path class="cls-1" d="M9.32,70h-.1a.21.21,0,0,1-.1-.18V58.06a.21.21,0,0,1,.1-.17l5-3a.23.23,0,0,1,.2,0,.18.18,0,0,1,.1.18v11.8a.18.18,0,0,1-.1.18l-5,2.9A.21.21,0,0,1,9.32,70Zm.2-11.88V69.49l4.63-2.68V55.49Z"/><path class="cls-6" d="M16.44,65.93h-.1a.19.19,0,0,1-.1-.17V54a.21.21,0,0,1,.1-.18l5-2.91a.23.23,0,0,1,.2,0,.21.21,0,0,1,.1.17v11.8a.19.19,0,0,1-.1.17l-5,2.91A.2.2,0,0,1,16.44,65.93Zm.2-11.88V65.38l4.63-2.67V51.38Z"/><path class="cls-7" d="M16.44,65.93h-.1a.19.19,0,0,1-.1-.17V54a.21.21,0,0,1,.1-.18l5-2.91a.23.23,0,0,1,.2,0,.21.21,0,0,1,.1.17v11.8a.19.19,0,0,1-.1.17l-5,2.91A.2.2,0,0,1,16.44,65.93Zm.2-11.88V65.38l4.63-2.67V51.38Z"/><path class="cls-6" d="M23.57,61.84h-.1a.18.18,0,0,1-.1-.17V49.87a.2.2,0,0,1,.1-.18l5-2.91a.2.2,0,0,1,.27.08.19.19,0,0,1,0,.1v11.8a.22.22,0,0,1-.1.18l-5,2.9ZM23.78,50V61.3l4.63-2.68V47.28Z"/><path class="cls-7" d="M23.57,61.84h-.1a.18.18,0,0,1-.1-.17V49.87a.2.2,0,0,1,.1-.18l5-2.91a.2.2,0,0,1,.27.08.19.19,0,0,1,0,.1v11.8a.22.22,0,0,1-.1.18l-5,2.9ZM23.78,50V61.3l4.63-2.68V47.28Z"/><path class="cls-6" d="M30.69,57.72h-.1a.2.2,0,0,1-.1-.18V45.74a.21.21,0,0,1,.1-.17l5-2.91a.26.26,0,0,1,.21,0,.22.22,0,0,1,.1.18v11.8a.19.19,0,0,1-.1.17l-5,2.91Zm.21-11.87V57.17l4.63-2.7V43.18Z"/><path class="cls-7" d="M30.69,57.72h-.1a.2.2,0,0,1-.1-.18V45.74a.21.21,0,0,1,.1-.17l5-2.91a.26.26,0,0,1,.21,0,.22.22,0,0,1,.1.18v11.8a.19.19,0,0,1-.1.17l-5,2.91Zm.21-11.87V57.17l4.63-2.7V43.18Z"/><path class="cls-6" d="M37.83,53.61h-.1a.18.18,0,0,1-.1-.17V41.64a.2.2,0,0,1,.1-.18l5-2.91a.23.23,0,0,1,.2,0,.22.22,0,0,1,.1.17v11.8a.19.19,0,0,1-.1.17l-5,2.91A.12.12,0,0,1,37.83,53.61ZM38,41.74V53.06l4.63-2.67V39.07Z"/><path class="cls-7" d="M37.83,53.61h-.1a.18.18,0,0,1-.1-.17V41.64a.2.2,0,0,1,.1-.18l5-2.91a.23.23,0,0,1,.2,0,.22.22,0,0,1,.1.17v11.8a.19.19,0,0,1-.1.17l-5,2.91A.12.12,0,0,1,37.83,53.61ZM38,41.74V53.06l4.63-2.67V39.07Z"/><path class="cls-6" d="M45,49.5h-.1a.18.18,0,0,1-.1-.17V37.5a.2.2,0,0,1,.1-.18l5-2.9a.18.18,0,0,1,.2,0,.19.19,0,0,1,.1.18V46.4a.18.18,0,0,1-.1.17l-5,2.91Zm.2-11.87V49l4.63-2.68V35Z"/><path class="cls-7" d="M45,49.5h-.1a.18.18,0,0,1-.1-.17V37.5a.2.2,0,0,1,.1-.18l5-2.9a.18.18,0,0,1,.2,0,.19.19,0,0,1,.1.18V46.4a.18.18,0,0,1-.1.17l-5,2.91Zm.2-11.87V49l4.63-2.68V35Z"/><path class="cls-1" d="M48.45,75.9,30.94,86a2.37,2.37,0,0,0-1.05,1.81L29.84,93c0,.67.46.94,1,.6L48.45,83.48a2.32,2.32,0,0,0,1-1.82V76.5a.65.65,0,0,0-.51-.75A.67.67,0,0,0,48.45,75.9Z"/><path class="cls-8" d="M37.88,87.48H37.8l0,0L36.92,86v2a.13.13,0,0,1-.06.07l-.24.14s0,0,0,0h0a.09.09,0,0,1,0-.07v-3a.17.17,0,0,1,0-.1.12.12,0,0,1,.06-.06l.21-.13a.11.11,0,0,1,.08,0l0,0,.8,1.39v-1.9a.17.17,0,0,1,0-.1.18.18,0,0,1,0-.07l.25-.14s0,0,.06,0a.09.09,0,0,1,0,.07v3l-.06.07Z"/><path class="cls-8" d="M38.53,85.9a3.05,3.05,0,0,1,0-.52,2.06,2.06,0,0,1,.15-.48,1.74,1.74,0,0,1,.23-.4,1.14,1.14,0,0,1,.3-.28.64.64,0,0,1,.3-.08.38.38,0,0,1,.24.13.73.73,0,0,1,.15.29A1.42,1.42,0,0,1,40,85v.2a.17.17,0,0,1,0,.1.16.16,0,0,1-.06.08l-1,.57a.54.54,0,0,0,0,.18l.07.09h.12a.31.31,0,0,0,.13-.06.33.33,0,0,0,.15-.11.45.45,0,0,0,.1-.14l.06-.08.06,0,.24-.13a0,0,0,0,1,.05,0,.09.09,0,0,1,0,.07.41.41,0,0,1,0,.19,1.43,1.43,0,0,1-.13.28,1.54,1.54,0,0,1-.22.3,1,1,0,0,1-.3.23.51.51,0,0,1-.3.09.35.35,0,0,1-.23-.12.64.64,0,0,1-.15-.31A2.36,2.36,0,0,1,38.53,85.9Zm.73-1.12a.53.53,0,0,0-.14.12.59.59,0,0,0-.1.17.87.87,0,0,0-.07.17v.16l.68-.39a.29.29,0,0,0,0-.13.37.37,0,0,0-.05-.11.21.21,0,0,0-.1,0,.3.3,0,0,0-.21,0Z"/><path class="cls-8" d="M41,84.94l-.35.88a.41.41,0,0,1-.07.11l-.06,0-.24.13h0a.11.11,0,0,1,0-.08V86l.55-1.34-.52-.69v-.16l.06-.06.23-.14h.13L41,84l.33-.84a.61.61,0,0,1,.07-.1l.06-.06.24-.13h0a.11.11,0,0,1,0,.08V83l-.52,1.3.53.7v.06a.17.17,0,0,1,0,.1.16.16,0,0,1-.06.08l-.23.17h-.08a.07.07,0,0,1-.06,0Z"/><path class="cls-8" d="M42.56,83.9a.46.46,0,0,0,0,.2s.1,0,.19,0L43,84s0,0,.05,0h0a.09.09,0,0,1,0,.07v.3a.17.17,0,0,1,0,.1.13.13,0,0,1-.06.07l-.22.13c-.19.1-.33.12-.43,0s-.16-.27-.16-.55v-1l-.19.11a.06.06,0,0,1-.06,0,.11.11,0,0,1,0-.08v-.3a.17.17,0,0,1,0-.1.13.13,0,0,1,.06-.07l.19-.11v-.84a.18.18,0,0,1,0-.07l.23-.13h.06a.11.11,0,0,1,0,.08v.73l.39-.22s0,0,.05,0h0a.11.11,0,0,1,0,.08v.26a.17.17,0,0,1,0,.1.13.13,0,0,1-.06.07l-.39.22Z"/></g></g></svg>