<svg xmlns="http://www.w3.org/2000/svg" xmlns:xlink="http://www.w3.org/1999/xlink" width="36.184" height="27.138" viewBox="0 0 36.184 27.138"><defs><style>.a{fill:#ddd;}.b{fill:#ff9e01;}.c{fill:url(#a);}</style><linearGradient id="a" x1="1" x2="-0.078" y2="1.213" gradientUnits="objectBoundingBox"><stop offset="0" stop-color="var(--main)"/><stop offset="1" stop-color="#9a89f2"/></linearGradient></defs><path class="a" d="M36.184,4.146V22.992a4.144,4.144,0,0,1-4.146,4.146H4.146a3.537,3.537,0,0,1-1.071-.151,4.126,4.126,0,0,1-3.076-4V4.146A4.144,4.144,0,0,1,4.146,0H32.038a4.144,4.144,0,0,1,4.146,4.146Zm0,0" transform="translate(0 0)"/><path class="b" d="M70.03,67.015A3.015,3.015,0,1,1,67.015,64,3.015,3.015,0,0,1,70.03,67.015Zm0,0" transform="translate(-59.477 -59.477)"/><path class="c" d="M76.628,122.009v3.482a4.144,4.144,0,0,1-4.146,4.146H44.59a3.538,3.538,0,0,1-1.071-.151l18.424-18.424a2.658,2.658,0,0,1,3.739,0Zm0,0" transform="translate(-40.444 -102.5)"/><path class="c" d="M25.72,199.025H4.146a3.538,3.538,0,0,1-1.071-.151,4.126,4.126,0,0,1-3.076-4v-.467l8.684-8.684a2.657,2.657,0,0,1,3.739,0Zm0,0" transform="translate(0 -171.888)"/></svg>