<svg xmlns="http://www.w3.org/2000/svg" viewBox="0 0 131.6 179.31"><defs><style>.cls-1{fill:#e0e0e0;}.cls-2{fill:#263238;}.cls-3{fill:#455a64;}.cls-4{fill:#37474f;}.cls-5{fill:var(--main);}.cls-12,.cls-6,.cls-7,.cls-9{isolation:isolate;}.cls-6{opacity:0.15;}.cls-7{opacity:0.25;}.cls-8{fill:#ffa8a7;}.cls-9{opacity:0.4;}.cls-10{fill:#fafafa;}.cls-11{fill:#f28f8f;}.cls-12{fill:#fff;opacity:0.2;}.cls-13{fill:#b16668;}</style></defs><g id="Layer_2" data-name="Layer 2"><g id="Layer_1-2" data-name="Layer 1"><path class="cls-1" d="M66.3,176.55.6,138.69A.9.9,0,0,1,.6,137l61.74-35.69a3.2,3.2,0,0,1,3,0L131,139.16a.89.89,0,0,1,0,1.69l-61.74,35.7A3.2,3.2,0,0,1,66.3,176.55Z"/><path class="cls-2" d="M8,137.39a1.23,1.23,0,0,1-.39-.06,1.26,1.26,0,0,1-.8-1.59l9.67-29.25a13.59,13.59,0,0,1,5.24-6.27L61.84,77.06A3.73,3.73,0,0,1,67,78a3.78,3.78,0,0,1,.63,1.68l4.94,14.17a1.25,1.25,0,1,1-2.36.82h0l-5-14.3a1.6,1.6,0,0,1,0-.21A1.29,1.29,0,0,0,64,78.84a1.31,1.31,0,0,0-.91.33L23,102.34a11,11,0,0,0-4.13,4.93L9.16,136.48a1.24,1.24,0,0,1-1.19.9Z"/><path class="cls-2" d="M67.3,172.28h-.15a1.24,1.24,0,0,1-1.09-1.39l4-33.5a9.75,9.75,0,0,1,4.36-6.73l40.14-23.17a4.6,4.6,0,0,1,6.31,1.56,4.41,4.41,0,0,1,.33.65v.07l8,28.93A1.25,1.25,0,1,1,127,140a1.16,1.16,0,0,1-.16-.4l-7.94-28.89a2.09,2.09,0,0,0-2.71-1.2,1.93,1.93,0,0,0-.38.19L75.7,132.88a7.3,7.3,0,0,0-3.13,4.84l-4,33.5a1.26,1.26,0,0,1-1.25,1.07Z"/><path class="cls-3" d="M67.85,135.91a7.87,7.87,0,0,1-3.94-1l-46-26.55a3.18,3.18,0,0,1,0-5.9L64.75,75.43a8.54,8.54,0,0,1,7.87,0l46,26.55a3.19,3.19,0,0,1,0,5.9L71.79,134.93A8,8,0,0,1,67.85,135.91Zm.84-59.13a5.75,5.75,0,0,0-2.78.66h0L19.06,104.49c-.5.29-.81.64-.81.93s.31.64.81.93l46,26.62a6.25,6.25,0,0,0,5.56,0l46.84-27c.5-.29.81-.65.81-.94s-.31-.64-.81-.93l-46-26.55a5.6,5.6,0,0,0-2.77-.68Z"/><path class="cls-4" d="M30.86,97.55a1.17,1.17,0,0,1-1.13-.92L25,75a1.16,1.16,0,0,1,2.27-.49L32,96.08a1.17,1.17,0,0,1-.9,1.38A1.06,1.06,0,0,1,30.86,97.55Z"/><path class="cls-4" d="M52.93,84.78a1.17,1.17,0,0,1-1.14-.92L47.06,62.23a1.17,1.17,0,0,1,2.28-.5l4.72,21.63a1.15,1.15,0,0,1-.87,1.39h0A1.07,1.07,0,0,1,52.93,84.78Z"/><path class="cls-4" d="M67.29,56.09a1.18,1.18,0,0,0-.69-1L60.47,51.6a3.75,3.75,0,0,0-3.36,0L13.27,77a1.19,1.19,0,0,0-.7,1v1.81a1.2,1.2,0,0,0,.7,1l6.09,3.51a3.69,3.69,0,0,0,3.36,0l43.9-25.35a1.18,1.18,0,0,0,.7-1Z"/><path class="cls-2" d="M66.6,55.12,60.47,51.6a3.75,3.75,0,0,0-3.36,0L21,72.47V84.64a3.5,3.5,0,0,0,1.68-.4l43.9-25.35a1.18,1.18,0,0,0,.7-1V56.1A1.19,1.19,0,0,0,66.6,55.12Z"/><path class="cls-3" d="M57.14,51.6,13.26,77a1,1,0,0,0-.63,1.3,1,1,0,0,0,.63.64l6.1,3.52a3.69,3.69,0,0,0,3.36,0L66.6,57.06a1.17,1.17,0,0,0,.69-1,1.18,1.18,0,0,0-.69-1L60.47,51.6A3.75,3.75,0,0,0,57.14,51.6Z"/><path class="cls-5" d="M115.65,95.52,67.78,67.85A1.19,1.19,0,0,0,66.6,68L21,94.29a3.69,3.69,0,0,0-1.68,2.92v7a1.19,1.19,0,0,0,.49,1.08L67.69,133a1.18,1.18,0,0,0,1.19-.11l45.58-26.34a3.66,3.66,0,0,0,1.68-2.9v-7a1.19,1.19,0,0,0-.49-1.07Z"/><path class="cls-6" d="M67.68,133,19.82,105.3a1.2,1.2,0,0,1-.49-1.08v-7a3.38,3.38,0,0,1,.57-1.77l47.85,27.66a3.59,3.59,0,0,0-.56,1.77v7A1.17,1.17,0,0,0,67.68,133Z"/><path class="cls-7" d="M67.19,131.9v-7.05a3.7,3.7,0,0,1,1.69-2.91l45.58-26.33a1,1,0,0,1,1.68,1v7a3.69,3.69,0,0,1-1.68,2.91L68.88,132.85a1.18,1.18,0,0,1-1.19.11,1.15,1.15,0,0,1-.5-1.06Z"/><path class="cls-5" d="M118.67,57.28l-41.57-24a1.1,1.1,0,0,0-1,.15L70,36.92a4.72,4.72,0,0,0-2,2.89L62.3,72.37c-.1.55,0,.93.3,1.09l41.57,24a1.09,1.09,0,0,0,1.06-.15l6.09-3.52a4.73,4.73,0,0,0,2-2.88L119,58.37C119.06,57.81,118.94,57.43,118.67,57.28Z"/><path class="cls-6" d="M103.86,96.39c-.09.56,0,.93.3,1.1l-41.56-24c-.27-.15-.39-.54-.3-1.08L68,39.81a4.31,4.31,0,0,1,.73-1.67l41.58,24a4.44,4.44,0,0,0-.74,1.66Z"/><path class="cls-7" d="M105.22,97.33l6.09-3.52a4.72,4.72,0,0,0,2-2.88L119,58.37c.1-.56,0-.94-.3-1.09a1.05,1.05,0,0,0-1,.15L111.51,61a4.69,4.69,0,0,0-2,2.88l-5.64,32.56c-.1.56,0,.94.3,1.09A1.07,1.07,0,0,0,105.22,97.33Z"/><path class="cls-8" d="M37,128.82s3.9,9.58,4.1,13.33c.2,3.93,1.16,5.23.48,9.51-.14.93-.63,2.8-.73,3.55a1.13,1.13,0,0,0,.81,1.37l.2,0c1.7.35,4.54-2.85,5.9-6.34A103.87,103.87,0,0,0,51.11,138a5.37,5.37,0,0,0-.54-2.75,7.57,7.57,0,0,0-.79-1.42c-.56-1.71-.83-5-1.3-7.22Z"/><path class="cls-4" d="M54.41,141.57a3.93,3.93,0,0,1,.46,1.28c0,.79-1.73,3.37-2.43,4.31a6.29,6.29,0,0,0-1.28,4.47,10.8,10.8,0,0,1-2.63,7A17.19,17.19,0,0,1,40,164.23c-4.13,1.28-5.6-.8-5.6-.8s-1.28-2-.51-2.82S54.41,141.57,54.41,141.57Z"/><path class="cls-5" d="M49.76,133.81c.12,0,.35-.05.67.35.12.14.88,2,1.47,3s2.28,2.84,2.48,4.43c-1,3.07-3.83,5.2-4.27,8.11s-.49,6.26-4.94,9.8-9,3.91-10.68,3-1.48-2.7.8-6.06c2.43-3.56,4.08-11.29,4.08-11.29a25.71,25.71,0,0,0,.45-3.27,22.06,22.06,0,0,0-.3-3.25,2.44,2.44,0,0,1,.2-1.48,2.5,2.5,0,0,1,1.23-.84,10.83,10.83,0,0,1,2.29-.77,3.57,3.57,0,0,1,2.36.28,16,16,0,0,0,1.47.94,2.11,2.11,0,0,0,2.21-.39,1.78,1.78,0,0,0,.59-2A4.15,4.15,0,0,0,49.76,133.81Z"/><path class="cls-9" d="M49.76,133.81c.12,0,.35-.05.67.35.12.14.88,2,1.47,3s2.28,2.84,2.48,4.43c-1,3.07-3.83,5.2-4.27,8.11s-.49,6.26-4.94,9.8-9,3.91-10.68,3-1.48-2.7.8-6.06c2.43-3.56,4.08-11.29,4.08-11.29a25.71,25.71,0,0,0,.45-3.27,22.06,22.06,0,0,0-.3-3.25,2.44,2.44,0,0,1,.2-1.48,2.5,2.5,0,0,1,1.23-.84,10.83,10.83,0,0,1,2.29-.77,3.57,3.57,0,0,1,2.36.28,16,16,0,0,0,1.47.94,2.11,2.11,0,0,0,2.21-.39,1.78,1.78,0,0,0,.59-2A4.15,4.15,0,0,0,49.76,133.81Z"/><path class="cls-10" d="M47.8,156.63a7.11,7.11,0,0,0-6.45-3.5c-4.73,0-6.37,2.43-7.08,3.84-.87,1.69-1.76,4.74.2,5.62s4.54.66,8.38-1.27A10.21,10.21,0,0,0,47.8,156.63Z"/><path class="cls-10" d="M47,142.39a.54.54,0,0,1-.43,0c-.74-.38-4.6-1.19-6.85.9-.3-.24-.23-.67.14-1.26a8.67,8.67,0,0,1,7.18-.47.44.44,0,0,1,.2.59l0,0a.5.5,0,0,1-.22.21Z"/><path class="cls-10" d="M39.19,146.05a1.48,1.48,0,0,1,.27-1.3,8.87,8.87,0,0,1,6.84-.28.45.45,0,0,1,.2.6l0,0a.56.56,0,0,1-.22.21.54.54,0,0,1-.43,0C45.12,145,41.46,144.18,39.19,146.05Z"/><path class="cls-10" d="M37.25,152.43a2.74,2.74,0,0,1,.6-1.71,8.76,8.76,0,0,1,7.07-.4.45.45,0,0,1,.2.6l0,0a.48.48,0,0,1-.65.21C43.69,150.76,39.42,149.87,37.25,152.43Z"/><path class="cls-10" d="M45.57,148.23a.51.51,0,0,1-.42,0c-.74-.37-4.51-1.16-6.77.83a1.67,1.67,0,0,1,.39-1.4,8.87,8.87,0,0,1,6.84-.27.44.44,0,0,1,.2.59s0,0,0,0A.52.52,0,0,1,45.57,148.23Z"/><path class="cls-8" d="M33,141s-2.49,11.56-4.85,16-3.57,6.55-6.69,9.83c-.68.73-2.21,2-2.76,2.61a1.16,1.16,0,0,0-.13,1.64l.16.16c1.26,1.32,6.83,1.88,10.06-.31s6.32-7.06,8.27-8.86c.74-.67,1.43-1.37,2.1-2.11s.5-1.42.6-2.25c0-.4,0-1.47,0-1.47.52-1.94,1.82-5,2.53-6.85Z"/><path class="cls-4" d="M40.45,165.07a4.29,4.29,0,0,1-.21,1.42c-.35.73-3.25,2.25-4.36,2.78a6.62,6.62,0,0,0-3.37,3.5,11.24,11.24,0,0,1-5.86,5.17,18.09,18.09,0,0,1-10.68,1c-4.43-.85-4.78-3.49-4.78-3.49s-.21-2.48.9-2.85S40.45,165.07,40.45,165.07Z"/><path class="cls-5" d="M40,155.61c.12.06.34.14.45.65a31.5,31.5,0,0,0-.07,3.5c.1,1.21.7,3.74.12,5.3-2.39,2.36-6.1,2.95-7.92,5.4S29,176,23.15,177.09s-10.27-.81-11.33-2.49-.05-3.23,3.69-5.21c4-2.1,9.33-8.41,9.34-8.41a28.13,28.13,0,0,0,2-2.82A22.42,22.42,0,0,0,28.17,155a2.54,2.54,0,0,1,.91-1.26,2.75,2.75,0,0,1,1.55-.18,11.67,11.67,0,0,1,2.49.41,3.83,3.83,0,0,1,2,1.42c.34.51.52,1.13.9,1.59a2.22,2.22,0,0,0,2.21.74,1.89,1.89,0,0,0,1.54-1.57,3.29,3.29,0,0,0,.14-.54Z"/><path class="cls-9" d="M40,155.61c.12.06.34.14.45.65a31.5,31.5,0,0,0-.07,3.5c.1,1.21.7,3.74.12,5.3-2.39,2.36-6.1,2.95-7.92,5.4S29,176,23.15,177.09s-10.27-.81-11.33-2.49-.05-3.23,3.69-5.21c4-2.1,9.33-8.41,9.34-8.41a28.13,28.13,0,0,0,2-2.82A22.42,22.42,0,0,0,28.17,155a2.54,2.54,0,0,1,.91-1.26,2.75,2.75,0,0,1,1.55-.18,11.67,11.67,0,0,1,2.49.41,3.83,3.83,0,0,1,2,1.42c.34.51.52,1.13.9,1.59a2.22,2.22,0,0,0,2.21.74,1.89,1.89,0,0,0,1.54-1.57,3.29,3.29,0,0,0,.14-.54Z"/><path class="cls-10" d="M27,175.74a7.43,7.43,0,0,0-4.25-6.4c-4.38-2.3-7.07-.88-8.43.08-1.62,1.13-3.95,3.52-2.58,5.29s3.89,2.83,8.38,2.95A10.6,10.6,0,0,0,27,175.74Z"/><path class="cls-10" d="M33.18,162.16a.5.5,0,0,1-.4-.21c-.49-.7-3.69-3.35-6.77-2.52-.16-.36.11-.74.74-1.1a9,9,0,0,1,6.86,3.08.48.48,0,0,1-.11.66h0A.41.41,0,0,1,33.18,162.16Z"/><path class="cls-10" d="M24.18,161.73a1.45,1.45,0,0,1,.89-1.06,9.2,9.2,0,0,1,6.45,3.1.47.47,0,0,1-.12.66h0a.46.46,0,0,1-.3.08.5.5,0,0,1-.4-.21C30.23,163.63,27.19,161.13,24.18,161.73Z"/><path class="cls-10" d="M19.26,166.69a2.8,2.8,0,0,1,1.38-1.27,9.18,9.18,0,0,1,6.73,3.09.47.47,0,0,1-.11.65l0,0a.46.46,0,0,1-.3.08.49.49,0,0,1-.4-.21C26,168.3,22.52,165.42,19.26,166.69Z"/><path class="cls-10" d="M29,166.89a.52.52,0,0,1-.4-.21c-.48-.69-3.6-3.28-6.63-2.55a1.75,1.75,0,0,1,1-1.1,9.26,9.26,0,0,1,6.47,3.12.47.47,0,0,1-.12.66h0a.45.45,0,0,1-.34.07Z"/><path class="cls-4" d="M59.78,74.08c-5,3.23-19.42,12.87-26.55,18.74-2.06,1.7-4.5,3.38-4,9.54.59,7,5.79,31,5.79,31L79.33,85.8Z"/><path class="cls-2" d="M36.6,126C43,121.25,64.44,91.28,64.44,91.28l-.82-.22C59.34,88.57,58.45,83,58.45,83c-.82,2.43.33,6,1.63,8-1.63,1.25-9.59,7.26-15.94,11.73A8.67,8.67,0,0,0,40.23,108C38.6,114.45,36.54,124.65,36.6,126Z"/><path class="cls-4" d="M61.81,75.89h0l34.8,8.39c-2,9.46-3.88,11.8-5.45,13.75-2.33,2.9-5.58,5.9-14.56,10s-17.23,8-19.35,8.92c-1.6.67-2.67,3.94-3.57,8-1,4.22-1.17,6.94-5.8,15.68-4.53,8.54-6,10.51-6,10.51s-6.41.36-10.46-3.57c0,0,7.2-29.71,8.68-35,.83-3,.92-4.57,4.82-7.71,3.35-2.68,18.72-13.68,18.72-13.68S57.75,84,61.81,75.89Z"/><path class="cls-11" d="M76.27,30.69c-3.51-.28-6.38,0-9.25,2.66C63.2,36.94,55.48,51,50.79,58.75l9.14,10,8.92-14.3Z"/><path class="cls-3" d="M76,30.58c-2.7-.23-6.07-.64-8.85,2.09C64.77,35.07,58.56,45,58.56,45a18,18,0,0,0,4.79,6.21,16.76,16.76,0,0,0,6.26,2.72l7.15-23.27Z"/><path class="cls-10" d="M85.61,32.21c5.11,1.53,8.8,2.65,14.59,7.07,1.33,1.57,2.86,5.16,2.35,11.58a161.77,161.77,0,0,1-3.12,23.4C98,82.17,95.54,90.32,95.54,90.32c-12.74,2.9-33.93-7.07-37.1-15.57,2.48-3.06,3.9-5.82,7-26.35C67,38.15,71.57,32.43,76,30.61a44.94,44.94,0,0,1,9.57,1.6Z"/><path class="cls-3" d="M44.47,46.52a.32.32,0,0,1,.3,0l10.89,3a1.58,1.58,0,0,1,.84.66L67,69.31c.08.15.08.26,0,.32l-1.1,1.08a.26.26,0,0,1-.3,0l-10.9-3a1.59,1.59,0,0,1-.83-.66L43.38,47.92c-.08-.15-.09-.27,0-.33Z"/><path class="cls-4" d="M55,50.85a1.49,1.49,0,0,1,.38.41L65.85,70.35c.08.14.08.25,0,.32l1.09-1.07c.06-.06.06-.18,0-.33L56.49,50.17a1.32,1.32,0,0,0-.37-.41Z"/><path class="cls-2" d="M65.57,70.7l-10.89-3a1.52,1.52,0,0,1-.84-.65L43.4,47.92c-.16-.28,0-.44.27-.35l10.9,3a1.57,1.57,0,0,1,.83.67L65.85,70.35C66,70.63,65.88,70.79,65.57,70.7Z"/><path class="cls-4" d="M55.87,54.56l-1.06-1.94a1.81,1.81,0,0,0-1-.74l-.43-.12c-.55-.15-.78.13-.51.64L54,54.34a1.81,1.81,0,0,0,1,.74l.42.12C55.92,55.36,56.15,55.07,55.87,54.56Z"/><path class="cls-3" d="M55.42,54.37a1.66,1.66,0,0,0-.91-.69c-.33-.1-.49.06-.33.34a1.69,1.69,0,0,0,.9.7C55.42,54.81,55.58,54.65,55.42,54.37Z"/><path class="cls-12" d="M55.11,54.28a.81.81,0,0,0-.46-.35c-.17,0-.25,0-.17.18a.83.83,0,0,0,.46.34C55.12,54.51,55.19,54.42,55.11,54.28Z"/><path class="cls-3" d="M54.62,52.93a1.67,1.67,0,0,0-.9-.69c-.35-.1-.5.06-.34.34a1.67,1.67,0,0,0,.9.69C54.62,53.36,54.77,53.22,54.62,52.93Z"/><path class="cls-12" d="M54.32,52.85a.88.88,0,0,0-.47-.36c-.18-.05-.25,0-.17.18a.89.89,0,0,0,.46.35C54.32,53.07,54.4,53,54.32,52.85Z"/><path class="cls-2" d="M56.79,52.56l.14-.14a.16.16,0,0,1,.17-.05l.21.06a.16.16,0,0,1,.1.08l1,1.74a.32.32,0,0,1-.06.37l-.14.14a.2.2,0,0,1-.17.05l-.2-.06a.2.2,0,0,1-.11-.09l-1-1.73A.32.32,0,0,1,56.79,52.56Z"/><path class="cls-3" d="M57.87,54.68,56.93,53a.34.34,0,0,1,0-.37l.15-.14a.16.16,0,0,1,.23,0,.09.09,0,0,1,0,.06l1,1.73a.32.32,0,0,1-.06.37l-.14.14a.17.17,0,0,1-.24,0l0-.06Z"/><path class="cls-2" d="M58.33,55.36l.15-.14a.18.18,0,0,1,.16,0l.21.06a.14.14,0,0,1,.1.1l.95,1.73a.32.32,0,0,1,0,.36l-.15.14a.15.15,0,0,1-.17,0l-.2,0a.17.17,0,0,1-.11-.09l-1-1.74A.32.32,0,0,1,58.33,55.36Z"/><path class="cls-3" d="M59.43,57.52l-1-1.73a.34.34,0,0,1,.05-.37l.15-.14a.16.16,0,0,1,.23,0l.05.06.95,1.74a.32.32,0,0,1,0,.36l-.15.14a.16.16,0,0,1-.24,0,.1.1,0,0,1,0,0Z"/><path class="cls-11" d="M46.74,54c-1.11,1.69-1.34,2.8-.43,5.79a7.31,7.31,0,0,0,8,5.45c1.94-.17,1.39-8.74-1-8.18-3.38.81-5.07-.15-5.07-.15Z"/><path class="cls-8" d="M84.31,68.48l7.71-16s3.2-10.37,8.11-12.63c4.15,2.57,4.7,5.61,5,8.76.44,4.08-.83,8.64-4.76,16.4-3.74,7.38-6.28,12.14-8.27,14.68-2.47,3.14-5.69,2.52-11.07.64s-8-4-15.29-7.24C62.27,71.51,60,70.77,57.28,69a12,12,0,0,1-2.81-2.42,7.07,7.07,0,0,1-1.56-3,2.41,2.41,0,0,0-.16-.6c-.11-.18-.22-.35-.34-.51a4,4,0,0,1-.63-1,6.33,6.33,0,0,1-.21-1.23c0-.18,0-.37-.09-.56a3.71,3.71,0,0,0-.22-.55,4.61,4.61,0,0,1-.57-1.44.84.84,0,0,1,.3-.74s-.38-.54-.5-.73a3.61,3.61,0,0,1-.42-.86.38.38,0,0,1,0-.36.39.39,0,0,1,.17-.14c1-.55,2,.1,2.88.74,2.15,1.64,3.16,3.12,5.5,4.53,3.21,1.94,3.55.39,3.55.39l-2-3.68-.49-.9c-.29-1.52.74-2.35,1.73-.74.79,1.3,3.45,3.23,4.27,4.92s1,3.41,3.33,5S84.31,68.48,84.31,68.48Z"/><path class="cls-11" d="M84.31,68.48A34.23,34.23,0,0,1,89.57,70a8.8,8.8,0,0,0-4.63-2.83Z"/><path class="cls-11" d="M51,57.09c.37.57.8,1.09,1.22,1.62s.87,1,1.29,1.56c.22.25.42.52.65.78a10.33,10.33,0,0,0,.74.74,19,19,0,0,0,1.53,1.32l-.7-.73c-.23-.24-.47-.48-.7-.74s-.45-.49-.67-.74l-.63-.78c-.44-.53-.89-1-1.34-1.52Z"/><path class="cls-11" d="M51.46,59.57A8.14,8.14,0,0,0,52.2,61c.29.44.6.86.91,1.26s.65.82,1,1.2a12.8,12.8,0,0,0,1.11,1.1c-.33-.41-.63-.82-1-1.23l-.95-1.22-1-1.22C52,60.44,51.75,60,51.46,59.57Z"/><path class="cls-3" d="M100.2,39.28c2.26,1.59,5.4,4.56,5.4,11s-6.77,18.14-6.77,18.14-8.3-1.79-12-6.35c0,0,3.2-7.37,5.23-12.22S97.25,40.11,100.2,39.28Z"/><path class="cls-2" d="M73.54,12.54C70.78-.45,82.61,0,85.43,0S95.9,1.67,96.29,7c3.69,1,3.6,7,2.31,9.49C96.2,21,94,23.93,92.7,27.22c-.19-.15-12.06-8.56-14.76-10.86l-3-2.59C74.49,13.33,74,13,73.54,12.54Z"/><path class="cls-8" d="M96.68,24.06C94.3,25.53,93,23.8,93,23.8L92,35.17c-5.16,5.6-17.42,3.54-11.54-2l.13-2.74a17.7,17.7,0,0,1-3.4-.45A5.75,5.75,0,0,1,75.3,29a6.14,6.14,0,0,1-2.4-3.89,30,30,0,0,1-.33-8.25c.27-3.3,1-7.54,2.27-9.66C77,5.66,82.39,6,87.21,7.85a6.6,6.6,0,0,0,1.11,3.76,5.27,5.27,0,0,0,1.77,1.65,10.59,10.59,0,0,0,.31,4.17c.2.64.6,1.59,1.87,1.26.6-.17,1.14-1.4,1.81-2.22a2.67,2.67,0,0,1,4.47,1.2A5.46,5.46,0,0,1,96.68,24.06Z"/><path class="cls-11" d="M80.63,30.43c2.52,0,7.05-.59,8.48-2s2.72-4.85,2.72-4.85-.84,3.92-2,5.55-3.34,2.14-5,2.49a27.5,27.5,0,0,1-4.34.34Z"/><path class="cls-2" d="M83.78,13.67l2.3,1.25a1.36,1.36,0,0,0-.54-1.82,1.28,1.28,0,0,0-1.73.52l0,.05Z"/><path class="cls-2" d="M76.86,12.94l-2.37,1a1.36,1.36,0,0,1,.74-1.75A1.27,1.27,0,0,1,76.86,12.94Z"/><path class="cls-13" d="M83.81,22.32,79.33,23.6a2.46,2.46,0,0,0,3,1.63,2.28,2.28,0,0,0,1.56-2.82Z"/><path class="cls-11" d="M83.6,23.24a2.27,2.27,0,0,0-2.47,2,2.53,2.53,0,0,0,1.16,0,2.25,2.25,0,0,0,1.61-2,1.59,1.59,0,0,0-.3-.06Z"/><path class="cls-11" d="M81,13.69l-1.47,7.75-3.89-2.06Z"/><path class="cls-2" d="M85,16.66a1.07,1.07,0,1,1-1-1.15,1.08,1.08,0,0,1,1,1.15Z"/><path class="cls-2" d="M77.11,15.74A1.07,1.07,0,0,1,75,15.59a1.07,1.07,0,1,1,2.14.15Z"/><path class="cls-4" d="M83.6,128a1.24,1.24,0,0,1-.33,0,1.16,1.16,0,0,1-.8-1.43l0-.05,4.72-16.17a1.17,1.17,0,0,1,1.55-.58,1.18,1.18,0,0,1,.67,1.23L84.7,127.11A1.15,1.15,0,0,1,83.6,128Z"/><path class="cls-4" d="M105.66,115.26a1.13,1.13,0,0,1-.32-.05,1.15,1.15,0,0,1-.81-1.42l0-.05,4.72-16.18a1.16,1.16,0,0,1,1.54-.57,1.15,1.15,0,0,1,.67,1.22l-4.73,16.18A1.16,1.16,0,0,1,105.66,115.26Z"/><path class="cls-4" d="M124.65,89.2a1.17,1.17,0,0,0-.7-1l-6.09-3.52a3.69,3.69,0,0,0-3.36,0L70.55,110.09a1.19,1.19,0,0,0-.69,1v1.81a1.17,1.17,0,0,0,.69,1l6.1,3.52a3.75,3.75,0,0,0,3.36,0L123.91,92a1.17,1.17,0,0,0,.7-1Z"/><path class="cls-2" d="M123.91,88.24l-6.09-3.52a3.69,3.69,0,0,0-3.36,0L78.32,105.58v12.16a3.31,3.31,0,0,0,1.68-.4L123.91,92a1.18,1.18,0,0,0,.7-1V89.2a1.17,1.17,0,0,0-.7-1Z"/><path class="cls-3" d="M114.46,84.72,70.55,110.09a1,1,0,0,0-.64,1.31,1,1,0,0,0,.64.63l6.1,3.52a3.69,3.69,0,0,0,3.36,0l43.9-25.37a1,1,0,0,0,0-1.94l-6.1-3.52a3.67,3.67,0,0,0-3.35,0Z"/></g></g></svg>